PlaypenARG-Regular.ufo
<glyph name="exclam" format="2">
  <advance width="272.0"/>
  <unicode hex="0021"/>
  <outline>
    <contour>
      <point x="136.0" y="173.0" type="curve" smooth="yes"/>
      <point x="155.0" y="173.0"/>
      <point x="164.33333333333334" y="178.66666666666666"/>
      <point x="164.33333333333334" y="191.66666666666666" type="curve" smooth="yes"/>
      <point x="164.33333333333334" y="693.3333333333334" type="line" smooth="yes"/>
      <point x="164.33333333333334" y="706.3333333333334"/>
      <point x="154.66666666666666" y="712.0"/>
      <point x="136.0" y="712.0" type="curve" smooth="yes"/>
      <point x="117.0" y="712.0"/>
      <point x="107.66666666666667" y="706.3333333333334"/>
      <point x="107.66666666666667" y="693.3333333333334" type="curve" smooth="yes"/>
      <point x="107.66666666666667" y="191.66666666666666" type="line" smooth="yes"/>
      <point x="107.66666666666667" y="178.66666666666666"/>
      <point x="117.0" y="173.0"/>
    </contour>
    <contour>
      <point x="136.0" y="-11.0" type="curve" smooth="yes"/>
      <point x="162.33333333333334" y="-11.0"/>
      <point x="176.66666666666666" y="3.6666666666666665"/>
      <point x="176.0" y="34.33333333333333" type="curve" smooth="yes"/>
      <point x="176.0" y="65.0"/>
      <point x="162.33333333333334" y="80.33333333333333"/>
      <point x="136.0" y="80.33333333333333" type="curve" smooth="yes"/>
      <point x="109.0" y="80.33333333333333"/>
      <point x="95.33333333333333" y="65.0"/>
      <point x="95.33333333333333" y="34.33333333333333" type="curve" smooth="yes"/>
      <point x="95.33333333333333" y="3.6666666666666665"/>
      <point x="109.0" y="-11.0"/>
    </contour>
  </outline>
</glyph>
<glyph name="numbersign" format="2">
  <advance width="740.0"/>
  <unicode hex="0023"/>
  <outline>
    <contour>
      <point x="133.0" y="-16.0" type="curve" smooth="yes"/>
      <point x="152.0" y="-20.0"/>
      <point x="162.33333333333334" y="-17.333333333333332"/>
      <point x="165.66666666666666" y="-4.666666666666667" type="curve" smooth="yes"/>
      <point x="347.3333333333333" y="689.3333333333334" type="line" smooth="yes"/>
      <point x="350.6666666666667" y="702.0"/>
      <point x="342.6666666666667" y="710.3333333333334"/>
      <point x="325.0" y="715.0" type="curve" smooth="yes"/>
      <point x="306.0" y="719.6666666666666"/>
      <point x="295.6666666666667" y="716.3333333333334"/>
      <point x="292.3333333333333" y="703.6666666666666" type="curve" smooth="yes"/>
      <point x="110.66666666666667" y="9.666666666666666" type="line" smooth="yes"/>
      <point x="107.33333333333333" y="-3.0"/>
      <point x="115.0" y="-12.0"/>
    </contour>
    <contour>
      <point x="22.0" y="188.33333333333334" type="curve" smooth="yes"/>
      <point x="648.0" y="188.33333333333334" type="line" smooth="yes"/>
      <point x="661.6666666666666" y="188.33333333333334"/>
      <point x="666.6666666666666" y="195.0"/>
      <point x="666.6666666666666" y="214.0" type="curve" smooth="yes"/>
      <point x="666.6666666666666" y="233.33333333333334"/>
      <point x="661.6666666666666" y="240.33333333333334"/>
      <point x="648.0" y="240.33333333333334" type="curve" smooth="yes"/>
      <point x="22.0" y="240.33333333333334" type="line" smooth="yes"/>
      <point x="8.333333333333334" y="240.33333333333334"/>
      <point x="3.333333333333334" y="233.33333333333334"/>
      <point x="3.333333333333334" y="214.0" type="curve" smooth="yes"/>
      <point x="3.333333333333334" y="195.0"/>
      <point x="8.333333333333334" y="188.33333333333334"/>
    </contour>
    <contour>
      <point x="92.0" y="459.3333333333333" type="curve" smooth="yes"/>
      <point x="718.0" y="459.3333333333333" type="line" smooth="yes"/>
      <point x="731.6666666666666" y="459.3333333333333"/>
      <point x="736.6666666666666" y="466.0"/>
      <point x="736.6666666666666" y="485.0" type="curve" smooth="yes"/>
      <point x="736.6666666666666" y="504.3333333333333"/>
      <point x="731.6666666666666" y="511.3333333333333"/>
      <point x="718.0" y="511.3333333333333" type="curve" smooth="yes"/>
      <point x="92.0" y="511.3333333333333" type="line" smooth="yes"/>
      <point x="78.33333333333333" y="511.3333333333333"/>
      <point x="73.33333333333333" y="504.3333333333333"/>
      <point x="73.33333333333333" y="485.0" type="curve" smooth="yes"/>
      <point x="73.33333333333333" y="466.0"/>
      <point x="78.33333333333333" y="459.3333333333333"/>
    </contour>
    <contour>
      <point x="413.0" y="-16.0" type="curve" smooth="yes"/>
      <point x="432.0" y="-20.0"/>
      <point x="442.3333333333333" y="-17.333333333333332"/>
      <point x="445.6666666666667" y="-4.666666666666667" type="curve" smooth="yes"/>
      <point x="627.3333333333334" y="689.3333333333334" type="line" smooth="yes"/>
      <point x="630.6666666666666" y="702.0"/>
      <point x="622.6666666666666" y="710.3333333333334"/>
      <point x="605.0" y="715.0" type="curve" smooth="yes"/>
      <point x="586.0" y="719.6666666666666"/>
      <point x="575.6666666666666" y="716.3333333333334"/>
      <point x="572.3333333333334" y="703.6666666666666" type="curve" smooth="yes"/>
      <point x="390.6666666666667" y="9.666666666666666" type="line" smooth="yes"/>
      <point x="387.3333333333333" y="-3.0"/>
      <point x="395.0" y="-12.0"/>
    </contour>
  </outline>
</glyph>
<glyph name="quotesingle" format="2">
  <advance width="135.0"/>
  <unicode hex="0027"/>
  <outline>
    <contour>
      <point x="69.66666666666667" y="521.3333333333334" type="curve" smooth="yes"/>
      <point x="86.33333333333333" y="521.3333333333334"/>
      <point x="91.0" y="531.6666666666666"/>
      <point x="91.66666666666667" y="544.0" type="curve" smooth="yes"/>
      <point x="102.66666666666667" y="701.0" type="line" smooth="yes"/>
      <point x="103.66666666666667" y="716.0"/>
      <point x="94.33333333333333" y="729.0"/>
      <point x="69.66666666666667" y="729.0" type="curve" smooth="yes"/>
      <point x="45.333333333333336" y="729.0"/>
      <point x="36.0" y="716.0"/>
      <point x="37.0" y="701.0" type="curve" smooth="yes"/>
      <point x="48.0" y="543.3333333333334" type="line" smooth="yes"/>
      <point x="48.666666666666664" y="531.3333333333334"/>
      <point x="52.666666666666664" y="521.3333333333334"/>
    </contour>
  </outline>
</glyph>
<glyph name="parenright" format="2">
  <advance width="229.0"/>
  <unicode hex="0029"/>
  <outline>
    <contour>
      <point x="41.0" y="-25.666666666666668" type="curve" smooth="yes"/>
      <point x="31.333333333333336" y="-46.333333333333336"/>
      <point x="36.333333333333336" y="-52.0"/>
      <point x="54.0" y="-59.333333333333336" type="curve" smooth="yes"/>
      <point x="73.33333333333333" y="-67.33333333333333"/>
      <point x="79.66666666666667" y="-65.0"/>
      <point x="87.0" y="-49.666666666666664" type="curve" smooth="yes"/>
      <point x="150.66666666666666" y="86.66666666666667"/>
      <point x="177.33333333333334" y="218.33333333333334"/>
      <point x="177.33333333333334" y="350.0" type="curve" smooth="yes"/>
      <point x="177.33333333333334" y="481.6666666666667"/>
      <point x="150.66666666666666" y="613.3333333333334"/>
      <point x="87.0" y="749.6666666666666" type="curve" smooth="yes"/>
      <point x="79.66666666666667" y="765.0"/>
      <point x="73.33333333333333" y="767.3333333333334"/>
      <point x="54.0" y="759.3333333333334" type="curve" smooth="yes"/>
      <point x="36.333333333333336" y="752.0"/>
      <point x="31.333333333333336" y="746.3333333333334"/>
      <point x="41.0" y="725.6666666666666" type="curve" smooth="yes"/>
      <point x="92.66666666666667" y="613.3333333333334"/>
      <point x="120.66666666666667" y="481.6666666666667"/>
      <point x="120.66666666666667" y="350.0" type="curve" smooth="yes"/>
      <point x="120.66666666666667" y="218.33333333333334"/>
      <point x="92.66666666666667" y="86.66666666666667"/>
    </contour>
  </outline>
</glyph>
<glyph name="asterisk" format="2">
  <advance width="286.0"/>
  <unicode hex="002A"/>
  <outline>
    <contour>
      <point x="143.0" y="407.0" type="curve" smooth="yes"/>
      <point x="156.33333333333334" y="407.0"/>
      <point x="162.33333333333334" y="413.3333333333333"/>
      <point x="162.33333333333334" y="422.3333333333333" type="curve" smooth="yes"/>
      <point x="162.33333333333334" y="699.6666666666666" type="line" smooth="yes"/>
      <point x="162.33333333333334" y="708.6666666666666"/>
      <point x="156.33333333333334" y="715.0"/>
      <point x="143.0" y="715.0" type="curve" smooth="yes"/>
      <point x="129.66666666666666" y="715.0"/>
      <point x="123.66666666666667" y="708.6666666666666"/>
      <point x="123.66666666666667" y="699.6666666666666" type="curve" smooth="yes"/>
      <point x="123.66666666666667" y="422.3333333333333" type="line" smooth="yes"/>
      <point x="123.66666666666667" y="413.3333333333333"/>
      <point x="129.66666666666666" y="407.0"/>
    </contour>
    <contour>
      <point x="189.66666666666666" y="484.0" type="curve" smooth="yes"/>
      <point x="196.66666666666666" y="489.6666666666667"/>
      <point x="196.66666666666666" y="496.0"/>
      <point x="192.66666666666666" y="500.6666666666667" type="curve" smooth="yes"/>
      <point x="112.66666666666669" y="639.3333333333334" type="line" smooth="yes"/>
      <point x="108.66666666666669" y="643.6666666666666"/>
      <point x="102.66666666666669" y="643.6666666666666"/>
      <point x="96.33333333333334" y="638.0" type="curve" smooth="yes"/>
      <point x="89.33333333333334" y="632.3333333333334"/>
      <point x="89.33333333333334" y="626.0"/>
      <point x="93.33333333333334" y="621.3333333333334" type="curve" smooth="yes"/>
      <point x="173.33333333333331" y="482.6666666666667" type="line" smooth="yes"/>
      <point x="177.33333333333331" y="478.3333333333333"/>
      <point x="183.33333333333331" y="478.3333333333333"/>
    </contour>
    <contour>
      <point x="96.33333333333334" y="484.0" type="curve" smooth="yes"/>
      <point x="102.66666666666669" y="478.3333333333333"/>
      <point x="108.66666666666669" y="478.3333333333333"/>
      <point x="112.66666666666669" y="482.6666666666667" type="curve" smooth="yes"/>
      <point x="192.66666666666666" y="621.3333333333334" type="line" smooth="yes"/>
      <point x="196.66666666666666" y="626.0"/>
      <point x="196.66666666666666" y="632.3333333333334"/>
      <point x="189.66666666666666" y="638.0" type="curve" smooth="yes"/>
      <point x="183.33333333333331" y="643.6666666666666"/>
      <point x="177.33333333333331" y="643.6666666666666"/>
      <point x="173.33333333333331" y="639.3333333333334" type="curve" smooth="yes"/>
      <point x="93.33333333333334" y="500.6666666666667" type="line" smooth="yes"/>
      <point x="89.33333333333334" y="496.0"/>
      <point x="89.33333333333334" y="489.6666666666667"/>
    </contour>
  </outline>
</glyph>
<glyph name="plus" format="2">
  <advance width="610.0"/>
  <unicode hex="002B"/>
  <outline>
    <contour>
      <point x="304.6666666666667" y="124.0" type="curve" smooth="yes"/>
      <point x="323.3333333333333" y="124.0"/>
      <point x="332.3333333333333" y="129.66666666666666"/>
      <point x="332.3333333333333" y="142.0" type="curve" smooth="yes"/>
      <point x="332.3333333333333" y="556.0" type="line" smooth="yes"/>
      <point x="332.3333333333333" y="568.3333333333334"/>
      <point x="323.3333333333333" y="574.0"/>
      <point x="304.6666666666667" y="574.0" type="curve" smooth="yes"/>
      <point x="286.3333333333333" y="574.0"/>
      <point x="277.6666666666667" y="568.3333333333334"/>
      <point x="277.6666666666667" y="556.0" type="curve" smooth="yes"/>
      <point x="277.6666666666667" y="142.0" type="line" smooth="yes"/>
      <point x="277.6666666666667" y="129.66666666666666"/>
      <point x="286.3333333333333" y="124.0"/>
    </contour>
    <component base="minus"/>
  </outline>
</glyph>
<glyph name="comma" format="2">
  <advance width="250.0"/>
  <unicode hex="002C"/>
  <outline>
    <contour>
      <point x="84.33333333333333" y="-144.0" type="curve" smooth="yes"/>
      <point x="93.66666666666667" y="-144.0"/>
      <point x="100.0" y="-137.66666666666666"/>
      <point x="104.66666666666667" y="-131.66666666666666" type="curve" smooth="yes"/>
      <point x="143.0" y="-83.66666666666667"/>
      <point x="158.0" y="-23.333333333333336"/>
      <point x="158.0" y="35.0" type="curve" smooth="yes"/>
      <point x="158.0" y="52.0"/>
      <point x="146.0" y="63.666666666666664"/>
      <point x="124.0" y="63.666666666666664" type="curve" smooth="yes"/>
      <point x="103.0" y="63.666666666666664"/>
      <point x="91.0" y="54.0"/>
      <point x="91.0" y="37.0" type="curve" smooth="yes"/>
      <point x="91.0" y="-39.0"/>
      <point x="87.0" y="-60.0"/>
      <point x="64.0" y="-105.0" type="curve" smooth="yes"/>
      <point x="59.66666666666667" y="-113.0"/>
      <point x="56.66666666666667" y="-119.0"/>
      <point x="56.66666666666667" y="-123.0" type="curve" smooth="yes"/>
      <point x="56.66666666666667" y="-134.66666666666666"/>
      <point x="71.66666666666667" y="-144.0"/>
    </contour>
  </outline>
</glyph>
<glyph name="hyphen" format="2">
  <advance width="460.0"/>
  <unicode hex="002D"/>
  <outline>
    <contour>
      <point x="100.66666666666667" y="247.33333333333334" type="curve" smooth="yes"/>
      <point x="359.3333333333333" y="247.33333333333334" type="line" smooth="yes"/>
      <point x="373.0" y="247.33333333333334"/>
      <point x="378.0" y="254.0"/>
      <point x="378.0" y="273.0" type="curve" smooth="yes"/>
      <point x="378.0" y="292.3333333333333"/>
      <point x="373.0" y="299.3333333333333"/>
      <point x="359.3333333333333" y="299.3333333333333" type="curve" smooth="yes"/>
      <point x="100.66666666666667" y="299.3333333333333" type="line" smooth="yes"/>
      <point x="87.0" y="299.3333333333333"/>
      <point x="82.0" y="292.3333333333333"/>
      <point x="82.0" y="273.0" type="curve" smooth="yes"/>
      <point x="82.0" y="254.0"/>
      <point x="87.0" y="247.33333333333334"/>
    </contour>
  </outline>
</glyph>
<glyph name="period" format="2">
  <advance width="250.0"/>
  <unicode hex="002E"/>
  <outline>
    <contour>
      <point x="125.0" y="-21.666666666666664" type="curve" smooth="yes"/>
      <point x="154.0" y="-21.666666666666664"/>
      <point x="169.0" y="-6.333333333333333"/>
      <point x="169.0" y="25.0" type="curve" smooth="yes"/>
      <point x="169.0" y="56.333333333333336"/>
      <point x="154.0" y="71.66666666666667"/>
      <point x="125.0" y="71.66666666666667" type="curve" smooth="yes"/>
      <point x="96.0" y="71.66666666666667"/>
      <point x="81.0" y="56.333333333333336"/>
      <point x="81.0" y="25.0" type="curve" smooth="yes"/>
      <point x="81.0" y="-6.333333333333333"/>
      <point x="96.0" y="-21.666666666666664"/>
    </contour>
  </outline>
</glyph>
<glyph name="slash" format="2">
  <advance width="258.0"/>
  <unicode hex="002F"/>
  <outline>
    <contour>
      <point x="22.0" y="-60.0" type="curve" smooth="yes"/>
      <point x="41.0" y="-65.0"/>
      <point x="51.33333333333333" y="-61.666666666666664"/>
      <point x="54.666666666666664" y="-48.666666666666664" type="curve"/>
      <point x="258.3333333333333" y="734.3333333333334" type="line" smooth="yes"/>
      <point x="261.6666666666667" y="747.0"/>
      <point x="253.66666666666666" y="755.0"/>
      <point x="236.0" y="760.0" type="curve"/>
      <point x="217.0" y="765.0"/>
      <point x="206.66666666666666" y="761.6666666666666"/>
      <point x="203.33333333333334" y="748.6666666666666" type="curve"/>
      <point x="-0.33333333333333215" y="-34.333333333333336" type="line" smooth="yes"/>
      <point x="-3.666666666666666" y="-47.0"/>
      <point x="4.0" y="-55.0"/>
    </contour>
  </outline>
</glyph>
<glyph name="zero" format="2">
  <advance width="610.0"/>
  <unicode hex="0030"/>
  <outline>
    <contour>
      <point x="306.6666666666667" y="-15.0" type="curve" smooth="yes"/>
      <point x="450.6666666666667" y="-15.0"/>
      <point x="559.0" y="97.0"/>
      <point x="559.0" y="349.0" type="curve" smooth="yes"/>
      <point x="559.0" y="600.0"/>
      <point x="450.6666666666667" y="712.0"/>
      <point x="306.6666666666667" y="712.0" type="curve" smooth="yes"/>
      <point x="159.33333333333334" y="712.0"/>
      <point x="51.0" y="600.0"/>
      <point x="51.0" y="349.0" type="curve" smooth="yes"/>
      <point x="51.0" y="97.0"/>
      <point x="159.33333333333334" y="-15.0"/>
    </contour>
    <contour>
      <point x="305.3333333333333" y="40.33333333333333" type="curve" smooth="yes"/>
      <point x="191.66666666666666" y="40.33333333333333"/>
      <point x="112.0" y="137.66666666666666"/>
      <point x="112.0" y="349.0" type="curve" smooth="yes"/>
      <point x="112.0" y="560.3333333333334"/>
      <point x="191.66666666666666" y="656.6666666666666"/>
      <point x="305.3333333333333" y="656.6666666666666" type="curve" smooth="yes"/>
      <point x="418.3333333333333" y="656.6666666666666"/>
      <point x="498.0" y="560.3333333333334"/>
      <point x="498.0" y="349.0" type="curve" smooth="yes"/>
      <point x="498.0" y="137.66666666666666"/>
      <point x="418.3333333333333" y="40.33333333333333"/>
    </contour>
  </outline>
</glyph>
<glyph name="one" format="2">
  <advance width="360.0"/>
  <unicode hex="0031"/>
  <outline>
    <contour>
      <point x="194.0" y="-11.0" type="curve" smooth="yes"/>
      <point x="214.33333333333334" y="-11.0"/>
      <point x="222.33333333333334" y="-4.666666666666667"/>
      <point x="222.33333333333334" y="7.666666666666666" type="curve" smooth="yes"/>
      <point x="222.33333333333334" y="693.3333333333334" type="line" smooth="yes"/>
      <point x="222.33333333333334" y="703.6666666666666"/>
      <point x="216.33333333333334" y="712.0"/>
      <point x="196.0" y="712.0" type="curve" smooth="yes"/>
      <point x="176.33333333333334" y="712.0"/>
      <point x="170.33333333333334" y="708.6666666666666"/>
      <point x="159.33333333333334" y="697.6666666666666" type="curve" smooth="yes"/>
      <point x="109.66666666666667" y="647.6666666666666"/>
      <point x="69.0" y="618.0"/>
      <point x="25.0" y="590.0" type="curve" smooth="yes"/>
      <point x="6.666666666666668" y="578.0"/>
      <point x="5.333333333333334" y="570.0"/>
      <point x="16.666666666666668" y="552.6666666666666" type="curve" smooth="yes"/>
      <point x="28.0" y="536.3333333333334"/>
      <point x="39.333333333333336" y="538.6666666666666"/>
      <point x="52.333333333333336" y="546.0" type="curve" smooth="yes"/>
      <point x="85.33333333333333" y="565.3333333333334"/>
      <point x="128.33333333333334" y="597.3333333333334"/>
      <point x="165.66666666666666" y="631.0" type="curve"/>
      <point x="165.66666666666666" y="7.666666666666666" type="line" smooth="yes"/>
      <point x="165.66666666666666" y="-4.666666666666667"/>
      <point x="173.66666666666666" y="-11.0"/>
    </contour>
  </outline>
</glyph>
<glyph name="two" format="2">
  <advance width="530.0"/>
  <unicode hex="0032"/>
  <outline>
    <contour>
      <point x="58.333333333333336" y="0.0" type="curve" smooth="yes"/>
      <point x="458.6666666666667" y="0.0" type="line" smooth="yes"/>
      <point x="472.3333333333333" y="0.0"/>
      <point x="476.3333333333333" y="9.666666666666666"/>
      <point x="476.3333333333333" y="27.666666666666664" type="curve" smooth="yes"/>
      <point x="476.3333333333333" y="46.33333333333333"/>
      <point x="470.3333333333333" y="52.0"/>
      <point x="458.6666666666667" y="52.0" type="curve" smooth="yes"/>
      <point x="127.33333333333333" y="52.0" type="line"/>
      <point x="228.66666666666666" y="152.66666666666666" type="line" smooth="yes"/>
      <point x="379.3333333333333" y="302.0"/>
      <point x="465.3333333333333" y="419.6666666666667"/>
      <point x="465.3333333333333" y="532.6666666666666" type="curve" smooth="yes"/>
      <point x="465.3333333333333" y="654.0"/>
      <point x="374.0" y="712.0"/>
      <point x="259.0" y="712.0" type="curve" smooth="yes"/>
      <point x="169.33333333333334" y="712.0"/>
      <point x="91.33333333333333" y="670.0"/>
      <point x="57.0" y="629.0" type="curve" smooth="yes"/>
      <point x="49.0" y="619.3333333333334"/>
      <point x="42.333333333333336" y="608.0"/>
      <point x="58.66666666666667" y="594.0" type="curve" smooth="yes"/>
      <point x="72.33333333333333" y="582.3333333333334"/>
      <point x="82.0" y="582.6666666666666"/>
      <point x="96.0" y="594.6666666666666" type="curve" smooth="yes"/>
      <point x="141.0" y="633.6666666666666"/>
      <point x="187.0" y="658.6666666666666"/>
      <point x="253.0" y="658.6666666666666" type="curve" smooth="yes"/>
      <point x="348.3333333333333" y="658.6666666666666"/>
      <point x="408.0" y="623.3333333333334"/>
      <point x="408.0" y="528.6666666666666" type="curve" smooth="yes"/>
      <point x="408.0" y="433.0"/>
      <point x="331.3333333333333" y="328.3333333333333"/>
      <point x="192.66666666666666" y="190.66666666666666" type="curve" smooth="yes"/>
      <point x="42.333333333333336" y="41.33333333333333" type="line"/>
      <point x="25.666666666666668" y="24.333333333333332"/>
      <point x="39.666666666666664" y="0.0"/>
    </contour>
  </outline>
</glyph>
<glyph name="three" format="2">
  <advance width="530.0"/>
  <unicode hex="0033"/>
  <outline>
    <contour>
      <point x="250.66666666666666" y="-15.0" type="curve" smooth="yes"/>
      <point x="395.0" y="-15.0"/>
      <point x="477.3333333333333" y="68.33333333333333"/>
      <point x="477.3333333333333" y="197.33333333333334" type="curve" smooth="yes"/>
      <point x="477.3333333333333" y="281.6666666666667"/>
      <point x="428.0" y="355.0"/>
      <point x="325.6666666666667" y="378.0" type="curve"/>
      <point x="412.0" y="405.0"/>
      <point x="447.3333333333333" y="471.6666666666667"/>
      <point x="447.3333333333333" y="537.6666666666666" type="curve" smooth="yes"/>
      <point x="447.3333333333333" y="653.6666666666666"/>
      <point x="358.3333333333333" y="712.0"/>
      <point x="247.33333333333334" y="712.0" type="curve" smooth="yes"/>
      <point x="164.66666666666666" y="712.0"/>
      <point x="93.0" y="673.3333333333334"/>
      <point x="52.333333333333336" y="631.3333333333334" type="curve" smooth="yes"/>
      <point x="43.66666666666667" y="622.3333333333334"/>
      <point x="38.0" y="611.0"/>
      <point x="53.666666666666664" y="596.3333333333334" type="curve" smooth="yes"/>
      <point x="66.33333333333333" y="583.6666666666666"/>
      <point x="76.66666666666667" y="585.6666666666666"/>
      <point x="91.33333333333333" y="597.0" type="curve" smooth="yes"/>
      <point x="137.66666666666666" y="634.6666666666666"/>
      <point x="186.66666666666666" y="659.3333333333334"/>
      <point x="247.33333333333334" y="659.3333333333334" type="curve" smooth="yes"/>
      <point x="316.6666666666667" y="659.3333333333334"/>
      <point x="388.6666666666667" y="622.3333333333334"/>
      <point x="388.6666666666667" y="536.6666666666666" type="curve" smooth="yes"/>
      <point x="388.6666666666667" y="469.0"/>
      <point x="343.3333333333333" y="403.0"/>
      <point x="241.0" y="403.0" type="curve" smooth="yes"/>
      <point x="192.0" y="403.0" type="line" smooth="yes"/>
      <point x="180.33333333333334" y="403.0"/>
      <point x="174.33333333333334" y="397.0"/>
      <point x="174.33333333333334" y="378.3333333333333" type="curve" smooth="yes"/>
      <point x="174.33333333333334" y="360.3333333333333"/>
      <point x="178.33333333333334" y="351.0"/>
      <point x="192.0" y="351.0" type="curve" smooth="yes"/>
      <point x="238.66666666666666" y="351.0" type="line" smooth="yes"/>
      <point x="347.6666666666667" y="351.0"/>
      <point x="417.6666666666667" y="287.3333333333333"/>
      <point x="417.6666666666667" y="199.66666666666666" type="curve" smooth="yes"/>
      <point x="417.6666666666667" y="96.0"/>
      <point x="351.6666666666667" y="37.666666666666664"/>
      <point x="249.66666666666666" y="37.666666666666664" type="curve" smooth="yes"/>
      <point x="183.0" y="37.666666666666664"/>
      <point x="122.66666666666667" y="71.33333333333333"/>
      <point x="69.66666666666667" y="134.0" type="curve" smooth="yes"/>
      <point x="57.666666666666664" y="148.33333333333334"/>
      <point x="46.666666666666664" y="147.0"/>
      <point x="33.333333333333336" y="135.33333333333334" type="curve" smooth="yes"/>
      <point x="17.666666666666668" y="121.66666666666667"/>
      <point x="22.333333333333336" y="110.0"/>
      <point x="31.666666666666668" y="98.66666666666667" type="curve" smooth="yes"/>
      <point x="95.0" y="19.333333333333332"/>
      <point x="172.66666666666666" y="-15.0"/>
    </contour>
  </outline>
</glyph>
<glyph name="four" format="2">
  <advance width="540.0"/>
  <unicode hex="0034"/>
  <outline>
    <contour>
      <point x="54.0" y="184.0" type="curve" smooth="yes"/>
      <point x="502.3333333333333" y="184.0" type="line" smooth="yes"/>
      <point x="517.3333333333334" y="184.0"/>
      <point x="521.0" y="193.0"/>
      <point x="521.0" y="211.33333333333334" type="curve" smooth="yes"/>
      <point x="521.0" y="230.33333333333334"/>
      <point x="515.3333333333334" y="236.0"/>
      <point x="502.3333333333333" y="236.0" type="curve" smooth="yes"/>
      <point x="98.0" y="236.0" type="line"/>
      <point x="305.3333333333333" y="683.0" type="line" smooth="yes"/>
      <point x="315.0" y="703.3333333333334"/>
      <point x="304.0" y="712.0"/>
      <point x="284.3333333333333" y="712.0" type="curve" smooth="yes"/>
      <point x="263.0" y="712.0"/>
      <point x="256.3333333333333" y="706.6666666666666"/>
      <point x="249.66666666666666" y="692.0" type="curve" smooth="yes"/>
      <point x="32.666666666666664" y="218.0" type="line" smooth="yes"/>
      <point x="24.333333333333336" y="199.33333333333334"/>
      <point x="37.0" y="184.0"/>
    </contour>
    <contour>
      <point x="400.6666666666667" y="-11.0" type="curve" smooth="yes"/>
      <point x="419.6666666666667" y="-11.0"/>
      <point x="429.0" y="-5.333333333333334"/>
      <point x="429.0" y="7.666666666666666" type="curve" smooth="yes"/>
      <point x="429.0" y="473.3333333333333" type="line" smooth="yes"/>
      <point x="429.0" y="486.3333333333333"/>
      <point x="419.6666666666667" y="492.0"/>
      <point x="400.6666666666667" y="492.0" type="curve" smooth="yes"/>
      <point x="381.6666666666667" y="492.0"/>
      <point x="372.3333333333333" y="486.3333333333333"/>
      <point x="372.3333333333333" y="473.3333333333333" type="curve" smooth="yes"/>
      <point x="372.3333333333333" y="7.666666666666666" type="line" smooth="yes"/>
      <point x="372.3333333333333" y="-5.333333333333334"/>
      <point x="381.6666666666667" y="-11.0"/>
    </contour>
  </outline>
</glyph>
<glyph name="five" format="2">
  <advance width="530.0"/>
  <unicode hex="0035"/>
  <outline>
    <contour>
      <point x="257.3333333333333" y="-15.0" type="curve" smooth="yes"/>
      <point x="394.0" y="-15.0"/>
      <point x="481.6666666666667" y="69.0"/>
      <point x="481.6666666666667" y="219.0" type="curve" smooth="yes"/>
      <point x="481.6666666666667" y="351.0"/>
      <point x="400.0" y="445.3333333333333"/>
      <point x="261.3333333333333" y="445.3333333333333" type="curve" smooth="yes"/>
      <point x="211.0" y="445.3333333333333"/>
      <point x="167.0" y="426.0"/>
      <point x="136.33333333333334" y="402.0" type="curve"/>
      <point x="145.33333333333334" y="648.0" type="line"/>
      <point x="439.6666666666667" y="648.0" type="line" smooth="yes"/>
      <point x="453.3333333333333" y="648.0"/>
      <point x="457.3333333333333" y="657.6666666666666"/>
      <point x="457.3333333333333" y="675.6666666666666" type="curve" smooth="yes"/>
      <point x="457.3333333333333" y="694.3333333333334"/>
      <point x="451.3333333333333" y="700.0"/>
      <point x="439.6666666666667" y="700.0" type="curve" smooth="yes"/>
      <point x="113.33333333333333" y="700.0" type="line" smooth="yes"/>
      <point x="101.66666666666667" y="700.0"/>
      <point x="94.66666666666667" y="693.6666666666666"/>
      <point x="94.66666666666667" y="684.6666666666666" type="curve" smooth="yes"/>
      <point x="81.66666666666667" y="345.6666666666667" type="line" smooth="yes"/>
      <point x="81.0" y="329.6666666666667"/>
      <point x="107.33333333333333" y="314.3333333333333"/>
      <point x="128.66666666666666" y="338.0" type="curve" smooth="yes"/>
      <point x="159.33333333333334" y="373.6666666666667"/>
      <point x="206.0" y="393.0"/>
      <point x="259.6666666666667" y="393.0" type="curve" smooth="yes"/>
      <point x="363.6666666666667" y="393.0"/>
      <point x="422.0" y="317.6666666666667"/>
      <point x="422.0" y="219.0" type="curve" smooth="yes"/>
      <point x="422.0" y="102.0"/>
      <point x="369.3333333333333" y="37.33333333333333"/>
      <point x="258.0" y="37.33333333333333" type="curve" smooth="yes"/>
      <point x="186.0" y="37.33333333333333"/>
      <point x="139.33333333333334" y="71.33333333333333"/>
      <point x="89.66666666666667" y="134.0" type="curve" smooth="yes"/>
      <point x="78.0" y="148.33333333333334"/>
      <point x="66.66666666666667" y="146.66666666666666"/>
      <point x="53.66666666666667" y="135.33333333333334" type="curve" smooth="yes"/>
      <point x="37.66666666666667" y="121.66666666666667"/>
      <point x="43.333333333333336" y="110.0"/>
      <point x="51.66666666666667" y="98.66666666666667" type="curve" smooth="yes"/>
      <point x="108.0" y="22.0"/>
      <point x="178.66666666666666" y="-15.0"/>
    </contour>
  </outline>
</glyph>
<glyph name="six" format="2">
  <advance width="570.0"/>
  <unicode hex="0036"/>
  <outline>
    <contour>
      <point x="300.0" y="-15.0" type="curve" smooth="yes"/>
      <point x="438.0" y="-15.0"/>
      <point x="523.3333333333334" y="78.0"/>
      <point x="523.3333333333334" y="218.0" type="curve" smooth="yes"/>
      <point x="523.3333333333334" y="353.0"/>
      <point x="438.6666666666667" y="435.3333333333333"/>
      <point x="304.0" y="435.3333333333333" type="curve" smooth="yes"/>
      <point x="206.33333333333334" y="435.3333333333333"/>
      <point x="121.0" y="373.6666666666667"/>
      <point x="93.33333333333333" y="286.3333333333333" type="curve"/>
      <point x="111.33333333333333" y="248.33333333333334" type="line"/>
      <point x="139.33333333333334" y="324.3333333333333"/>
      <point x="214.66666666666666" y="383.0"/>
      <point x="303.0" y="383.0" type="curve" smooth="yes"/>
      <point x="401.6666666666667" y="383.0"/>
      <point x="463.6666666666667" y="319.0"/>
      <point x="463.6666666666667" y="216.66666666666666" type="curve" smooth="yes"/>
      <point x="463.6666666666667" y="109.33333333333333"/>
      <point x="403.0" y="37.666666666666664"/>
      <point x="300.0" y="37.666666666666664" type="curve" smooth="yes"/>
      <point x="202.33333333333334" y="37.666666666666664"/>
      <point x="126.33333333333333" y="120.0"/>
      <point x="126.33333333333333" y="278.0" type="curve" smooth="yes"/>
      <point x="126.33333333333333" y="499.0"/>
      <point x="208.0" y="643.3333333333334"/>
      <point x="428.6666666666667" y="660.6666666666666" type="curve" smooth="yes"/>
      <point x="445.3333333333333" y="662.3333333333334"/>
      <point x="449.0" y="670.3333333333334"/>
      <point x="447.3333333333333" y="689.6666666666666" type="curve" smooth="yes"/>
      <point x="445.6666666666667" y="708.3333333333334"/>
      <point x="439.3333333333333" y="712.3333333333334"/>
      <point x="406.6666666666667" y="710.0" type="curve" smooth="yes"/>
      <point x="180.66666666666666" y="691.6666666666666"/>
      <point x="66.66666666666667" y="538.6666666666666"/>
      <point x="66.66666666666667" y="280.0" type="curve" smooth="yes"/>
      <point x="66.66666666666667" y="104.0"/>
      <point x="149.0" y="-15.0"/>
    </contour>
  </outline>
</glyph>
<glyph name="seven" format="2">
  <advance width="430.0"/>
  <unicode hex="0037"/>
  <outline>
    <contour>
      <point x="116.0" y="-8.666666666666666" type="curve" smooth="yes"/>
      <point x="139.66666666666666" y="-17.333333333333332"/>
      <point x="146.33333333333334" y="-8.333333333333334"/>
      <point x="155.33333333333334" y="14.0" type="curve" smooth="yes"/>
      <point x="412.6666666666667" y="668.3333333333334" type="line" smooth="yes"/>
      <point x="418.6666666666667" y="684.3333333333334"/>
      <point x="407.0" y="700.0"/>
      <point x="392.0" y="700.0" type="curve" smooth="yes"/>
      <point x="20.333333333333336" y="700.0" type="line" smooth="yes"/>
      <point x="6.666666666666668" y="700.0"/>
      <point x="2.666666666666668" y="691.0"/>
      <point x="2.666666666666668" y="673.0" type="curve" smooth="yes"/>
      <point x="2.666666666666668" y="654.3333333333334"/>
      <point x="8.666666666666668" y="648.0"/>
      <point x="20.333333333333336" y="648.0" type="curve" smooth="yes"/>
      <point x="346.3333333333333" y="648.0" type="line"/>
      <point x="100.0" y="23.0" type="line" smooth="yes"/>
      <point x="93.0" y="5.333333333333333"/>
      <point x="96.0" y="-1.333333333333334"/>
    </contour>
  </outline>
</glyph>
<glyph name="eight" format="2">
  <advance width="530.0"/>
  <unicode hex="0038"/>
  <outline>
    <contour>
      <point x="265.6666666666667" y="-15.0" type="curve" smooth="yes"/>
      <point x="407.6666666666667" y="-15.0"/>
      <point x="491.3333333333333" y="60.333333333333336"/>
      <point x="491.3333333333333" y="186.66666666666666" type="curve" smooth="yes"/>
      <point x="491.3333333333333" y="275.0"/>
      <point x="436.6666666666667" y="343.0"/>
      <point x="340.0" y="382.3333333333333" type="curve"/>
      <point x="428.0" y="420.6666666666667"/>
      <point x="461.3333333333333" y="488.0"/>
      <point x="461.3333333333333" y="548.3333333333334" type="curve" smooth="yes"/>
      <point x="461.3333333333333" y="665.0"/>
      <point x="371.6666666666667" y="713.3333333333334"/>
      <point x="267.0" y="713.3333333333334" type="curve" smooth="yes"/>
      <point x="161.33333333333334" y="713.3333333333334"/>
      <point x="69.66666666666667" y="661.0"/>
      <point x="69.66666666666667" y="545.0" type="curve" smooth="yes"/>
      <point x="69.66666666666667" y="469.0"/>
      <point x="114.0" y="410.0"/>
      <point x="192.66666666666666" y="375.3333333333333" type="curve"/>
      <point x="87.0" y="334.6666666666667"/>
      <point x="39.66666666666667" y="256.6666666666667"/>
      <point x="39.66666666666667" y="181.66666666666666" type="curve" smooth="yes"/>
      <point x="39.66666666666667" y="53.666666666666664"/>
      <point x="123.66666666666667" y="-15.0"/>
    </contour>
    <contour>
      <point x="266.0" y="37.33333333333333" type="curve" smooth="yes"/>
      <point x="160.66666666666666" y="37.33333333333333"/>
      <point x="99.33333333333333" y="85.33333333333333"/>
      <point x="99.33333333333333" y="182.0" type="curve" smooth="yes"/>
      <point x="99.33333333333333" y="259.6666666666667"/>
      <point x="159.33333333333334" y="321.6666666666667"/>
      <point x="259.0" y="351.6666666666667" type="curve"/>
      <point x="366.3333333333333" y="320.3333333333333"/>
      <point x="431.6666666666667" y="267.3333333333333"/>
      <point x="431.6666666666667" y="185.66666666666666" type="curve" smooth="yes"/>
      <point x="431.6666666666667" y="88.0"/>
      <point x="371.0" y="37.33333333333333"/>
    </contour>
    <contour>
      <point x="274.6666666666667" y="403.0" type="curve"/>
      <point x="176.0" y="429.6666666666667"/>
      <point x="128.66666666666666" y="483.3333333333333"/>
      <point x="128.66666666666666" y="545.3333333333334" type="curve" smooth="yes"/>
      <point x="128.66666666666666" y="626.3333333333334"/>
      <point x="194.0" y="661.0"/>
      <point x="266.0" y="661.0" type="curve" smooth="yes"/>
      <point x="338.0" y="661.0"/>
      <point x="402.3333333333333" y="629.0"/>
      <point x="402.3333333333333" y="548.6666666666666" type="curve" smooth="yes"/>
      <point x="402.3333333333333" y="482.6666666666667"/>
      <point x="357.3333333333333" y="427.3333333333333"/>
    </contour>
  </outline>
</glyph>
<glyph name="less" format="2">
  <advance width="610.0"/>
  <unicode hex="003C"/>
  <outline>
    <contour>
      <point x="500.6666666666667" y="154.33333333333334" type="line" smooth="yes"/>
      <point x="519.0" y="146.33333333333334"/>
      <point x="527.0" y="149.33333333333334"/>
      <point x="534.0" y="167.66666666666666" type="curve" smooth="yes"/>
      <point x="541.0" y="185.66666666666666"/>
      <point x="537.6666666666666" y="195.33333333333334"/>
      <point x="524.0" y="201.33333333333331" type="curve" smooth="yes"/>
      <point x="162.33333333333331" y="355.6666666666667" type="line"/>
      <point x="524.0" y="510.0" type="line" smooth="yes"/>
      <point x="538.3333333333334" y="516.0"/>
      <point x="541.6666666666666" y="525.6666666666666"/>
      <point x="534.0" y="543.6666666666666" type="curve" smooth="yes"/>
      <point x="527.0" y="561.3333333333334"/>
      <point x="519.6666666666666" y="565.0"/>
      <point x="500.6666666666667" y="557.0" type="curve" smooth="yes"/>
      <point x="105.0" y="387.3333333333333" type="line" smooth="yes"/>
      <point x="87.0" y="379.3333333333333"/>
      <point x="80.0" y="372.3333333333333"/>
      <point x="80.0" y="355.6666666666667" type="curve" smooth="yes"/>
      <point x="80.0" y="339.3333333333333"/>
      <point x="87.0" y="332.0"/>
      <point x="105.0" y="324.0" type="curve" smooth="yes"/>
    </contour>
  </outline>
</glyph>
<glyph name="greater" format="2">
  <advance width="610.0"/>
  <unicode hex="003E"/>
  <outline>
    <contour>
      <point x="109.33333333333333" y="154.33333333333334" type="curve" smooth="yes"/>
      <point x="505.0" y="324.0" type="line" smooth="yes"/>
      <point x="523.0" y="332.0"/>
      <point x="530.0" y="339.3333333333333"/>
      <point x="530.0" y="355.6666666666667" type="curve" smooth="yes"/>
      <point x="530.0" y="372.3333333333333"/>
      <point x="523.0" y="379.3333333333333"/>
      <point x="505.0" y="387.3333333333333" type="curve" smooth="yes"/>
      <point x="109.33333333333333" y="557.0" type="line" smooth="yes"/>
      <point x="90.33333333333333" y="565.0"/>
      <point x="83.0" y="561.3333333333334"/>
      <point x="76.0" y="543.6666666666666" type="curve" smooth="yes"/>
      <point x="68.33333333333333" y="525.6666666666666"/>
      <point x="71.66666666666667" y="516.0"/>
      <point x="86.0" y="510.0" type="curve" smooth="yes"/>
      <point x="447.6666666666667" y="355.6666666666667" type="line"/>
      <point x="86.0" y="201.33333333333331" type="line" smooth="yes"/>
      <point x="72.33333333333333" y="195.33333333333334"/>
      <point x="69.0" y="185.66666666666666"/>
      <point x="76.0" y="167.66666666666666" type="curve" smooth="yes"/>
      <point x="83.0" y="149.33333333333334"/>
      <point x="91.0" y="146.33333333333334"/>
    </contour>
  </outline>
</glyph>
<glyph name="question" format="2">
  <advance width="398.0"/>
  <unicode hex="003F"/>
  <outline>
    <contour>
      <point x="156.0" y="172.33333333333334" type="curve" smooth="yes"/>
      <point x="175.0" y="172.33333333333334"/>
      <point x="184.33333333333334" y="177.66666666666666"/>
      <point x="184.33333333333334" y="191.0" type="curve" smooth="yes"/>
      <point x="184.33333333333334" y="307.3333333333333" type="line"/>
      <point x="283.3333333333333" y="321.3333333333333"/>
      <point x="383.0" y="374.6666666666667"/>
      <point x="383.0" y="515.0" type="curve" smooth="yes"/>
      <point x="383.0" y="645.0"/>
      <point x="296.3333333333333" y="712.0"/>
      <point x="194.0" y="712.0" type="curve" smooth="yes"/>
      <point x="128.66666666666666" y="712.0"/>
      <point x="63.0" y="683.0"/>
      <point x="19.333333333333332" y="638.6666666666666" type="curve" smooth="yes"/>
      <point x="10.0" y="629.6666666666666"/>
      <point x="11.333333333333334" y="619.3333333333334"/>
      <point x="22.333333333333332" y="607.6666666666666" type="curve" smooth="yes"/>
      <point x="34.333333333333336" y="595.6666666666666"/>
      <point x="44.333333333333336" y="595.0"/>
      <point x="55.0" y="604.3333333333334" type="curve" smooth="yes"/>
      <point x="89.66666666666667" y="636.0"/>
      <point x="130.0" y="659.3333333333334"/>
      <point x="194.0" y="659.3333333333334" type="curve" smooth="yes"/>
      <point x="273.0" y="659.3333333333334"/>
      <point x="324.3333333333333" y="604.3333333333334"/>
      <point x="324.3333333333333" y="517.0" type="curve" smooth="yes"/>
      <point x="324.3333333333333" y="395.0"/>
      <point x="243.0" y="358.3333333333333"/>
      <point x="149.0" y="358.0" type="curve" smooth="yes"/>
      <point x="135.0" y="358.0"/>
      <point x="127.66666666666667" y="350.6666666666667"/>
      <point x="127.66666666666667" y="338.6666666666667" type="curve" smooth="yes"/>
      <point x="127.66666666666667" y="191.33333333333334" type="line" smooth="yes"/>
      <point x="127.66666666666667" y="177.66666666666666"/>
      <point x="137.0" y="172.33333333333334"/>
    </contour>
    <contour>
      <point x="156.0" y="-11.0" type="curve" smooth="yes"/>
      <point x="182.33333333333334" y="-11.0"/>
      <point x="196.0" y="3.6666666666666665"/>
      <point x="196.0" y="34.33333333333333" type="curve" smooth="yes"/>
      <point x="196.0" y="65.0"/>
      <point x="182.33333333333334" y="80.33333333333333"/>
      <point x="156.0" y="80.33333333333333" type="curve" smooth="yes"/>
      <point x="129.0" y="80.33333333333333"/>
      <point x="115.33333333333333" y="65.0"/>
      <point x="115.33333333333333" y="34.33333333333333" type="curve" smooth="yes"/>
      <point x="115.33333333333333" y="3.6666666666666665"/>
      <point x="129.0" y="-11.0"/>
    </contour>
  </outline>
</glyph>
<glyph name="A" format="2">
  <advance width="600.0"/>
  <unicode hex="0041"/>
  <anchor x="300.0" y="0.0" name="bottom"/>
  <anchor x="574.0" y="-2.0" name="ogonek"/>
  <anchor x="300.0" y="670.0" name="top"/>
  <outline>
    <contour>
      <point x="44.33333333333333" y="-10.666666666666666" type="curve" smooth="yes"/>
      <point x="63.33333333333333" y="-12.0"/>
      <point x="69.33333333333333" y="-5.666666666666667"/>
      <point x="76.33333333333333" y="12.666666666666666" type="curve" smooth="yes"/>
      <point x="145.33333333333334" y="202.33333333333334" type="line"/>
      <point x="454.0" y="202.33333333333334" type="line"/>
      <point x="523.0" y="12.666666666666666" type="line" smooth="yes"/>
      <point x="530.0" y="-5.666666666666667"/>
      <point x="536.0" y="-12.0"/>
      <point x="555.6666666666666" y="-10.666666666666666" type="curve" smooth="yes"/>
      <point x="577.6666666666666" y="-9.333333333333332"/>
      <point x="586.0" y="1.333333333333333"/>
      <point x="579.6666666666666" y="19.0" type="curve" smooth="yes"/>
      <point x="335.6666666666667" y="686.6666666666666" type="line" smooth="yes"/>
      <point x="328.6666666666667" y="706.3333333333334"/>
      <point x="320.6666666666667" y="712.0"/>
      <point x="300.6666666666667" y="712.0" type="curve" smooth="yes"/>
      <point x="279.6666666666667" y="712.0"/>
      <point x="271.6666666666667" y="706.3333333333334"/>
      <point x="264.6666666666667" y="686.6666666666666" type="curve" smooth="yes"/>
      <point x="21.0" y="19.0" type="line" smooth="yes"/>
      <point x="14.666666666666668" y="1.333333333333333"/>
      <point x="22.333333333333332" y="-9.333333333333332"/>
    </contour>
    <contour>
      <point x="164.0" y="254.33333333333334" type="line"/>
      <point x="300.0" y="627.0" type="line"/>
      <point x="435.0" y="254.33333333333334" type="line"/>
    </contour>
  </outline>
</glyph>
<glyph name="B" format="2">
  <advance width="580.0"/>
  <unicode hex="0042"/>
  <anchor x="290.0" y="0.0" name="bottom"/>
  <anchor x="136.0" y="206.0" name="center"/>
  <anchor x="290.0" y="670.0" name="top"/>
  <outline>
    <contour>
      <point x="135.0" y="0.0" type="curve" smooth="yes"/>
      <point x="277.0" y="0.0" type="line" smooth="yes"/>
      <point x="436.0" y="0.0"/>
      <point x="540.0" y="88.0"/>
      <point x="540.0" y="217.0" type="curve" smooth="yes"/>
      <point x="540.0" y="328.0"/>
      <point x="448.0" y="368.6666666666667"/>
      <point x="348.0" y="370.6666666666667" type="curve"/>
      <point x="348.0" y="373.6666666666667" type="line"/>
      <point x="416.0" y="391.6666666666667"/>
      <point x="510.0" y="447.6666666666667"/>
      <point x="510.0" y="550.3333333333334" type="curve" smooth="yes"/>
      <point x="510.0" y="664.3333333333334"/>
      <point x="431.6666666666667" y="700.0"/>
      <point x="299.0" y="700.0" type="curve" smooth="yes"/>
      <point x="136.0" y="700.0" type="line" smooth="yes"/>
      <point x="116.33333333333333" y="700.0"/>
      <point x="106.66666666666667" y="694.3333333333334"/>
      <point x="106.66666666666667" y="681.3333333333334" type="curve" smooth="yes"/>
      <point x="106.66666666666667" y="18.666666666666664" type="line" smooth="yes"/>
      <point x="106.66666666666667" y="5.666666666666666"/>
      <point x="116.0" y="0.0"/>
    </contour>
    <contour>
      <point x="163.33333333333334" y="52.0" type="line"/>
      <point x="163.33333333333334" y="344.0" type="line"/>
      <point x="290.3333333333333" y="344.0" type="line" smooth="yes"/>
      <point x="409.3333333333333" y="344.0"/>
      <point x="481.0" y="309.0"/>
      <point x="481.0" y="216.0" type="curve" smooth="yes"/>
      <point x="481.0" y="128.0"/>
      <point x="414.0" y="52.0"/>
      <point x="277.0" y="52.0" type="curve" smooth="yes"/>
    </contour>
    <contour>
      <point x="163.33333333333334" y="396.0" type="line"/>
      <point x="163.33333333333334" y="648.0" type="line"/>
      <point x="299.0" y="648.0" type="line" smooth="yes"/>
      <point x="392.0" y="648.0"/>
      <point x="451.3333333333333" y="627.6666666666666"/>
      <point x="451.3333333333333" y="550.0" type="curve" smooth="yes"/>
      <point x="451.3333333333333" y="457.3333333333333"/>
      <point x="374.3333333333333" y="396.0"/>
      <point x="278.0" y="396.0" type="curve" smooth="yes"/>
    </contour>
  </outline>
</glyph>
<glyph name="C" format="2">
  <advance width="620.0"/>
  <unicode hex="0043"/>
  <anchor x="352.0" y="0.0" name="bottom"/>
  <anchor x="365.0" y="670.0" name="top"/>
  <outline>
    <contour>
      <point x="366.6666666666667" y="-15.0" type="curve" smooth="yes"/>
      <point x="448.0" y="-15.0"/>
      <point x="524.0" y="22.333333333333332"/>
      <point x="588.0" y="107.33333333333333" type="curve" smooth="yes"/>
      <point x="596.6666666666666" y="118.33333333333333"/>
      <point x="594.0" y="125.33333333333333"/>
      <point x="582.0" y="135.66666666666666" type="curve" smooth="yes"/>
      <point x="569.0" y="146.33333333333334"/>
      <point x="559.3333333333334" y="147.66666666666666"/>
      <point x="550.3333333333334" y="137.66666666666666" type="curve" smooth="yes"/>
      <point x="499.3333333333333" y="80.66666666666666"/>
      <point x="443.6666666666667" y="40.33333333333333"/>
      <point x="366.6666666666667" y="40.33333333333333" type="curve" smooth="yes"/>
      <point x="226.33333333333334" y="40.33333333333333"/>
      <point x="129.33333333333334" y="155.66666666666666"/>
      <point x="129.33333333333334" y="349.0" type="curve" smooth="yes"/>
      <point x="129.33333333333334" y="541.6666666666666"/>
      <point x="231.0" y="656.6666666666666"/>
      <point x="371.6666666666667" y="656.6666666666666" type="curve" smooth="yes"/>
      <point x="435.0" y="656.6666666666666"/>
      <point x="493.6666666666667" y="634.0"/>
      <point x="534.3333333333334" y="591.3333333333334" type="curve" smooth="yes"/>
      <point x="544.0" y="581.3333333333334"/>
      <point x="552.3333333333334" y="582.0"/>
      <point x="565.3333333333334" y="593.3333333333334" type="curve" smooth="yes"/>
      <point x="576.6666666666666" y="603.0"/>
      <point x="580.0" y="610.6666666666666"/>
      <point x="571.3333333333334" y="622.3333333333334" type="curve" smooth="yes"/>
      <point x="521.3333333333334" y="690.6666666666666"/>
      <point x="444.0" y="712.0"/>
      <point x="371.6666666666667" y="712.0" type="curve" smooth="yes"/>
      <point x="189.33333333333334" y="712.0"/>
      <point x="68.33333333333333" y="563.3333333333334"/>
      <point x="68.33333333333333" y="349.0" type="curve" smooth="yes"/>
      <point x="68.33333333333333" y="134.33333333333334"/>
      <point x="184.66666666666666" y="-15.0"/>
    </contour>
  </outline>
</glyph>
<glyph name="D" format="2">
  <advance width="695.0"/>
  <unicode hex="0044"/>
  <anchor x="317.0" y="0.0" name="bottom"/>
  <anchor x="186.0" y="353.3333333333333" name="center"/>
  <anchor x="326.0" y="670.0" name="top"/>
  <outline>
    <contour>
      <point x="135.0" y="0.0" type="curve" smooth="yes"/>
      <point x="235.33333333333334" y="0.0" type="line" smooth="yes"/>
      <point x="506.6666666666667" y="0.0"/>
      <point x="626.6666666666666" y="163.0"/>
      <point x="626.6666666666666" y="386.0" type="curve" smooth="yes"/>
      <point x="626.6666666666666" y="570.0"/>
      <point x="501.3333333333333" y="700.0"/>
      <point x="280.0" y="700.0" type="curve" smooth="yes"/>
      <point x="135.33333333333334" y="700.0" type="line" smooth="yes"/>
      <point x="116.33333333333333" y="700.0"/>
      <point x="106.66666666666667" y="694.3333333333334"/>
      <point x="106.66666666666667" y="681.3333333333334" type="curve" smooth="yes"/>
      <point x="106.66666666666667" y="18.666666666666664" type="line" smooth="yes"/>
      <point x="106.66666666666667" y="5.666666666666666"/>
      <point x="116.0" y="0.0"/>
    </contour>
    <contour>
      <point x="163.66666666666666" y="54.666666666666664" type="line"/>
      <point x="163.66666666666666" y="645.3333333333334" type="line"/>
      <point x="280.0" y="645.3333333333334" type="line" smooth="yes"/>
      <point x="453.0" y="645.3333333333334"/>
      <point x="565.6666666666666" y="549.0"/>
      <point x="565.6666666666666" y="386.0" type="curve" smooth="yes"/>
      <point x="565.6666666666666" y="183.66666666666666"/>
      <point x="464.6666666666667" y="54.666666666666664"/>
      <point x="235.0" y="54.666666666666664" type="curve" smooth="yes"/>
    </contour>
  </outline>
</glyph>
<glyph name="E" format="2">
  <advance width="530.0"/>
  <unicode hex="0045"/>
  <anchor x="294.0" y="0.0" name="bottom"/>
  <anchor x="487.0" y="10.0" name="ogonek"/>
  <anchor x="309.0" y="670.0" name="top"/>
  <outline>
    <contour>
      <point x="135.0" y="0.0" type="curve" smooth="yes"/>
      <point x="479.0" y="0.0" type="line" smooth="yes"/>
      <point x="491.3333333333333" y="0.0"/>
      <point x="496.6666666666667" y="6.666666666666666"/>
      <point x="496.6666666666667" y="26.0" type="curve" smooth="yes"/>
      <point x="496.6666666666667" y="45.33333333333333"/>
      <point x="491.3333333333333" y="52.0"/>
      <point x="479.0" y="52.0" type="curve" smooth="yes"/>
      <point x="163.33333333333334" y="52.0" type="line"/>
      <point x="163.33333333333334" y="344.0" type="line"/>
      <point x="429.0" y="344.0" type="line" smooth="yes"/>
      <point x="441.3333333333333" y="344.0"/>
      <point x="446.6666666666667" y="350.6666666666667"/>
      <point x="446.6666666666667" y="370.0" type="curve" smooth="yes"/>
      <point x="446.6666666666667" y="389.3333333333333"/>
      <point x="441.3333333333333" y="396.0"/>
      <point x="429.0" y="396.0" type="curve" smooth="yes"/>
      <point x="163.33333333333334" y="396.0" type="line"/>
      <point x="163.33333333333334" y="648.0" type="line"/>
      <point x="479.0" y="648.0" type="line" smooth="yes"/>
      <point x="491.3333333333333" y="648.0"/>
      <point x="496.6666666666667" y="654.6666666666666"/>
      <point x="496.6666666666667" y="674.0" type="curve" smooth="yes"/>
      <point x="496.6666666666667" y="693.3333333333334"/>
      <point x="491.3333333333333" y="700.0"/>
      <point x="479.0" y="700.0" type="curve" smooth="yes"/>
      <point x="135.33333333333334" y="700.0" type="line" smooth="yes"/>
      <point x="116.33333333333333" y="700.0"/>
      <point x="106.66666666666667" y="694.3333333333334"/>
      <point x="106.66666666666667" y="681.3333333333334" type="curve" smooth="yes"/>
      <point x="106.66666666666667" y="25.333333333333332" type="line" smooth="yes"/>
      <point x="106.66666666666667" y="7.666666666666666"/>
      <point x="116.0" y="0.0"/>
    </contour>
  </outline>
</glyph>
<glyph name="F" format="2">
  <advance width="500.0"/>
  <unicode hex="0046"/>
  <outline>
    <contour>
      <point x="135.0" y="-11.0" type="curve" smooth="yes"/>
      <point x="154.0" y="-11.0"/>
      <point x="163.33333333333334" y="-5.333333333333334"/>
      <point x="163.33333333333334" y="7.666666666666666" type="curve" smooth="yes"/>
      <point x="163.33333333333334" y="324.0" type="line"/>
      <point x="419.0" y="324.0" type="line" smooth="yes"/>
      <point x="431.3333333333333" y="324.0"/>
      <point x="436.6666666666667" y="330.6666666666667"/>
      <point x="436.6666666666667" y="350.0" type="curve" smooth="yes"/>
      <point x="436.6666666666667" y="369.3333333333333"/>
      <point x="431.3333333333333" y="376.0"/>
      <point x="419.0" y="376.0" type="curve" smooth="yes"/>
      <point x="163.33333333333334" y="376.0" type="line"/>
      <point x="163.33333333333334" y="648.0" type="line"/>
      <point x="469.0" y="648.0" type="line" smooth="yes"/>
      <point x="481.3333333333333" y="648.0"/>
      <point x="486.6666666666667" y="654.6666666666666"/>
      <point x="486.6666666666667" y="674.0" type="curve" smooth="yes"/>
      <point x="486.6666666666667" y="693.3333333333334"/>
      <point x="481.3333333333333" y="700.0"/>
      <point x="469.0" y="700.0" type="curve" smooth="yes"/>
      <point x="135.33333333333334" y="700.0" type="line" smooth="yes"/>
      <point x="116.33333333333333" y="700.0"/>
      <point x="106.66666666666667" y="694.3333333333334"/>
      <point x="106.66666666666667" y="681.3333333333334" type="curve" smooth="yes"/>
      <point x="106.66666666666667" y="7.666666666666666" type="line" smooth="yes"/>
      <point x="106.66666666666667" y="-5.333333333333334"/>
      <point x="116.0" y="-11.0"/>
    </contour>
  </outline>
</glyph>
<glyph name="G" format="2">
  <advance width="700.0"/>
  <unicode hex="0047"/>
  <anchor x="350.0" y="0.0" name="bottom"/>
  <anchor x="360.0" y="670.0" name="top"/>
  <outline>
    <contour>
      <point x="357.3333333333333" y="-15.0" type="curve" smooth="yes"/>
      <point x="508.6666666666667" y="-15.666666666666666"/>
      <point x="624.0" y="88.33333333333333"/>
      <point x="624.0" y="344.6666666666667" type="curve" smooth="yes"/>
      <point x="624.0" y="363.6666666666667"/>
      <point x="618.6666666666666" y="370.0"/>
      <point x="604.3333333333334" y="370.0" type="curve" smooth="yes"/>
      <point x="377.0" y="370.0" type="line" smooth="yes"/>
      <point x="364.6666666666667" y="370.0"/>
      <point x="359.3333333333333" y="363.3333333333333"/>
      <point x="359.3333333333333" y="344.0" type="curve" smooth="yes"/>
      <point x="359.3333333333333" y="324.6666666666667"/>
      <point x="364.6666666666667" y="318.0"/>
      <point x="377.0" y="318.0" type="curve" smooth="yes"/>
      <point x="565.6666666666666" y="318.0" type="line"/>
      <point x="563.6666666666666" y="117.66666666666666"/>
      <point x="486.3333333333333" y="40.33333333333333"/>
      <point x="357.3333333333333" y="40.33333333333333" type="curve" smooth="yes"/>
      <point x="226.33333333333334" y="40.33333333333333"/>
      <point x="129.33333333333334" y="155.66666666666666"/>
      <point x="129.33333333333334" y="349.0" type="curve" smooth="yes"/>
      <point x="129.33333333333334" y="541.6666666666666"/>
      <point x="231.0" y="656.6666666666666"/>
      <point x="371.6666666666667" y="656.6666666666666" type="curve" smooth="yes"/>
      <point x="435.0" y="656.6666666666666"/>
      <point x="490.0" y="634.0"/>
      <point x="531.0" y="591.3333333333334" type="curve" smooth="yes"/>
      <point x="540.6666666666666" y="581.3333333333334"/>
      <point x="549.0" y="582.0"/>
      <point x="562.0" y="593.3333333333334" type="curve" smooth="yes"/>
      <point x="573.3333333333334" y="603.0"/>
      <point x="576.6666666666666" y="610.6666666666666"/>
      <point x="568.0" y="622.3333333333334" type="curve" smooth="yes"/>
      <point x="518.0" y="690.6666666666666"/>
      <point x="444.0" y="712.0"/>
      <point x="371.6666666666667" y="712.0" type="curve" smooth="yes"/>
      <point x="189.33333333333334" y="712.0"/>
      <point x="68.33333333333333" y="563.3333333333334"/>
      <point x="68.33333333333333" y="349.0" type="curve" smooth="yes"/>
      <point x="68.33333333333333" y="134.33333333333334"/>
      <point x="184.66666666666666" y="-14.333333333333334"/>
    </contour>
  </outline>
</glyph>
<glyph name="H" format="2">
  <advance width="710.0"/>
  <unicode hex="0048"/>
  <anchor x="355.0" y="0.0" name="bottom"/>
  <anchor x="355.0" y="541.0" name="center"/>
  <anchor x="355.0" y="670.0" name="top"/>
  <outline>
    <contour>
      <point x="135.0" y="-11.0" type="curve" smooth="yes"/>
      <point x="154.0" y="-11.0"/>
      <point x="163.33333333333334" y="-5.333333333333334"/>
      <point x="163.33333333333334" y="7.666666666666666" type="curve" smooth="yes"/>
      <point x="163.33333333333334" y="341.0" type="line"/>
      <point x="546.6666666666666" y="341.0" type="line"/>
      <point x="546.6666666666666" y="7.666666666666666" type="line" smooth="yes"/>
      <point x="546.6666666666666" y="-5.333333333333334"/>
      <point x="556.3333333333334" y="-11.0"/>
      <point x="575.0" y="-11.0" type="curve" smooth="yes"/>
      <point x="594.0" y="-11.0"/>
      <point x="603.3333333333334" y="-5.333333333333334"/>
      <point x="603.3333333333334" y="7.666666666666666" type="curve" smooth="yes"/>
      <point x="603.3333333333334" y="693.3333333333334" type="line" smooth="yes"/>
      <point x="603.3333333333334" y="706.3333333333334"/>
      <point x="594.0" y="712.0"/>
      <point x="575.0" y="712.0" type="curve" smooth="yes"/>
      <point x="556.3333333333334" y="712.0"/>
      <point x="546.6666666666666" y="706.3333333333334"/>
      <point x="546.6666666666666" y="693.3333333333334" type="curve" smooth="yes"/>
      <point x="546.6666666666666" y="393.0" type="line"/>
      <point x="163.33333333333334" y="393.0" type="line"/>
      <point x="163.33333333333334" y="693.3333333333334" type="line" smooth="yes"/>
      <point x="163.33333333333334" y="706.3333333333334"/>
      <point x="154.0" y="712.0"/>
      <point x="135.0" y="712.0" type="curve" smooth="yes"/>
      <point x="116.0" y="712.0"/>
      <point x="106.66666666666667" y="706.3333333333334"/>
      <point x="106.66666666666667" y="693.3333333333334" type="curve" smooth="yes"/>
      <point x="106.66666666666667" y="7.666666666666666" type="line" smooth="yes"/>
      <point x="106.66666666666667" y="-5.333333333333334"/>
      <point x="116.0" y="-11.0"/>
    </contour>
  </outline>
</glyph>
<glyph name="I" format="2">
  <advance width="270.0"/>
  <unicode hex="0049"/>
  <anchor x="135.0" y="0.0" name="bottom"/>
  <anchor x="150.0" y="-4.0" name="ogonek"/>
  <anchor x="135.0" y="670.0" name="top"/>
  <outline>
    <contour>
      <point x="135.0" y="-11.0" type="curve" smooth="yes"/>
      <point x="154.0" y="-11.0"/>
      <point x="163.33333333333334" y="-5.333333333333334"/>
      <point x="163.33333333333334" y="7.666666666666666" type="curve" smooth="yes"/>
      <point x="163.33333333333334" y="693.3333333333334" type="line" smooth="yes"/>
      <point x="163.33333333333334" y="706.3333333333334"/>
      <point x="153.66666666666666" y="712.0"/>
      <point x="135.0" y="712.0" type="curve" smooth="yes"/>
      <point x="116.0" y="712.0"/>
      <point x="106.66666666666667" y="706.3333333333334"/>
      <point x="106.66666666666667" y="693.3333333333334" type="curve" smooth="yes"/>
      <point x="106.66666666666667" y="7.666666666666666" type="line" smooth="yes"/>
      <point x="106.66666666666667" y="-5.333333333333334"/>
      <point x="116.0" y="-11.0"/>
    </contour>
  </outline>
</glyph>
<glyph name="J" format="2">
  <advance width="520.0"/>
  <unicode hex="004A"/>
  <anchor x="240.0" y="0.0" name="bottom"/>
  <anchor x="400.0" y="670.0" name="top"/>
  <outline>
    <contour>
      <point x="231.0" y="-15.0" type="curve" smooth="yes"/>
      <point x="348.3333333333333" y="-15.0"/>
      <point x="428.3333333333333" y="65.0"/>
      <point x="428.3333333333333" y="215.33333333333334" type="curve" smooth="yes"/>
      <point x="428.3333333333333" y="693.3333333333334" type="line" smooth="yes"/>
      <point x="428.3333333333333" y="706.3333333333334"/>
      <point x="419.0" y="712.0"/>
      <point x="400.0" y="712.0" type="curve" smooth="yes"/>
      <point x="381.0" y="712.0"/>
      <point x="371.6666666666667" y="706.3333333333334"/>
      <point x="371.6666666666667" y="693.3333333333334" type="curve" smooth="yes"/>
      <point x="371.6666666666667" y="214.66666666666666" type="line" smooth="yes"/>
      <point x="371.6666666666667" y="92.66666666666667"/>
      <point x="314.3333333333333" y="40.33333333333333"/>
      <point x="231.0" y="40.33333333333333" type="curve" smooth="yes"/>
      <point x="143.0" y="40.33333333333333"/>
      <point x="108.66666666666667" y="72.33333333333333"/>
      <point x="83.66666666666667" y="141.33333333333334" type="curve" smooth="yes"/>
      <point x="79.0" y="155.0"/>
      <point x="68.0" y="155.66666666666666"/>
      <point x="54.0" y="151.0" type="curve" smooth="yes"/>
      <point x="40.0" y="146.66666666666666"/>
      <point x="32.66666666666667" y="140.0"/>
      <point x="36.333333333333336" y="126.66666666666667" type="curve" smooth="yes"/>
      <point x="64.0" y="32.666666666666664"/>
      <point x="133.0" y="-15.0"/>
    </contour>
  </outline>
</glyph>
<glyph name="K" format="2">
  <advance width="550.0"/>
  <unicode hex="004B"/>
  <anchor x="305.0" y="0.0" name="bottom"/>
  <anchor x="305.0" y="670.0" name="top"/>
  <outline>
    <contour>
      <point x="135.0" y="-11.0" type="curve" smooth="yes"/>
      <point x="154.0" y="-11.0"/>
      <point x="163.33333333333334" y="-5.333333333333334"/>
      <point x="163.33333333333334" y="7.666666666666666" type="curve" smooth="yes"/>
      <point x="163.33333333333334" y="345.0" type="line"/>
      <point x="253.66666666666666" y="225.66666666666666"/>
      <point x="373.0" y="91.33333333333333"/>
      <point x="491.3333333333333" y="-5.333333333333334" type="curve" smooth="yes"/>
      <point x="504.3333333333333" y="-16.0"/>
      <point x="516.0" y="-16.0"/>
      <point x="528.0" y="-4.666666666666667" type="curve" smooth="yes"/>
      <point x="544.0" y="11.333333333333332"/>
      <point x="540.6666666666666" y="24.333333333333332"/>
      <point x="530.3333333333334" y="32.33333333333333" type="curve" smooth="yes"/>
      <point x="421.6666666666667" y="121.0"/>
      <point x="315.6666666666667" y="236.66666666666666"/>
      <point x="209.66666666666666" y="369.6666666666667" type="curve"/>
      <point x="521.3333333333334" y="670.0" type="line" smooth="yes"/>
      <point x="530.3333333333334" y="679.0"/>
      <point x="530.3333333333334" y="687.0"/>
      <point x="517.6666666666666" y="701.0" type="curve" smooth="yes"/>
      <point x="505.6666666666667" y="713.6666666666666"/>
      <point x="496.6666666666667" y="716.6666666666666"/>
      <point x="485.6666666666667" y="705.6666666666666" type="curve" smooth="yes"/>
      <point x="163.33333333333334" y="395.6666666666667" type="line"/>
      <point x="163.33333333333334" y="693.3333333333334" type="line" smooth="yes"/>
      <point x="163.33333333333334" y="706.3333333333334"/>
      <point x="154.0" y="712.0"/>
      <point x="135.0" y="712.0" type="curve" smooth="yes"/>
      <point x="116.0" y="712.0"/>
      <point x="106.66666666666667" y="706.3333333333334"/>
      <point x="106.66666666666667" y="693.3333333333334" type="curve" smooth="yes"/>
      <point x="106.66666666666667" y="7.666666666666666" type="line" smooth="yes"/>
      <point x="106.66666666666667" y="-5.333333333333334"/>
      <point x="116.0" y="-11.0"/>
    </contour>
  </outline>
</glyph>
<glyph name="L" format="2">
  <advance width="500.0"/>
  <unicode hex="004C"/>
  <anchor x="300.0" y="0.0" name="bottom"/>
  <anchor x="135.0" y="360.0" name="center"/>
  <anchor x="150.0" y="360.0" name="centerCase"/>
  <anchor x="135.0" y="670.0" name="top"/>
  <anchor x="170.0" y="700.0" name="topright"/>
  <outline>
    <contour>
      <point x="135.0" y="0.0" type="curve" smooth="yes"/>
      <point x="462.3333333333333" y="0.0" type="line" smooth="yes"/>
      <point x="474.6666666666667" y="0.0"/>
      <point x="480.0" y="6.666666666666666"/>
      <point x="480.0" y="26.0" type="curve" smooth="yes"/>
      <point x="480.0" y="45.33333333333333"/>
      <point x="474.6666666666667" y="52.0"/>
      <point x="462.3333333333333" y="52.0" type="curve" smooth="yes"/>
      <point x="163.33333333333334" y="52.0" type="line"/>
      <point x="163.33333333333334" y="693.3333333333334" type="line" smooth="yes"/>
      <point x="163.33333333333334" y="706.3333333333334"/>
      <point x="154.0" y="712.0"/>
      <point x="135.0" y="712.0" type="curve" smooth="yes"/>
      <point x="116.0" y="712.0"/>
      <point x="106.66666666666667" y="706.3333333333334"/>
      <point x="106.66666666666667" y="693.3333333333334" type="curve" smooth="yes"/>
      <point x="106.66666666666667" y="25.333333333333332" type="line" smooth="yes"/>
      <point x="106.66666666666667" y="7.666666666666666"/>
      <point x="116.0" y="0.0"/>
    </contour>
  </outline>
</glyph>
<glyph name="M" format="2">
  <advance width="840.0"/>
  <unicode hex="004D"/>
  <anchor x="420.0" y="0.0" name="bottom"/>
  <anchor x="420.0" y="670.0" name="top"/>
  <outline>
    <contour>
      <point x="135.0" y="-11.0" type="curve" smooth="yes"/>
      <point x="154.0" y="-11.0"/>
      <point x="163.33333333333334" y="-5.333333333333334"/>
      <point x="163.33333333333334" y="7.666666666666666" type="curve" smooth="yes"/>
      <point x="163.33333333333334" y="588.3333333333334" type="line"/>
      <point x="389.0" y="196.66666666666666" type="line" smooth="yes"/>
      <point x="396.3333333333333" y="184.0"/>
      <point x="403.6666666666667" y="182.0"/>
      <point x="420.6666666666667" y="182.0" type="curve" smooth="yes"/>
      <point x="436.6666666666667" y="182.0"/>
      <point x="443.6666666666667" y="185.0"/>
      <point x="451.0" y="197.33333333333334" type="curve" smooth="yes"/>
      <point x="676.6666666666666" y="588.3333333333334" type="line"/>
      <point x="676.6666666666666" y="7.666666666666666" type="line" smooth="yes"/>
      <point x="676.6666666666666" y="-5.333333333333334"/>
      <point x="686.0" y="-11.0"/>
      <point x="705.0" y="-11.0" type="curve" smooth="yes"/>
      <point x="724.0" y="-11.0"/>
      <point x="733.3333333333334" y="-5.333333333333334"/>
      <point x="733.3333333333334" y="7.666666666666666" type="curve" smooth="yes"/>
      <point x="733.3333333333334" y="693.3333333333334" type="line" smooth="yes"/>
      <point x="733.3333333333334" y="706.3333333333334"/>
      <point x="724.0" y="712.0"/>
      <point x="705.0" y="712.0" type="curve" smooth="yes"/>
      <point x="686.6666666666666" y="712.0"/>
      <point x="681.0" y="705.3333333333334"/>
      <point x="674.6666666666666" y="694.0" type="curve" smooth="yes"/>
      <point x="420.0" y="250.33333333333334" type="line"/>
      <point x="165.33333333333334" y="694.0" type="line" smooth="yes"/>
      <point x="159.0" y="705.3333333333334"/>
      <point x="153.0" y="712.0"/>
      <point x="135.33333333333334" y="712.0" type="curve" smooth="yes"/>
      <point x="116.33333333333333" y="712.0"/>
      <point x="106.66666666666667" y="706.3333333333334"/>
      <point x="106.66666666666667" y="693.3333333333334" type="curve" smooth="yes"/>
      <point x="106.66666666666667" y="7.666666666666666" type="line" smooth="yes"/>
      <point x="106.66666666666667" y="-5.333333333333334"/>
      <point x="116.0" y="-11.0"/>
    </contour>
  </outline>
</glyph>
<glyph name="N" format="2">
  <advance width="710.0"/>
  <unicode hex="004E"/>
  <anchor x="355.0" y="0.0" name="bottom"/>
  <anchor x="355.0" y="670.0" name="top"/>
  <outline>
    <contour>
      <point x="135.0" y="-11.0" type="curve" smooth="yes"/>
      <point x="154.0" y="-11.0"/>
      <point x="163.33333333333334" y="-5.333333333333334"/>
      <point x="163.33333333333334" y="7.666666666666666" type="curve" smooth="yes"/>
      <point x="163.33333333333334" y="598.6666666666666" type="line"/>
      <point x="546.3333333333334" y="6.333333333333332" type="line" smooth="yes"/>
      <point x="555.6666666666666" y="-8.333333333333334"/>
      <point x="561.3333333333334" y="-11.0"/>
      <point x="576.0" y="-11.0" type="curve" smooth="yes"/>
      <point x="593.6666666666666" y="-11.0"/>
      <point x="603.3333333333334" y="-5.333333333333334"/>
      <point x="603.3333333333334" y="7.666666666666666" type="curve" smooth="yes"/>
      <point x="603.3333333333334" y="693.3333333333334" type="line" smooth="yes"/>
      <point x="603.3333333333334" y="706.3333333333334"/>
      <point x="594.0" y="712.0"/>
      <point x="575.0" y="712.0" type="curve" smooth="yes"/>
      <point x="556.0" y="712.0"/>
      <point x="546.6666666666666" y="706.3333333333334"/>
      <point x="546.6666666666666" y="693.3333333333334" type="curve" smooth="yes"/>
      <point x="546.6666666666666" y="108.33333333333333" type="line"/>
      <point x="167.0" y="694.6666666666666" type="line" smooth="yes"/>
      <point x="159.0" y="706.6666666666666"/>
      <point x="150.66666666666666" y="712.0"/>
      <point x="134.66666666666666" y="712.0" type="curve" smooth="yes"/>
      <point x="116.33333333333333" y="712.0"/>
      <point x="106.66666666666667" y="706.3333333333334"/>
      <point x="106.66666666666667" y="693.3333333333334" type="curve" smooth="yes"/>
      <point x="106.66666666666667" y="7.666666666666666" type="line" smooth="yes"/>
      <point x="106.66666666666667" y="-5.333333333333334"/>
      <point x="116.0" y="-11.0"/>
    </contour>
  </outline>
</glyph>
<glyph name="O" format="2">
  <advance width="740.0"/>
  <unicode hex="004F"/>
  <anchor x="370.0" y="0.0" name="bottom"/>
  <anchor x="370.0" y="350.0" name="center"/>
  <anchor x="473.0" y="5.0" name="ogonek"/>
  <anchor x="370.0" y="670.0" name="top"/>
  <anchor x="454.0" y="700.0" name="topright"/>
  <outline>
    <contour>
      <point x="371.0" y="-15.0" type="curve" smooth="yes"/>
      <point x="551.6666666666666" y="-15.0"/>
      <point x="671.6666666666666" y="134.33333333333334"/>
      <point x="671.6666666666666" y="349.0" type="curve" smooth="yes"/>
      <point x="671.6666666666666" y="563.3333333333334"/>
      <point x="551.6666666666666" y="712.0"/>
      <point x="371.0" y="712.0" type="curve" smooth="yes"/>
      <point x="189.0" y="712.0"/>
      <point x="68.33333333333333" y="563.3333333333334"/>
      <point x="68.33333333333333" y="349.0" type="curve" smooth="yes"/>
      <point x="68.33333333333333" y="134.33333333333334"/>
      <point x="189.0" y="-15.0"/>
    </contour>
    <contour>
      <point x="371.0" y="40.33333333333333" type="curve" smooth="yes"/>
      <point x="230.66666666666666" y="40.33333333333333"/>
      <point x="129.33333333333334" y="155.66666666666666"/>
      <point x="129.33333333333334" y="349.0" type="curve" smooth="yes"/>
      <point x="129.33333333333334" y="541.6666666666666"/>
      <point x="230.66666666666666" y="656.6666666666666"/>
      <point x="371.0" y="656.6666666666666" type="curve" smooth="yes"/>
      <point x="510.0" y="656.6666666666666"/>
      <point x="610.6666666666666" y="541.6666666666666"/>
      <point x="610.6666666666666" y="349.0" type="curve" smooth="yes"/>
      <point x="610.6666666666666" y="155.66666666666666"/>
      <point x="510.0" y="40.33333333333333"/>
    </contour>
  </outline>
</glyph>
<glyph name="P" format="2">
  <advance width="560.0"/>
  <unicode hex="0050"/>
  <outline>
    <contour>
      <point x="135.0" y="-11.0" type="curve" smooth="yes"/>
      <point x="154.0" y="-11.0"/>
      <point x="163.33333333333334" y="-5.333333333333334"/>
      <point x="163.33333333333334" y="7.666666666666666" type="curve" smooth="yes"/>
      <point x="163.33333333333334" y="282.6666666666667" type="line"/>
      <point x="194.66666666666666" y="283.3333333333333"/>
      <point x="233.0" y="285.6666666666667"/>
      <point x="271.6666666666667" y="291.0" type="curve" smooth="yes"/>
      <point x="401.0" y="309.0"/>
      <point x="526.6666666666666" y="371.0"/>
      <point x="526.6666666666666" y="525.0" type="curve" smooth="yes"/>
      <point x="526.6666666666666" y="651.0"/>
      <point x="444.6666666666667" y="700.0"/>
      <point x="288.0" y="700.0" type="curve" smooth="yes"/>
      <point x="136.0" y="700.0" type="line" smooth="yes"/>
      <point x="116.33333333333333" y="700.0"/>
      <point x="106.66666666666667" y="694.3333333333334"/>
      <point x="106.66666666666667" y="681.3333333333334" type="curve" smooth="yes"/>
      <point x="106.66666666666667" y="7.666666666666666" type="line" smooth="yes"/>
      <point x="106.66666666666667" y="-5.333333333333334"/>
      <point x="116.0" y="-11.0"/>
    </contour>
    <contour>
      <point x="163.33333333333334" y="334.0" type="curve"/>
      <point x="163.33333333333334" y="648.0" type="line"/>
      <point x="288.0" y="648.0" type="line" smooth="yes"/>
      <point x="406.6666666666667" y="648.0"/>
      <point x="468.0" y="613.6666666666666"/>
      <point x="468.0" y="524.0" type="curve" smooth="yes"/>
      <point x="468.0" y="408.6666666666667"/>
      <point x="377.3333333333333" y="357.6666666666667"/>
      <point x="271.6666666666667" y="342.3333333333333" type="curve" smooth="yes"/>
      <point x="234.33333333333334" y="337.0"/>
      <point x="196.0" y="334.6666666666667"/>
    </contour>
  </outline>
</glyph>
<glyph name="Q" format="2">
  <advance width="740.0"/>
  <unicode hex="0051"/>
  <anchor x="370.0" y="0.0" name="bottom"/>
  <anchor x="370.0" y="350.0" name="center"/>
  <anchor x="473.0" y="5.0" name="ogonek"/>
  <anchor x="370.0" y="670.0" name="top"/>
  <anchor x="454.0" y="700.0" name="topright"/>
  <outline>
    <contour>
      <point x="563.3333333333334" y="-134.33333333333334" type="curve" smooth="yes"/>
      <point x="576.3333333333334" y="-123.66666666666667"/>
      <point x="577.6666666666666" y="-112.33333333333333"/>
      <point x="570.0" y="-100.33333333333333" type="curve" smooth="yes"/>
      <point x="404.0" y="133.66666666666666" type="line" smooth="yes"/>
      <point x="394.3333333333333" y="146.66666666666666"/>
      <point x="380.3333333333333" y="148.0"/>
      <point x="368.6666666666667" y="137.33333333333334" type="curve" smooth="yes"/>
      <point x="353.6666666666667" y="125.66666666666667"/>
      <point x="352.3333333333333" y="114.33333333333333"/>
      <point x="360.0" y="102.33333333333333" type="curve" smooth="yes"/>
      <point x="527.6666666666666" y="-132.33333333333334" type="line" smooth="yes"/>
      <point x="536.6666666666666" y="-143.66666666666666"/>
      <point x="548.3333333333334" y="-144.33333333333334"/>
    </contour>
    <component base="O"/>
  </outline>
</glyph>
<glyph name="R" format="2">
  <advance width="555.0"/>
  <unicode hex="0052"/>
  <anchor x="308.0" y="0.0" name="bottom"/>
  <anchor x="278.0" y="670.0" name="top"/>
  <outline>
    <contour>
      <point x="135.0" y="-11.0" type="curve" smooth="yes"/>
      <point x="154.0" y="-11.0"/>
      <point x="163.33333333333334" y="-5.333333333333334"/>
      <point x="163.33333333333334" y="7.666666666666666" type="curve" smooth="yes"/>
      <point x="163.33333333333334" y="310.0" type="line"/>
      <point x="256.3333333333333" y="203.33333333333334"/>
      <point x="367.6666666666667" y="91.33333333333333"/>
      <point x="486.0" y="-5.333333333333334" type="curve" smooth="yes"/>
      <point x="499.0" y="-16.0"/>
      <point x="510.6666666666667" y="-16.0"/>
      <point x="522.6666666666666" y="-4.666666666666667" type="curve" smooth="yes"/>
      <point x="538.6666666666666" y="11.333333333333332"/>
      <point x="535.3333333333334" y="24.333333333333332"/>
      <point x="525.0" y="32.33333333333333" type="curve" smooth="yes"/>
      <point x="415.3333333333333" y="120.66666666666667"/>
      <point x="314.0" y="220.0"/>
      <point x="226.33333333333331" y="318.3333333333333" type="curve"/>
      <point x="382.3333333333333" y="330.0"/>
      <point x="505.0" y="400.0"/>
      <point x="505.0" y="534.3333333333334" type="curve" smooth="yes"/>
      <point x="505.0" y="654.3333333333334"/>
      <point x="428.6666666666667" y="700.0"/>
      <point x="267.0" y="700.0" type="curve" smooth="yes"/>
      <point x="136.0" y="700.0" type="line" smooth="yes"/>
      <point x="116.33333333333333" y="700.0"/>
      <point x="106.66666666666667" y="694.3333333333334"/>
      <point x="106.66666666666667" y="681.3333333333334" type="curve" smooth="yes"/>
      <point x="106.66666666666667" y="7.666666666666666" type="line" smooth="yes"/>
      <point x="106.66666666666667" y="-5.333333333333334"/>
      <point x="116.0" y="-11.0"/>
    </contour>
    <contour>
      <point x="163.33333333333334" y="363.6666666666667" type="curve"/>
      <point x="163.33333333333334" y="648.0" type="line"/>
      <point x="274.3333333333333" y="648.0" type="line" smooth="yes"/>
      <point x="390.6666666666667" y="648.0"/>
      <point x="446.3333333333333" y="617.0"/>
      <point x="446.3333333333333" y="534.3333333333334" type="curve" smooth="yes"/>
      <point x="446.3333333333333" y="413.0"/>
      <point x="325.0" y="365.3333333333333"/>
    </contour>
  </outline>
</glyph>
<glyph name="S" format="2">
  <advance width="550.0"/>
  <unicode hex="0053"/>
  <anchor x="271.6666666666667" y="0.0" name="bottom"/>
  <anchor x="285.6666666666667" y="670.0" name="top"/>
  <outline>
    <contour>
      <point x="263.0" y="-15.0" type="curve" smooth="yes"/>
      <point x="404.3333333333333" y="-15.0"/>
      <point x="492.3333333333333" y="57.66666666666667"/>
      <point x="492.3333333333333" y="184.33333333333334" type="curve" smooth="yes"/>
      <point x="492.3333333333333" y="313.0"/>
      <point x="388.3333333333333" y="353.3333333333333"/>
      <point x="298.3333333333333" y="382.6666666666667" type="curve" smooth="yes"/>
      <point x="211.33333333333334" y="411.0"/>
      <point x="143.33333333333334" y="445.0"/>
      <point x="143.33333333333334" y="538.0" type="curve" smooth="yes"/>
      <point x="143.33333333333334" y="615.0"/>
      <point x="196.33333333333334" y="656.6666666666666"/>
      <point x="284.6666666666667" y="656.6666666666666" type="curve" smooth="yes"/>
      <point x="351.6666666666667" y="656.6666666666666"/>
      <point x="398.0" y="630.6666666666666"/>
      <point x="439.6666666666667" y="596.3333333333334" type="curve" smooth="yes"/>
      <point x="451.3333333333333" y="587.3333333333334"/>
      <point x="461.0" y="591.0"/>
      <point x="472.6666666666667" y="603.3333333333334" type="curve" smooth="yes"/>
      <point x="482.3333333333333" y="613.6666666666666"/>
      <point x="484.3333333333333" y="622.6666666666666"/>
      <point x="474.0" y="632.0" type="curve" smooth="yes"/>
      <point x="426.0" y="676.0"/>
      <point x="366.3333333333333" y="712.0"/>
      <point x="284.6666666666667" y="712.0" type="curve" smooth="yes"/>
      <point x="170.33333333333334" y="712.0"/>
      <point x="83.33333333333333" y="648.0"/>
      <point x="83.33333333333333" y="538.0" type="curve" smooth="yes"/>
      <point x="83.33333333333333" y="404.6666666666667"/>
      <point x="187.33333333333334" y="358.6666666666667"/>
      <point x="281.3333333333333" y="327.0" type="curve" smooth="yes"/>
      <point x="367.3333333333333" y="298.3333333333333"/>
      <point x="432.3333333333333" y="266.0"/>
      <point x="432.3333333333333" y="184.33333333333334" type="curve" smooth="yes"/>
      <point x="432.3333333333333" y="88.66666666666667"/>
      <point x="372.3333333333333" y="40.33333333333333"/>
      <point x="263.0" y="40.33333333333333" type="curve" smooth="yes"/>
      <point x="193.66666666666666" y="40.33333333333333"/>
      <point x="139.0" y="61.666666666666664"/>
      <point x="103.33333333333333" y="97.0" type="curve" smooth="yes"/>
      <point x="86.66666666666667" y="112.66666666666666"/>
      <point x="80.0" y="110.33333333333333"/>
      <point x="67.66666666666667" y="97.66666666666667" type="curve" smooth="yes"/>
      <point x="55.0" y="85.33333333333333"/>
      <point x="55.666666666666664" y="78.0"/>
      <point x="64.0" y="67.33333333333333" type="curve" smooth="yes"/>
      <point x="110.33333333333333" y="8.0"/>
      <point x="197.0" y="-15.0"/>
    </contour>
  </outline>
</glyph>
<glyph name="T" format="2">
  <advance width="552.0"/>
  <unicode hex="0054"/>
  <anchor x="276.0" y="0.0" name="bottom"/>
  <anchor x="276.0" y="350.0" name="center"/>
  <anchor x="276.0" y="670.0" name="top"/>
  <outline>
    <contour>
      <point x="276.0" y="-11.666666666666666" type="curve" smooth="yes"/>
      <point x="295.0" y="-11.666666666666666"/>
      <point x="304.3333333333333" y="-6.0"/>
      <point x="304.3333333333333" y="7.0" type="curve" smooth="yes"/>
      <point x="304.3333333333333" y="648.0" type="line"/>
      <point x="519.0" y="648.0" type="line" smooth="yes"/>
      <point x="531.3333333333334" y="648.0"/>
      <point x="536.6666666666666" y="655.0"/>
      <point x="536.6666666666666" y="674.3333333333334" type="curve" smooth="yes"/>
      <point x="536.6666666666666" y="693.6666666666666"/>
      <point x="531.3333333333334" y="700.0"/>
      <point x="519.0" y="700.0" type="curve" smooth="yes"/>
      <point x="33.0" y="700.0" type="line" smooth="yes"/>
      <point x="20.666666666666668" y="700.0"/>
      <point x="15.333333333333334" y="693.3333333333334"/>
      <point x="15.333333333333334" y="674.0" type="curve" smooth="yes"/>
      <point x="15.333333333333334" y="654.6666666666666"/>
      <point x="20.666666666666668" y="648.0"/>
      <point x="33.0" y="648.0" type="curve" smooth="yes"/>
      <point x="247.66666666666666" y="648.0" type="line"/>
      <point x="247.66666666666666" y="7.0" type="line" smooth="yes"/>
      <point x="247.66666666666666" y="-6.0"/>
      <point x="257.0" y="-11.666666666666666"/>
    </contour>
  </outline>
</glyph>
<glyph name="U" format="2">
  <advance width="690.0"/>
  <unicode hex="0055"/>
  <anchor x="345.0" y="0.0" name="bottom"/>
  <anchor x="470.0" y="10.0" name="ogonek"/>
  <anchor x="345.0" y="670.0" name="top"/>
  <anchor x="566.0" y="710.0" name="topright"/>
  <outline>
    <contour>
      <point x="346.6666666666667" y="-15.0" type="curve" smooth="yes"/>
      <point x="499.0" y="-15.0"/>
      <point x="586.6666666666666" y="69.0"/>
      <point x="586.6666666666666" y="215.33333333333334" type="curve" smooth="yes"/>
      <point x="586.6666666666666" y="693.3333333333334" type="line" smooth="yes"/>
      <point x="586.6666666666666" y="706.3333333333334"/>
      <point x="577.3333333333334" y="712.0"/>
      <point x="558.3333333333334" y="712.0" type="curve" smooth="yes"/>
      <point x="539.3333333333334" y="712.0"/>
      <point x="530.0" y="706.3333333333334"/>
      <point x="530.0" y="693.3333333333334" type="curve" smooth="yes"/>
      <point x="530.0" y="214.66666666666666" type="line" smooth="yes"/>
      <point x="530.0" y="103.0"/>
      <point x="463.6666666666667" y="40.33333333333333"/>
      <point x="346.6666666666667" y="40.33333333333333" type="curve" smooth="yes"/>
      <point x="228.0" y="40.33333333333333"/>
      <point x="160.0" y="103.0"/>
      <point x="160.0" y="214.66666666666666" type="curve" smooth="yes"/>
      <point x="160.0" y="693.3333333333334" type="line" smooth="yes"/>
      <point x="160.0" y="706.3333333333334"/>
      <point x="150.66666666666666" y="712.0"/>
      <point x="131.66666666666666" y="712.0" type="curve" smooth="yes"/>
      <point x="112.66666666666667" y="712.0"/>
      <point x="103.33333333333333" y="706.3333333333334"/>
      <point x="103.33333333333333" y="693.3333333333334" type="curve" smooth="yes"/>
      <point x="103.33333333333333" y="215.33333333333334" type="line" smooth="yes"/>
      <point x="103.33333333333333" y="69.0"/>
      <point x="192.66666666666666" y="-15.0"/>
    </contour>
  </outline>
</glyph>
<glyph name="V" format="2">
  <advance width="580.0"/>
  <unicode hex="0056"/>
  <outline>
    <contour>
      <point x="289.3333333333333" y="-11.0" type="curve" smooth="yes"/>
      <point x="310.3333333333333" y="-11.0"/>
      <point x="318.3333333333333" y="-5.333333333333334"/>
      <point x="325.3333333333333" y="14.333333333333332" type="curve" smooth="yes"/>
      <point x="563.0" y="682.0" type="line" smooth="yes"/>
      <point x="567.3333333333334" y="694.3333333333334"/>
      <point x="562.3333333333334" y="703.0"/>
      <point x="543.6666666666666" y="709.6666666666666" type="curve" smooth="yes"/>
      <point x="526.0" y="715.6666666666666"/>
      <point x="515.3333333333334" y="713.3333333333334"/>
      <point x="510.3333333333333" y="699.6666666666666" type="curve" smooth="yes"/>
      <point x="290.0" y="74.66666666666666" type="line"/>
      <point x="69.66666666666667" y="699.6666666666666" type="line" smooth="yes"/>
      <point x="64.66666666666667" y="713.3333333333334"/>
      <point x="54.0" y="715.6666666666666"/>
      <point x="36.333333333333336" y="709.6666666666666" type="curve" smooth="yes"/>
      <point x="17.666666666666668" y="703.0"/>
      <point x="12.666666666666668" y="694.3333333333334"/>
      <point x="17.0" y="682.0" type="curve" smooth="yes"/>
      <point x="254.33333333333334" y="14.333333333333332" type="line" smooth="yes"/>
      <point x="261.3333333333333" y="-5.333333333333334"/>
      <point x="269.3333333333333" y="-11.0"/>
    </contour>
  </outline>
</glyph>
<glyph name="W" format="2">
  <advance width="960.0"/>
  <unicode hex="0057"/>
  <anchor x="480.0" y="0.0" name="bottom"/>
  <anchor x="480.0" y="670.0" name="top"/>
  <outline>
    <contour>
      <point x="247.0" y="-11.0" type="curve" smooth="yes"/>
      <point x="268.0" y="-11.0"/>
      <point x="276.6666666666667" y="-4.666666666666667"/>
      <point x="283.0" y="14.333333333333332" type="curve" smooth="yes"/>
      <point x="479.3333333333333" y="621.3333333333334" type="line"/>
      <point x="675.0" y="14.333333333333332" type="line" smooth="yes"/>
      <point x="681.3333333333334" y="-4.666666666666667"/>
      <point x="690.0" y="-11.0"/>
      <point x="710.0" y="-11.0" type="curve" smooth="yes"/>
      <point x="731.0" y="-11.0"/>
      <point x="740.3333333333334" y="-4.666666666666667"/>
      <point x="746.0" y="14.333333333333332" type="curve" smooth="yes"/>
      <point x="943.6666666666666" y="682.0" type="line" smooth="yes"/>
      <point x="947.3333333333334" y="694.3333333333334"/>
      <point x="943.0" y="703.3333333333334"/>
      <point x="924.3333333333334" y="709.6666666666666" type="curve" smooth="yes"/>
      <point x="907.0" y="715.3333333333334"/>
      <point x="895.3333333333334" y="713.3333333333334"/>
      <point x="890.6666666666666" y="698.0" type="curve" smooth="yes"/>
      <point x="710.0" y="80.0" type="line"/>
      <point x="513.0" y="688.6666666666666" type="line" smooth="yes"/>
      <point x="507.3333333333333" y="705.6666666666666"/>
      <point x="499.3333333333333" y="712.0"/>
      <point x="479.0" y="712.0" type="curve" smooth="yes"/>
      <point x="460.0" y="712.0"/>
      <point x="452.0" y="705.6666666666666"/>
      <point x="446.3333333333333" y="688.6666666666666" type="curve" smooth="yes"/>
      <point x="248.66666666666666" y="79.33333333333333" type="line"/>
      <point x="69.66666666666667" y="697.6666666666666" type="line" smooth="yes"/>
      <point x="65.0" y="713.6666666666666"/>
      <point x="53.333333333333336" y="715.3333333333334"/>
      <point x="36.0" y="709.6666666666666" type="curve" smooth="yes"/>
      <point x="17.333333333333336" y="703.3333333333334"/>
      <point x="12.666666666666668" y="694.3333333333334"/>
      <point x="16.333333333333336" y="682.0" type="curve" smooth="yes"/>
      <point x="212.0" y="14.333333333333332" type="line" smooth="yes"/>
      <point x="217.66666666666666" y="-4.666666666666667"/>
      <point x="227.0" y="-11.0"/>
    </contour>
  </outline>
</glyph>
<glyph name="X" format="2">
  <advance width="550.0"/>
  <unicode hex="0058"/>
  <outline>
    <contour>
      <point x="500.0" y="-3.666666666666667" type="curve" smooth="yes"/>
      <point x="515.6666666666666" y="6.333333333333332"/>
      <point x="518.0" y="16.333333333333332"/>
      <point x="511.6666666666667" y="27.0" type="curve" smooth="yes"/>
      <point x="310.6666666666667" y="355.3333333333333" type="line"/>
      <point x="506.0" y="674.6666666666666" type="line" smooth="yes"/>
      <point x="512.3333333333334" y="685.3333333333334"/>
      <point x="510.0" y="695.3333333333334"/>
      <point x="494.3333333333333" y="705.3333333333334" type="curve" smooth="yes"/>
      <point x="479.6666666666667" y="714.3333333333334"/>
      <point x="469.3333333333333" y="715.0"/>
      <point x="461.3333333333333" y="702.0" type="curve" smooth="yes"/>
      <point x="279.3333333333333" y="405.6666666666667" type="line"/>
      <point x="97.33333333333333" y="702.0" type="line" smooth="yes"/>
      <point x="88.66666666666666" y="716.3333333333334"/>
      <point x="77.66666666666667" y="715.6666666666666"/>
      <point x="61.0" y="705.3333333333334" type="curve" smooth="yes"/>
      <point x="45.333333333333336" y="695.3333333333334"/>
      <point x="43.0" y="685.3333333333334"/>
      <point x="49.333333333333336" y="674.6666666666666" type="curve" smooth="yes"/>
      <point x="243.66666666666666" y="358.3333333333333" type="line"/>
      <point x="39.666666666666664" y="27.0" type="line" smooth="yes"/>
      <point x="33.333333333333336" y="16.333333333333332"/>
      <point x="33.0" y="6.333333333333332"/>
      <point x="48.666666666666664" y="-3.666666666666667" type="curve" smooth="yes"/>
      <point x="65.33333333333333" y="-14.0"/>
      <point x="76.33333333333333" y="-14.333333333333334"/>
      <point x="84.0" y="-1.666666666666667" type="curve" smooth="yes"/>
      <point x="274.3333333333333" y="307.6666666666667" type="line"/>
      <point x="464.3333333333333" y="-1.666666666666667" type="line" smooth="yes"/>
      <point x="472.3333333333333" y="-14.666666666666666"/>
      <point x="483.3333333333333" y="-14.0"/>
    </contour>
  </outline>
</glyph>
<glyph name="Y" format="2">
  <advance width="490.0"/>
  <unicode hex="0059"/>
  <anchor x="240.0" y="0.0" name="bottom"/>
  <anchor x="245.0" y="670.0" name="top"/>
  <outline>
    <contour>
      <point x="243.33333333333334" y="-11.0" type="curve" smooth="yes"/>
      <point x="262.3333333333333" y="-11.0"/>
      <point x="271.6666666666667" y="-5.333333333333334"/>
      <point x="271.6666666666667" y="7.666666666666666" type="curve" smooth="yes"/>
      <point x="271.6666666666667" y="299.0" type="line"/>
      <point x="480.0" y="677.3333333333334" type="line" smooth="yes"/>
      <point x="486.0" y="688.6666666666666"/>
      <point x="482.3333333333333" y="698.0"/>
      <point x="464.3333333333333" y="707.0" type="curve" smooth="yes"/>
      <point x="448.0" y="715.0"/>
      <point x="438.6666666666667" y="716.0"/>
      <point x="429.6666666666667" y="699.6666666666666" type="curve" smooth="yes"/>
      <point x="243.33333333333334" y="358.3333333333333" type="line"/>
      <point x="60.33333333333333" y="699.6666666666666" type="line" smooth="yes"/>
      <point x="52.0" y="716.0"/>
      <point x="42.666666666666664" y="715.0"/>
      <point x="25.666666666666664" y="707.0" type="curve" smooth="yes"/>
      <point x="8.0" y="698.3333333333334"/>
      <point x="4.0" y="688.6666666666666"/>
      <point x="10.0" y="677.3333333333334" type="curve" smooth="yes"/>
      <point x="215.0" y="299.0" type="line"/>
      <point x="215.0" y="7.666666666666666" type="line" smooth="yes"/>
      <point x="215.0" y="-5.333333333333334"/>
      <point x="224.33333333333334" y="-11.0"/>
    </contour>
  </outline>
</glyph>
<glyph name="Z" format="2">
  <advance width="490.0"/>
  <unicode hex="005A"/>
  <anchor x="245.0" y="0.0" name="bottom"/>
  <anchor x="245.0" y="370.0" name="center"/>
  <anchor x="245.0" y="670.0" name="top"/>
  <outline>
    <contour>
      <point x="33.666666666666664" y="0.0" type="curve" smooth="yes"/>
      <point x="460.3333333333333" y="0.0" type="line" smooth="yes"/>
      <point x="472.6666666666667" y="0.0"/>
      <point x="478.0" y="7.0"/>
      <point x="478.0" y="26.333333333333332" type="curve" smooth="yes"/>
      <point x="478.0" y="45.666666666666664"/>
      <point x="472.6666666666667" y="52.0"/>
      <point x="460.3333333333333" y="52.0" type="curve" smooth="yes"/>
      <point x="90.66666666666666" y="52.0" type="line"/>
      <point x="466.0" y="664.0" type="line" smooth="yes"/>
      <point x="475.0" y="678.6666666666666"/>
      <point x="464.0" y="700.0"/>
      <point x="447.0" y="700.0" type="curve" smooth="yes"/>
      <point x="56.333333333333336" y="700.0" type="line" smooth="yes"/>
      <point x="44.0" y="700.0"/>
      <point x="38.666666666666664" y="693.3333333333334"/>
      <point x="38.666666666666664" y="674.0" type="curve" smooth="yes"/>
      <point x="38.666666666666664" y="654.6666666666666"/>
      <point x="44.0" y="648.0"/>
      <point x="56.333333333333336" y="648.0" type="curve" smooth="yes"/>
      <point x="390.0" y="648.0" type="line"/>
      <point x="14.666666666666668" y="36.0" type="line" smooth="yes"/>
      <point x="5.666666666666668" y="21.333333333333332"/>
      <point x="16.666666666666668" y="0.0"/>
    </contour>
  </outline>
</glyph>
<glyph name="backslash" format="2">
  <advance width="258.0"/>
  <unicode hex="005C"/>
  <outline>
    <contour>
      <point x="235.33333333333334" y="-60.0" type="curve" smooth="yes"/>
      <point x="254.0" y="-55.666666666666664"/>
      <point x="261.6666666666667" y="-47.666666666666664"/>
      <point x="258.3333333333333" y="-35.0" type="curve" smooth="yes"/>
      <point x="54.666666666666664" y="748.6666666666666" type="line"/>
      <point x="51.33333333333333" y="761.6666666666666"/>
      <point x="41.0" y="765.0"/>
      <point x="22.666666666666668" y="760.0" type="curve"/>
      <point x="4.333333333333334" y="755.6666666666666"/>
      <point x="-3.666666666666666" y="747.6666666666666"/>
      <point x="-0.33333333333333215" y="735.0" type="curve" smooth="yes"/>
      <point x="203.33333333333334" y="-48.666666666666664" type="line"/>
      <point x="206.66666666666666" y="-61.666666666666664"/>
      <point x="217.0" y="-65.0"/>
    </contour>
  </outline>
</glyph>
<glyph name="bracketright" format="2">
  <advance width="300.0"/>
  <unicode hex="005D"/>
  <outline>
    <contour>
      <point x="31.333333333333336" y="-34.0" type="curve" smooth="yes"/>
      <point x="31.333333333333336" y="-53.333333333333336"/>
      <point x="36.666666666666664" y="-60.0"/>
      <point x="49.0" y="-60.0" type="curve" smooth="yes"/>
      <point x="165.0" y="-60.0" type="line" smooth="yes"/>
      <point x="184.0" y="-60.0"/>
      <point x="193.33333333333334" y="-54.333333333333336"/>
      <point x="193.33333333333334" y="-41.333333333333336" type="curve" smooth="yes"/>
      <point x="193.33333333333334" y="741.3333333333334" type="line" smooth="yes"/>
      <point x="193.33333333333334" y="754.3333333333334"/>
      <point x="184.0" y="760.0"/>
      <point x="165.0" y="760.0" type="curve" smooth="yes"/>
      <point x="49.0" y="760.0" type="line" smooth="yes"/>
      <point x="36.666666666666664" y="760.0"/>
      <point x="31.333333333333336" y="753.3333333333334"/>
      <point x="31.333333333333336" y="734.0" type="curve" smooth="yes"/>
      <point x="31.333333333333336" y="714.6666666666666"/>
      <point x="36.666666666666664" y="708.0"/>
      <point x="49.0" y="708.0" type="curve" smooth="yes"/>
      <point x="136.66666666666666" y="708.0" type="line"/>
      <point x="136.66666666666666" y="-8.0" type="line"/>
      <point x="49.0" y="-8.0" type="line" smooth="yes"/>
      <point x="36.666666666666664" y="-8.0"/>
      <point x="31.333333333333336" y="-14.666666666666668"/>
    </contour>
  </outline>
</glyph>
<glyph name="underscore" format="2">
  <advance width="440.0"/>
  <unicode hex="005F"/>
  <outline>
    <contour>
      <point x="50.666666666666664" y="-102.66666666666667" type="curve" smooth="yes"/>
      <point x="389.3333333333333" y="-102.66666666666667" type="line" smooth="yes"/>
      <point x="403.0" y="-102.66666666666667"/>
      <point x="408.0" y="-96.0"/>
      <point x="408.0" y="-77.0" type="curve" smooth="yes"/>
      <point x="408.0" y="-57.66666666666667"/>
      <point x="403.0" y="-50.66666666666667"/>
      <point x="389.3333333333333" y="-50.66666666666667" type="curve" smooth="yes"/>
      <point x="50.666666666666664" y="-50.66666666666667" type="line" smooth="yes"/>
      <point x="37.0" y="-50.66666666666667"/>
      <point x="32.0" y="-57.66666666666667"/>
      <point x="32.0" y="-77.0" type="curve" smooth="yes"/>
      <point x="32.0" y="-96.0"/>
      <point x="37.0" y="-102.66666666666667"/>
    </contour>
  </outline>
</glyph>
<glyph name="a" format="2">
  <advance width="498.6666666666667"/>
  <unicode hex="0061"/>
  <anchor x="226.33333333333334" y="0.0" name="bottom"/>
  <anchor x="463.3333333333333" y="0.0" name="ogonek"/>
  <anchor x="242.0" y="400.0" name="top"/>
  <outline>
    <contour>
      <point x="209.0" y="-14.0" type="curve" smooth="yes"/>
      <point x="251.33333333333334" y="-14.0"/>
      <point x="303.0" y="0.6666666666666667"/>
      <point x="340.0" y="66.66666666666667" type="curve"/>
      <point x="340.0" y="62.0"/>
      <point x="340.6666666666667" y="56.333333333333336"/>
      <point x="340.6666666666667" y="53.666666666666664" type="curve" smooth="yes"/>
      <point x="344.6666666666667" y="9.666666666666666"/>
      <point x="368.6666666666667" y="-14.0"/>
      <point x="414.6666666666667" y="-14.0" type="curve" smooth="yes"/>
      <point x="444.3333333333333" y="-14.0"/>
      <point x="477.0" y="1.6666666666666667"/>
      <point x="495.0" y="26.666666666666668" type="curve" smooth="yes"/>
      <point x="500.3333333333333" y="34.666666666666664"/>
      <point x="499.0" y="44.333333333333336"/>
      <point x="490.6666666666667" y="53.33333333333333" type="curve" smooth="yes"/>
      <point x="482.6666666666667" y="61.33333333333333"/>
      <point x="473.6666666666667" y="63.33333333333333"/>
      <point x="467.3333333333333" y="57.33333333333333" type="curve" smooth="yes"/>
      <point x="452.0" y="42.666666666666664"/>
      <point x="442.0" y="35.0"/>
      <point x="425.6666666666667" y="35.0" type="curve" smooth="yes"/>
      <point x="406.3333333333333" y="35.0"/>
      <point x="395.6666666666667" y="47.33333333333333"/>
      <point x="395.6666666666667" y="74.66666666666667" type="curve" smooth="yes"/>
      <point x="395.6666666666667" y="393.3333333333333" type="line" smooth="yes"/>
      <point x="395.6666666666667" y="406.3333333333333"/>
      <point x="387.0" y="412.0"/>
      <point x="368.3333333333333" y="412.0" type="curve" smooth="yes"/>
      <point x="349.6666666666667" y="412.0"/>
      <point x="340.0" y="406.3333333333333"/>
      <point x="340.0" y="392.6666666666667" type="curve" smooth="yes"/>
      <point x="340.0" y="384.0" type="line"/>
      <point x="306.3333333333333" y="403.6666666666667"/>
      <point x="270.0" y="415.0"/>
      <point x="235.0" y="415.0" type="curve" smooth="yes"/>
      <point x="119.66666666666667" y="415.0"/>
      <point x="53.333333333333336" y="325.0"/>
      <point x="53.333333333333336" y="189.0" type="curve" smooth="yes"/>
      <point x="53.333333333333336" y="55.0"/>
      <point x="118.0" y="-14.0"/>
    </contour>
    <contour>
      <point x="111.33333333333333" y="192.0" type="curve" smooth="yes"/>
      <point x="111.33333333333333" y="305.0"/>
      <point x="161.66666666666666" y="364.0"/>
      <point x="238.66666666666666" y="364.0" type="curve" smooth="yes"/>
      <point x="273.3333333333333" y="364.0"/>
      <point x="304.6666666666667" y="357.0"/>
      <point x="340.0" y="334.6666666666667" type="curve"/>
      <point x="340.0" y="138.66666666666666" type="line"/>
      <point x="312.0" y="64.0"/>
      <point x="265.6666666666667" y="38.0"/>
      <point x="217.66666666666666" y="38.0" type="curve" smooth="yes"/>
      <point x="146.66666666666666" y="38.0"/>
      <point x="111.33333333333333" y="98.66666666666667"/>
    </contour>
  </outline>
</glyph>
<glyph name="b" format="2">
  <advance width="478.0"/>
  <unicode hex="0062"/>
  <anchor x="256.3333333333333" y="0.0" name="bottom"/>
  <anchor x="256.3333333333333" y="200.0" name="center"/>
  <anchor x="256.3333333333333" y="400.0" name="top"/>
  <outline>
    <contour>
      <point x="112.33333333333333" y="-11.666666666666666" type="curve" smooth="yes"/>
      <point x="131.0" y="-11.666666666666666"/>
      <point x="140.66666666666666" y="-6.0"/>
      <point x="140.66666666666666" y="6.333333333333333" type="curve" smooth="yes"/>
      <point x="140.66666666666666" y="16.666666666666668" type="line"/>
      <point x="171.33333333333334" y="-3.6666666666666665"/>
      <point x="203.33333333333334" y="-14.0"/>
      <point x="240.0" y="-14.0" type="curve" smooth="yes"/>
      <point x="358.3333333333333" y="-14.0"/>
      <point x="424.6666666666667" y="74.0"/>
      <point x="424.6666666666667" y="213.0" type="curve" smooth="yes"/>
      <point x="424.6666666666667" y="349.0"/>
      <point x="361.3333333333333" y="415.0"/>
      <point x="270.6666666666667" y="415.0" type="curve" smooth="yes"/>
      <point x="227.66666666666666" y="415.0"/>
      <point x="178.0" y="400.6666666666667"/>
      <point x="140.66666666666666" y="339.6666666666667" type="curve"/>
      <point x="140.66666666666666" y="693.0" type="line" smooth="yes"/>
      <point x="140.66666666666666" y="706.6666666666666"/>
      <point x="131.33333333333334" y="712.3333333333334"/>
      <point x="112.66666666666667" y="712.3333333333334" type="curve" smooth="yes"/>
      <point x="94.0" y="712.3333333333334"/>
      <point x="85.0" y="706.6666666666666"/>
      <point x="85.0" y="694.3333333333334" type="curve" smooth="yes"/>
      <point x="85.0" y="6.333333333333333" type="line" smooth="yes"/>
      <point x="85.0" y="-6.0"/>
      <point x="93.66666666666667" y="-11.666666666666666"/>
    </contour>
    <contour>
      <point x="140.66666666666666" y="67.33333333333333" type="curve"/>
      <point x="140.66666666666666" y="272.6666666666667" type="line"/>
      <point x="170.66666666666666" y="337.6666666666667"/>
      <point x="214.33333333333334" y="363.0"/>
      <point x="262.0" y="363.0" type="curve" smooth="yes"/>
      <point x="332.6666666666667" y="363.0"/>
      <point x="366.6666666666667" y="305.3333333333333"/>
      <point x="366.6666666666667" y="210.0" type="curve" smooth="yes"/>
      <point x="366.6666666666667" y="94.0"/>
      <point x="317.0" y="35.0"/>
      <point x="241.0" y="35.0" type="curve" smooth="yes"/>
      <point x="207.0" y="35.0"/>
      <point x="175.0" y="44.33333333333333"/>
    </contour>
  </outline>
</glyph>
<glyph name="c" format="2">
  <advance width="418.0"/>
  <unicode hex="0063"/>
  <anchor x="229.0" y="0.0" name="bottom"/>
  <anchor x="232.66666666666666" y="400.0" name="top"/>
  <outline>
    <contour>
      <point x="236.66666666666666" y="-15.0" type="curve" smooth="yes"/>
      <point x="288.0" y="-15.0"/>
      <point x="349.3333333333333" y="7.666666666666667"/>
      <point x="389.3333333333333" y="66.33333333333333" type="curve" smooth="yes"/>
      <point x="397.3333333333333" y="77.66666666666667"/>
      <point x="393.0" y="86.33333333333333"/>
      <point x="381.0" y="95.66666666666666" type="curve" smooth="yes"/>
      <point x="369.0" y="105.0"/>
      <point x="358.0" y="106.66666666666666"/>
      <point x="349.0" y="96.66666666666666" type="curve" smooth="yes"/>
      <point x="314.0" y="57.0"/>
      <point x="287.0" y="36.666666666666664"/>
      <point x="237.0" y="36.666666666666664" type="curve" smooth="yes"/>
      <point x="155.33333333333334" y="36.666666666666664"/>
      <point x="111.0" y="101.0"/>
      <point x="111.0" y="198.0" type="curve" smooth="yes"/>
      <point x="111.0" y="301.0"/>
      <point x="159.33333333333334" y="363.3333333333333"/>
      <point x="235.33333333333334" y="363.3333333333333" type="curve" smooth="yes"/>
      <point x="282.6666666666667" y="363.3333333333333"/>
      <point x="308.0" y="343.0"/>
      <point x="338.0" y="316.3333333333333" type="curve" smooth="yes"/>
      <point x="348.0" y="307.6666666666667"/>
      <point x="357.6666666666667" y="309.3333333333333"/>
      <point x="369.3333333333333" y="321.0" type="curve" smooth="yes"/>
      <point x="380.3333333333333" y="332.6666666666667"/>
      <point x="382.6666666666667" y="341.0"/>
      <point x="373.3333333333333" y="352.6666666666667" type="curve" smooth="yes"/>
      <point x="338.3333333333333" y="394.3333333333333"/>
      <point x="286.0" y="415.0"/>
      <point x="238.33333333333334" y="415.0" type="curve" smooth="yes"/>
      <point x="127.0" y="415.0"/>
      <point x="53.333333333333336" y="323.6666666666667"/>
      <point x="53.333333333333336" y="194.33333333333334" type="curve" smooth="yes"/>
      <point x="53.333333333333336" y="59.0"/>
      <point x="128.0" y="-15.0"/>
    </contour>
  </outline>
</glyph>
<glyph name="d" format="2">
  <advance width="503.0"/>
  <unicode hex="0064"/>
  <anchor x="222.0" y="0.0" name="bottom"/>
  <anchor x="350.0" y="558.0" name="center"/>
  <anchor x="212.0" y="400.0" name="top"/>
  <anchor x="383.0" y="700.0" name="topright"/>
  <outline>
    <contour>
      <point x="209.0" y="-14.0" type="curve" smooth="yes"/>
      <point x="251.33333333333334" y="-14.0"/>
      <point x="303.6666666666667" y="0.6666666666666667"/>
      <point x="341.3333333333333" y="67.33333333333333" type="curve"/>
      <point x="341.3333333333333" y="64.66666666666667"/>
      <point x="341.3333333333333" y="61.666666666666664"/>
      <point x="341.3333333333333" y="59.0" type="curve" smooth="yes"/>
      <point x="341.3333333333333" y="20.333333333333332"/>
      <point x="361.3333333333333" y="-14.0"/>
      <point x="415.3333333333333" y="-14.0" type="curve" smooth="yes"/>
      <point x="445.0" y="-14.0"/>
      <point x="477.6666666666667" y="1.6666666666666667"/>
      <point x="495.6666666666667" y="26.666666666666668" type="curve" smooth="yes"/>
      <point x="501.0" y="34.666666666666664"/>
      <point x="499.0" y="43.666666666666664"/>
      <point x="492.0" y="52.0" type="curve" smooth="yes"/>
      <point x="485.3333333333333" y="60.0"/>
      <point x="475.6666666666667" y="63.33333333333333"/>
      <point x="468.6666666666667" y="57.33333333333333" type="curve" smooth="yes"/>
      <point x="454.0" y="43.33333333333333"/>
      <point x="441.3333333333333" y="35.0"/>
      <point x="426.3333333333333" y="35.0" type="curve" smooth="yes"/>
      <point x="407.0" y="35.0"/>
      <point x="396.3333333333333" y="47.33333333333333"/>
      <point x="396.3333333333333" y="74.66666666666667" type="curve" smooth="yes"/>
      <point x="396.3333333333333" y="694.0" type="line" smooth="yes"/>
      <point x="396.3333333333333" y="706.3333333333334"/>
      <point x="387.6666666666667" y="712.0"/>
      <point x="369.0" y="712.0" type="curve" smooth="yes"/>
      <point x="350.3333333333333" y="712.0"/>
      <point x="340.6666666666667" y="706.3333333333334"/>
      <point x="340.6666666666667" y="694.0" type="curve" smooth="yes"/>
      <point x="340.6666666666667" y="385.3333333333333" type="line"/>
      <point x="307.0" y="405.0"/>
      <point x="270.6666666666667" y="415.0"/>
      <point x="237.0" y="415.0" type="curve" smooth="yes"/>
      <point x="119.66666666666667" y="415.0"/>
      <point x="53.333333333333336" y="325.0"/>
      <point x="53.333333333333336" y="189.0" type="curve" smooth="yes"/>
      <point x="53.333333333333336" y="55.0"/>
      <point x="118.0" y="-14.0"/>
    </contour>
    <contour>
      <point x="111.33333333333333" y="192.0" type="curve" smooth="yes"/>
      <point x="111.33333333333333" y="305.0"/>
      <point x="161.66666666666666" y="364.0"/>
      <point x="238.66666666666666" y="364.0" type="curve" smooth="yes"/>
      <point x="273.3333333333333" y="364.0"/>
      <point x="305.3333333333333" y="356.3333333333333"/>
      <point x="340.6666666666667" y="332.6666666666667" type="curve"/>
      <point x="340.6666666666667" y="138.66666666666666" type="line"/>
      <point x="312.6666666666667" y="64.0"/>
      <point x="265.6666666666667" y="38.0"/>
      <point x="217.66666666666666" y="38.0" type="curve" smooth="yes"/>
      <point x="146.66666666666666" y="38.0"/>
      <point x="111.33333333333333" y="98.66666666666667"/>
    </contour>
  </outline>
</glyph>
<glyph name="f" format="2">
  <advance width="293.0"/>
  <unicode hex="0066"/>
  <outline>
    <contour>
      <point x="61.0" y="-315.0" type="curve" smooth="yes"/>
      <point x="119.0" y="-315.0"/>
      <point x="164.33333333333334" y="-287.0"/>
      <point x="164.33333333333334" y="-202.33333333333334" type="curve" smooth="yes"/>
      <point x="164.33333333333334" y="348.6666666666667" type="line"/>
      <point x="275.3333333333333" y="348.6666666666667" type="line" smooth="yes"/>
      <point x="285.0" y="348.6666666666667"/>
      <point x="291.0" y="357.0"/>
      <point x="291.0" y="374.6666666666667" type="curve" smooth="yes"/>
      <point x="291.0" y="391.6666666666667"/>
      <point x="285.0" y="400.0"/>
      <point x="275.3333333333333" y="400.0" type="curve" smooth="yes"/>
      <point x="164.33333333333334" y="400.0" type="line"/>
      <point x="164.33333333333334" y="581.0" type="line" smooth="yes"/>
      <point x="164.33333333333334" y="645.3333333333334"/>
      <point x="189.66666666666666" y="663.3333333333334"/>
      <point x="226.66666666666666" y="663.3333333333334" type="curve" smooth="yes"/>
      <point x="256.6666666666667" y="663.3333333333334"/>
      <point x="275.6666666666667" y="651.0"/>
      <point x="297.6666666666667" y="634.3333333333334" type="curve" smooth="yes"/>
      <point x="308.3333333333333" y="626.3333333333334"/>
      <point x="318.0" y="627.3333333333334"/>
      <point x="329.0" y="638.3333333333334" type="curve" smooth="yes"/>
      <point x="339.0" y="649.0"/>
      <point x="343.0" y="659.0"/>
      <point x="333.3333333333333" y="669.0" type="curve" smooth="yes"/>
      <point x="310.3333333333333" y="693.3333333333334"/>
      <point x="274.0" y="715.0"/>
      <point x="226.33333333333334" y="715.0" type="curve" smooth="yes"/>
      <point x="165.33333333333334" y="715.0"/>
      <point x="108.66666666666667" y="680.3333333333334"/>
      <point x="108.66666666666667" y="586.3333333333334" type="curve" smooth="yes"/>
      <point x="108.66666666666667" y="400.0" type="line"/>
      <point x="34.0" y="400.0" type="line" smooth="yes"/>
      <point x="23.666666666666668" y="400.0"/>
      <point x="17.666666666666668" y="391.3333333333333"/>
      <point x="17.666666666666668" y="374.3333333333333" type="curve" smooth="yes"/>
      <point x="17.666666666666668" y="356.6666666666667"/>
      <point x="24.333333333333332" y="348.6666666666667"/>
      <point x="34.666666666666664" y="348.6666666666667" type="curve" smooth="yes"/>
      <point x="108.66666666666667" y="348.6666666666667" type="line"/>
      <point x="108.66666666666667" y="-201.0" type="line" smooth="yes"/>
      <point x="108.66666666666667" y="-243.33333333333334"/>
      <point x="97.66666666666667" y="-266.3333333333333"/>
      <point x="65.66666666666667" y="-266.3333333333333" type="curve" smooth="yes"/>
      <point x="41.33333333333333" y="-266.3333333333333"/>
      <point x="24.333333333333332" y="-252.33333333333334"/>
      <point x="8.333333333333332" y="-234.0" type="curve" smooth="yes"/>
      <point x="-1.333333333333334" y="-223.0"/>
      <point x="-9.666666666666668" y="-223.0"/>
      <point x="-22.666666666666668" y="-231.33333333333334" type="curve" smooth="yes"/>
      <point x="-36.333333333333336" y="-240.33333333333334"/>
      <point x="-40.666666666666664" y="-250.66666666666666"/>
      <point x="-34.666666666666664" y="-262.6666666666667" type="curve" smooth="yes"/>
      <point x="-18.0" y="-294.0"/>
      <point x="18.666666666666668" y="-315.0"/>
    </contour>
  </outline>
</glyph>
<glyph name="g" format="2">
  <advance width="478.0"/>
  <unicode hex="0067"/>
  <anchor x="236.0" y="400.0" name="top"/>
  <outline>
    <contour>
      <point x="226.33333333333334" y="-315.0" type="curve" smooth="yes"/>
      <point x="330.0" y="-315.0"/>
      <point x="396.3333333333333" y="-252.0"/>
      <point x="396.3333333333333" y="-122.33333333333333" type="curve" smooth="yes"/>
      <point x="396.3333333333333" y="394.0" type="line" smooth="yes"/>
      <point x="396.3333333333333" y="406.3333333333333"/>
      <point x="387.0" y="412.0"/>
      <point x="368.3333333333333" y="412.0" type="curve" smooth="yes"/>
      <point x="349.6666666666667" y="412.0"/>
      <point x="340.6666666666667" y="406.3333333333333"/>
      <point x="340.6666666666667" y="394.0" type="curve" smooth="yes"/>
      <point x="340.6666666666667" y="-120.33333333333333" type="line" smooth="yes"/>
      <point x="340.6666666666667" y="-223.33333333333334"/>
      <point x="298.6666666666667" y="-264.3333333333333"/>
      <point x="229.66666666666666" y="-264.3333333333333" type="curve" smooth="yes"/>
      <point x="181.33333333333334" y="-264.3333333333333"/>
      <point x="150.0" y="-246.0"/>
      <point x="120.33333333333333" y="-206.66666666666666" type="curve" smooth="yes"/>
      <point x="110.0" y="-195.0"/>
      <point x="102.66666666666667" y="-192.0"/>
      <point x="86.33333333333333" y="-203.0" type="curve" smooth="yes"/>
      <point x="68.66666666666667" y="-215.33333333333334"/>
      <point x="68.66666666666667" y="-227.0"/>
      <point x="76.66666666666667" y="-239.66666666666666" type="curve" smooth="yes"/>
      <point x="103.33333333333333" y="-283.3333333333333"/>
      <point x="153.66666666666666" y="-315.0"/>
    </contour>
    <contour>
      <point x="209.0" y="-14.0" type="curve" smooth="yes"/>
      <point x="263.0" y="-14.0"/>
      <point x="331.6666666666667" y="10.0"/>
      <point x="368.0" y="130.33333333333334" type="curve"/>
      <point x="354.0" y="172.0" type="line"/>
      <point x="326.0" y="72.66666666666666"/>
      <point x="273.0" y="38.0"/>
      <point x="217.66666666666666" y="38.0" type="curve" smooth="yes"/>
      <point x="146.66666666666666" y="38.0"/>
      <point x="111.33333333333333" y="98.66666666666667"/>
      <point x="111.33333333333333" y="192.0" type="curve" smooth="yes"/>
      <point x="111.33333333333333" y="305.0"/>
      <point x="161.66666666666666" y="364.0"/>
      <point x="238.66666666666666" y="364.0" type="curve" smooth="yes"/>
      <point x="279.0" y="364.0"/>
      <point x="316.3333333333333" y="352.0"/>
      <point x="359.0" y="319.6666666666667" type="curve"/>
      <point x="359.0" y="373.6666666666667" type="line"/>
      <point x="322.0" y="400.0"/>
      <point x="277.3333333333333" y="415.0"/>
      <point x="235.0" y="415.0" type="curve" smooth="yes"/>
      <point x="119.66666666666667" y="415.0"/>
      <point x="53.333333333333336" y="325.0"/>
      <point x="53.333333333333336" y="189.0" type="curve" smooth="yes"/>
      <point x="53.333333333333336" y="55.0"/>
      <point x="118.0" y="-14.0"/>
    </contour>
  </outline>
</glyph>
<glyph name="h" format="2">
  <advance width="521.0"/>
  <unicode hex="0068"/>
  <anchor x="263.6666666666667" y="0.0" name="bottom"/>
  <anchor x="138.0" y="558.0" name="center"/>
  <anchor x="113.66666666666667" y="670.0" name="top"/>
  <outline>
    <contour>
      <point x="436.6666666666667" y="-14.0" type="curve" smooth="yes"/>
      <point x="467.0" y="-14.0"/>
      <point x="498.6666666666667" y="1.0"/>
      <point x="516.6666666666666" y="26.0" type="curve" smooth="yes"/>
      <point x="522.6666666666666" y="34.666666666666664"/>
      <point x="521.3333333333334" y="43.0"/>
      <point x="513.6666666666666" y="52.0" type="curve" smooth="yes"/>
      <point x="506.3333333333333" y="60.666666666666664"/>
      <point x="497.0" y="63.0"/>
      <point x="489.3333333333333" y="56.666666666666664" type="curve" smooth="yes"/>
      <point x="476.0" y="43.666666666666664"/>
      <point x="465.0" y="35.33333333333333"/>
      <point x="448.3333333333333" y="35.33333333333333" type="curve" smooth="yes"/>
      <point x="429.0" y="35.33333333333333"/>
      <point x="419.0" y="48.666666666666664"/>
      <point x="419.0" y="76.0" type="curve" smooth="yes"/>
      <point x="419.0" y="267.0" type="line" smooth="yes"/>
      <point x="419.0" y="372.0"/>
      <point x="361.0" y="415.0"/>
      <point x="282.0" y="415.0" type="curve" smooth="yes"/>
      <point x="227.0" y="415.0"/>
      <point x="173.0" y="389.6666666666667"/>
      <point x="140.66666666666666" y="332.0" type="curve"/>
      <point x="140.66666666666666" y="694.0" type="line" smooth="yes"/>
      <point x="140.66666666666666" y="706.3333333333334"/>
      <point x="131.0" y="712.0"/>
      <point x="112.33333333333333" y="712.0" type="curve" smooth="yes"/>
      <point x="93.66666666666667" y="712.0"/>
      <point x="85.0" y="706.3333333333334"/>
      <point x="85.0" y="694.0" type="curve" smooth="yes"/>
      <point x="85.0" y="6.0" type="line" smooth="yes"/>
      <point x="85.0" y="-6.333333333333334"/>
      <point x="93.66666666666667" y="-12.0"/>
      <point x="112.33333333333333" y="-12.0" type="curve" smooth="yes"/>
      <point x="131.0" y="-12.0"/>
      <point x="140.66666666666666" y="-6.333333333333334"/>
      <point x="140.66666666666666" y="6.0" type="curve" smooth="yes"/>
      <point x="140.66666666666666" y="257.0" type="line"/>
      <point x="167.33333333333334" y="336.3333333333333"/>
      <point x="222.33333333333334" y="363.0"/>
      <point x="274.0" y="363.0" type="curve" smooth="yes"/>
      <point x="338.0" y="363.0"/>
      <point x="363.3333333333333" y="324.6666666666667"/>
      <point x="363.3333333333333" y="261.0" type="curve" smooth="yes"/>
      <point x="363.3333333333333" y="67.33333333333333" type="line" smooth="yes"/>
      <point x="363.3333333333333" y="15.0"/>
      <point x="387.0" y="-14.0"/>
    </contour>
  </outline>
</glyph>
<glyph name="i" format="2">
  <advance width="242.66666666666666"/>
  <unicode hex="0069"/>
  <anchor x="156.66666666666666" y="0.0" name="bottom"/>
  <anchor x="200.66666666666666" y="0.0" name="ogonek"/>
  <outline>
    <contour>
      <point x="153.66666666666666" y="-14.0" type="curve" smooth="yes"/>
      <point x="184.33333333333334" y="-14.0"/>
      <point x="216.66666666666666" y="1.6666666666666667"/>
      <point x="234.66666666666666" y="26.666666666666668" type="curve" smooth="yes"/>
      <point x="240.0" y="34.666666666666664"/>
      <point x="238.66666666666666" y="43.666666666666664"/>
      <point x="231.66666666666666" y="52.0" type="curve" smooth="yes"/>
      <point x="225.0" y="60.0"/>
      <point x="214.33333333333334" y="63.0"/>
      <point x="208.0" y="57.33333333333333" type="curve" smooth="yes"/>
      <point x="193.33333333333334" y="43.666666666666664"/>
      <point x="182.33333333333334" y="35.33333333333333"/>
      <point x="165.33333333333334" y="35.33333333333333" type="curve" smooth="yes"/>
      <point x="145.66666666666666" y="35.33333333333333"/>
      <point x="135.66666666666666" y="48.666666666666664"/>
      <point x="135.66666666666666" y="76.0" type="curve" smooth="yes"/>
      <point x="135.66666666666666" y="394.0" type="line" smooth="yes"/>
      <point x="135.66666666666666" y="406.3333333333333"/>
      <point x="126.0" y="412.0"/>
      <point x="107.33333333333333" y="412.0" type="curve" smooth="yes"/>
      <point x="88.66666666666667" y="412.0"/>
      <point x="80.0" y="406.3333333333333"/>
      <point x="80.0" y="394.0" type="curve" smooth="yes"/>
      <point x="80.0" y="67.33333333333333" type="line" smooth="yes"/>
      <point x="80.0" y="15.0"/>
      <point x="103.66666666666667" y="-14.0"/>
    </contour>
    <contour>
      <point x="108.0" y="540.6666666666666" type="curve" smooth="yes"/>
      <point x="134.0" y="540.6666666666666"/>
      <point x="148.0" y="555.0"/>
      <point x="147.33333333333334" y="585.3333333333334" type="curve" smooth="yes"/>
      <point x="147.33333333333334" y="615.6666666666666"/>
      <point x="134.0" y="630.6666666666666"/>
      <point x="108.0" y="630.6666666666666" type="curve" smooth="yes"/>
      <point x="81.33333333333333" y="630.6666666666666"/>
      <point x="68.0" y="615.6666666666666"/>
      <point x="68.0" y="585.3333333333334" type="curve" smooth="yes"/>
      <point x="68.0" y="555.0"/>
      <point x="81.33333333333333" y="540.6666666666666"/>
    </contour>
  </outline>
</glyph>
<glyph name="j" format="2">
  <advance width="214.0"/>
  <unicode hex="006A"/>
  <outline>
    <contour>
      <point x="35.666666666666664" y="-314.6666666666667" type="curve" smooth="yes"/>
      <point x="92.66666666666667" y="-314.6666666666667"/>
      <point x="133.0" y="-281.6666666666667"/>
      <point x="133.0" y="-201.33333333333334" type="curve" smooth="yes"/>
      <point x="133.0" y="394.0" type="line" smooth="yes"/>
      <point x="133.0" y="406.3333333333333"/>
      <point x="123.66666666666667" y="412.0"/>
      <point x="105.0" y="412.0" type="curve" smooth="yes"/>
      <point x="86.33333333333333" y="412.0"/>
      <point x="77.33333333333333" y="406.3333333333333"/>
      <point x="77.33333333333333" y="394.0" type="curve" smooth="yes"/>
      <point x="77.33333333333333" y="-204.0" type="line" smooth="yes"/>
      <point x="77.33333333333333" y="-241.33333333333334"/>
      <point x="69.33333333333333" y="-265.3333333333333"/>
      <point x="36.0" y="-265.3333333333333" type="curve" smooth="yes"/>
      <point x="14.666666666666666" y="-265.3333333333333"/>
      <point x="2.333333333333332" y="-254.0"/>
      <point x="-11.0" y="-235.0" type="curve" smooth="yes"/>
      <point x="-19.666666666666668" y="-223.33333333333334"/>
      <point x="-28.666666666666668" y="-219.33333333333334"/>
      <point x="-44.333333333333336" y="-228.33333333333334" type="curve" smooth="yes"/>
      <point x="-57.333333333333336" y="-235.66666666666666"/>
      <point x="-62.666666666666664" y="-246.0"/>
      <point x="-56.666666666666664" y="-258.6666666666667" type="curve" smooth="yes"/>
      <point x="-42.333333333333336" y="-289.6666666666667"/>
      <point x="-9.666666666666666" y="-314.6666666666667"/>
    </contour>
    <contour>
      <point x="104.66666666666667" y="540.6666666666666" type="curve" smooth="yes"/>
      <point x="130.66666666666666" y="540.6666666666666"/>
      <point x="144.0" y="555.0"/>
      <point x="144.0" y="585.3333333333334" type="curve" smooth="yes"/>
      <point x="144.0" y="615.6666666666666"/>
      <point x="130.66666666666666" y="630.6666666666666"/>
      <point x="104.66666666666667" y="630.6666666666666" type="curve" smooth="yes"/>
      <point x="78.0" y="630.6666666666666"/>
      <point x="64.66666666666667" y="615.6666666666666"/>
      <point x="64.66666666666667" y="585.3333333333334" type="curve" smooth="yes"/>
      <point x="64.66666666666667" y="555.0"/>
      <point x="78.0" y="540.6666666666666"/>
    </contour>
  </outline>
</glyph>
<glyph name="k" format="2">
  <advance width="451.0"/>
  <unicode hex="006B"/>
  <anchor x="239.33333333333334" y="0.0" name="bottom"/>
  <anchor x="112.33333333333333" y="670.0" name="top"/>
  <outline>
    <contour>
      <point x="112.33333333333333" y="-12.0" type="curve" smooth="yes"/>
      <point x="131.0" y="-12.0"/>
      <point x="140.66666666666666" y="-6.333333333333334"/>
      <point x="140.66666666666666" y="6.0" type="curve" smooth="yes"/>
      <point x="140.66666666666666" y="190.0" type="line"/>
      <point x="263.0" y="23.0"/>
      <point x="295.6666666666667" y="-14.333333333333334"/>
      <point x="352.3333333333333" y="-14.333333333333334" type="curve" smooth="yes"/>
      <point x="375.3333333333333" y="-14.333333333333334"/>
      <point x="415.3333333333333" y="-6.0"/>
      <point x="450.0" y="41.0" type="curve" smooth="yes"/>
      <point x="457.0" y="50.333333333333336"/>
      <point x="456.3333333333333" y="63.0"/>
      <point x="443.3333333333333" y="71.0" type="curve" smooth="yes"/>
      <point x="432.0" y="78.0"/>
      <point x="424.0" y="78.33333333333333"/>
      <point x="414.6666666666667" y="68.0" type="curve" smooth="yes"/>
      <point x="392.6666666666667" y="44.0"/>
      <point x="378.0" y="36.0"/>
      <point x="359.3333333333333" y="36.0" type="curve" smooth="yes"/>
      <point x="327.0" y="36.0"/>
      <point x="311.0" y="55.0"/>
      <point x="186.33333333333331" y="222.0" type="curve"/>
      <point x="374.3333333333333" y="367.6666666666667" type="line" smooth="yes"/>
      <point x="389.3333333333333" y="379.0"/>
      <point x="385.0" y="391.3333333333333"/>
      <point x="376.3333333333333" y="401.0" type="curve" smooth="yes"/>
      <point x="364.0" y="415.6666666666667"/>
      <point x="353.0" y="414.0"/>
      <point x="339.3333333333333" y="403.6666666666667" type="curve" smooth="yes"/>
      <point x="140.66666666666666" y="250.0" type="line"/>
      <point x="140.66666666666666" y="694.0" type="line" smooth="yes"/>
      <point x="140.66666666666666" y="706.3333333333334"/>
      <point x="131.0" y="712.0"/>
      <point x="112.33333333333333" y="712.0" type="curve" smooth="yes"/>
      <point x="93.66666666666667" y="712.0"/>
      <point x="85.0" y="706.3333333333334"/>
      <point x="85.0" y="694.0" type="curve" smooth="yes"/>
      <point x="85.0" y="6.0" type="line" smooth="yes"/>
      <point x="85.0" y="-6.333333333333334"/>
      <point x="93.66666666666667" y="-12.0"/>
    </contour>
  </outline>
</glyph>
<glyph name="l" format="2">
  <advance width="243.0"/>
  <unicode hex="006C"/>
  <anchor x="160.0" y="0.0" name="bottom"/>
  <anchor x="108.0" y="350.0" name="center"/>
  <anchor x="104.0" y="670.0" name="top"/>
  <anchor x="119.0" y="700.0" name="topright"/>
  <outline>
    <contour>
      <point x="153.33333333333334" y="-14.0" type="curve" smooth="yes"/>
      <point x="184.0" y="-14.0"/>
      <point x="217.66666666666666" y="1.6666666666666667"/>
      <point x="235.66666666666666" y="28.0" type="curve" smooth="yes"/>
      <point x="241.0" y="36.0"/>
      <point x="237.66666666666666" y="45.0"/>
      <point x="232.0" y="52.0" type="curve" smooth="yes"/>
      <point x="224.0" y="61.33333333333333"/>
      <point x="214.66666666666666" y="63.0"/>
      <point x="207.66666666666666" y="56.666666666666664" type="curve" smooth="yes"/>
      <point x="193.66666666666666" y="43.666666666666664"/>
      <point x="182.0" y="35.33333333333333"/>
      <point x="165.0" y="35.33333333333333" type="curve" smooth="yes"/>
      <point x="145.66666666666666" y="35.33333333333333"/>
      <point x="135.66666666666666" y="48.666666666666664"/>
      <point x="135.66666666666666" y="76.0" type="curve" smooth="yes"/>
      <point x="135.66666666666666" y="694.0" type="line" smooth="yes"/>
      <point x="135.66666666666666" y="706.3333333333334"/>
      <point x="126.0" y="712.0"/>
      <point x="107.33333333333333" y="712.0" type="curve" smooth="yes"/>
      <point x="88.66666666666667" y="712.0"/>
      <point x="80.0" y="706.3333333333334"/>
      <point x="80.0" y="694.0" type="curve" smooth="yes"/>
      <point x="80.0" y="67.33333333333333" type="line" smooth="yes"/>
      <point x="80.0" y="15.0"/>
      <point x="103.66666666666667" y="-14.0"/>
    </contour>
  </outline>
</glyph>
<glyph name="m" format="2">
  <advance width="771.0"/>
  <unicode hex="006D"/>
  <anchor x="375.0" y="0.0" name="bottom"/>
  <anchor x="379.0" y="400.0" name="top"/>
  <outline>
    <contour>
      <point x="686.3333333333334" y="-14.0" type="curve" smooth="yes"/>
      <point x="717.0" y="-14.0"/>
      <point x="750.0" y="1.6666666666666667"/>
      <point x="768.0" y="26.666666666666668" type="curve" smooth="yes"/>
      <point x="773.3333333333334" y="34.666666666666664"/>
      <point x="770.6666666666666" y="44.333333333333336"/>
      <point x="765.0" y="51.333333333333336" type="curve" smooth="yes"/>
      <point x="757.0" y="60.666666666666664"/>
      <point x="747.0" y="62.33333333333333"/>
      <point x="740.6666666666666" y="56.666666666666664" type="curve" smooth="yes"/>
      <point x="726.0" y="43.0"/>
      <point x="715.6666666666666" y="35.33333333333333"/>
      <point x="698.0" y="35.33333333333333" type="curve" smooth="yes"/>
      <point x="679.0" y="35.33333333333333"/>
      <point x="669.0" y="48.666666666666664"/>
      <point x="669.0" y="76.0" type="curve" smooth="yes"/>
      <point x="669.0" y="267.0" type="line" smooth="yes"/>
      <point x="669.0" y="372.0"/>
      <point x="611.6666666666666" y="415.0"/>
      <point x="534.3333333333334" y="415.0" type="curve" smooth="yes"/>
      <point x="483.6666666666667" y="415.0"/>
      <point x="403.0" y="390.6666666666667"/>
      <point x="374.0" y="275.6666666666667" type="curve"/>
      <point x="386.3333333333333" y="220.33333333333334" type="line"/>
      <point x="408.3333333333333" y="329.0"/>
      <point x="470.0" y="363.0"/>
      <point x="527.0" y="363.0" type="curve" smooth="yes"/>
      <point x="589.3333333333334" y="363.0"/>
      <point x="613.3333333333334" y="324.6666666666667"/>
      <point x="613.3333333333334" y="261.0" type="curve" smooth="yes"/>
      <point x="613.3333333333334" y="67.33333333333333" type="line" smooth="yes"/>
      <point x="613.3333333333334" y="15.0"/>
      <point x="637.0" y="-14.0"/>
    </contour>
    <contour>
      <point x="107.33333333333333" y="-12.0" type="curve" smooth="yes"/>
      <point x="126.0" y="-12.0"/>
      <point x="135.66666666666666" y="-6.333333333333334"/>
      <point x="135.66666666666666" y="6.0" type="curve" smooth="yes"/>
      <point x="135.66666666666666" y="394.0" type="line" smooth="yes"/>
      <point x="135.66666666666666" y="406.3333333333333"/>
      <point x="126.0" y="412.0"/>
      <point x="107.33333333333333" y="412.0" type="curve" smooth="yes"/>
      <point x="88.66666666666667" y="412.0"/>
      <point x="80.0" y="406.3333333333333"/>
      <point x="80.0" y="394.0" type="curve" smooth="yes"/>
      <point x="80.0" y="6.0" type="line" smooth="yes"/>
      <point x="80.0" y="-6.333333333333334"/>
      <point x="88.66666666666667" y="-12.0"/>
    </contour>
    <contour>
      <point x="374.6666666666667" y="-12.0" type="curve" smooth="yes"/>
      <point x="393.3333333333333" y="-12.0"/>
      <point x="403.0" y="-6.333333333333334"/>
      <point x="403.0" y="6.0" type="curve" smooth="yes"/>
      <point x="403.0" y="267.0" type="line" smooth="yes"/>
      <point x="403.0" y="372.0"/>
      <point x="344.3333333333333" y="415.0"/>
      <point x="267.3333333333333" y="415.0" type="curve" smooth="yes"/>
      <point x="213.66666666666666" y="415.0"/>
      <point x="139.66666666666666" y="385.3333333333333"/>
      <point x="111.33333333333333" y="275.0" type="curve"/>
      <point x="124.33333333333333" y="220.33333333333334" type="line"/>
      <point x="145.66666666666666" y="328.3333333333333"/>
      <point x="208.66666666666666" y="363.0"/>
      <point x="259.3333333333333" y="363.0" type="curve" smooth="yes"/>
      <point x="322.6666666666667" y="363.0"/>
      <point x="347.3333333333333" y="325.3333333333333"/>
      <point x="347.3333333333333" y="261.0" type="curve" smooth="yes"/>
      <point x="347.3333333333333" y="6.0" type="line" smooth="yes"/>
      <point x="347.3333333333333" y="-6.333333333333334"/>
      <point x="356.0" y="-12.0"/>
    </contour>
  </outline>
</glyph>
<glyph name="n" format="2">
  <advance width="517.0"/>
  <unicode hex="006E"/>
  <anchor x="259.0" y="0.0" name="bottom"/>
  <anchor x="250.0" y="400.0" name="top"/>
  <outline>
    <contour>
      <point x="432.3333333333333" y="-14.0" type="curve" smooth="yes"/>
      <point x="463.0" y="-14.0"/>
      <point x="495.3333333333333" y="1.0"/>
      <point x="513.3333333333334" y="26.0" type="curve" smooth="yes"/>
      <point x="518.6666666666666" y="34.0"/>
      <point x="518.0" y="43.0"/>
      <point x="510.3333333333333" y="52.0" type="curve" smooth="yes"/>
      <point x="503.6666666666667" y="60.0"/>
      <point x="493.6666666666667" y="63.0"/>
      <point x="486.0" y="56.666666666666664" type="curve" smooth="yes"/>
      <point x="472.6666666666667" y="43.666666666666664"/>
      <point x="459.6666666666667" y="35.33333333333333"/>
      <point x="444.0" y="35.33333333333333" type="curve" smooth="yes"/>
      <point x="424.6666666666667" y="35.33333333333333"/>
      <point x="414.6666666666667" y="48.666666666666664"/>
      <point x="414.6666666666667" y="76.0" type="curve" smooth="yes"/>
      <point x="414.6666666666667" y="267.0" type="line" smooth="yes"/>
      <point x="414.6666666666667" y="372.0"/>
      <point x="356.6666666666667" y="415.0"/>
      <point x="277.6666666666667" y="415.0" type="curve" smooth="yes"/>
      <point x="222.0" y="415.0"/>
      <point x="168.0" y="389.0"/>
      <point x="135.66666666666666" y="331.3333333333333" type="curve"/>
      <point x="135.66666666666666" y="394.0" type="line" smooth="yes"/>
      <point x="135.66666666666666" y="406.3333333333333"/>
      <point x="126.0" y="412.0"/>
      <point x="107.33333333333333" y="412.0" type="curve" smooth="yes"/>
      <point x="88.66666666666667" y="412.0"/>
      <point x="80.0" y="406.3333333333333"/>
      <point x="80.0" y="394.0" type="curve" smooth="yes"/>
      <point x="80.0" y="6.0" type="line" smooth="yes"/>
      <point x="80.0" y="-6.333333333333334"/>
      <point x="88.66666666666667" y="-12.0"/>
      <point x="107.33333333333333" y="-12.0" type="curve" smooth="yes"/>
      <point x="126.0" y="-12.0"/>
      <point x="135.66666666666666" y="-6.333333333333334"/>
      <point x="135.66666666666666" y="6.0" type="curve" smooth="yes"/>
      <point x="135.66666666666666" y="255.66666666666666" type="line"/>
      <point x="162.33333333333334" y="336.3333333333333"/>
      <point x="217.33333333333334" y="363.0"/>
      <point x="269.6666666666667" y="363.0" type="curve" smooth="yes"/>
      <point x="333.6666666666667" y="363.0"/>
      <point x="359.0" y="324.6666666666667"/>
      <point x="359.0" y="261.0" type="curve" smooth="yes"/>
      <point x="359.0" y="67.33333333333333" type="line" smooth="yes"/>
      <point x="359.0" y="15.0"/>
      <point x="382.6666666666667" y="-14.0"/>
    </contour>
  </outline>
</glyph>
<glyph name="o" format="2">
  <advance width="471.0"/>
  <unicode hex="006F"/>
  <anchor x="236.0" y="0.0" name="bottom"/>
  <anchor x="236.0" y="200.0" name="center"/>
  <anchor x="308.0" y="0.0" name="ogonek"/>
  <anchor x="236.0" y="400.0" name="top"/>
  <anchor x="292.0" y="405.0" name="topright"/>
  <outline>
    <contour>
      <point x="236.0" y="-15.0" type="curve" smooth="yes"/>
      <point x="343.3333333333333" y="-15.0"/>
      <point x="417.6666666666667" y="74.0"/>
      <point x="417.6666666666667" y="200.0" type="curve" smooth="yes"/>
      <point x="417.6666666666667" y="326.0"/>
      <point x="342.0" y="415.0"/>
      <point x="236.0" y="415.0" type="curve" smooth="yes"/>
      <point x="130.0" y="415.0"/>
      <point x="53.333333333333336" y="326.0"/>
      <point x="53.333333333333336" y="200.0" type="curve" smooth="yes"/>
      <point x="53.333333333333336" y="74.0"/>
      <point x="127.0" y="-15.0"/>
    </contour>
    <contour>
      <point x="236.0" y="37.0" type="curve" smooth="yes"/>
      <point x="158.66666666666666" y="37.0"/>
      <point x="111.0" y="101.33333333333333"/>
      <point x="111.0" y="200.0" type="curve" smooth="yes"/>
      <point x="111.0" y="298.6666666666667"/>
      <point x="158.66666666666666" y="363.0"/>
      <point x="236.0" y="363.0" type="curve" smooth="yes"/>
      <point x="313.0" y="363.0"/>
      <point x="360.0" y="298.6666666666667"/>
      <point x="360.0" y="200.0" type="curve" smooth="yes"/>
      <point x="360.0" y="101.33333333333333"/>
      <point x="313.0" y="37.0"/>
    </contour>
  </outline>
</glyph>
<glyph name="p" format="2">
  <advance width="478.0"/>
  <unicode hex="0070"/>
  <outline>
    <contour>
      <point x="112.33333333333333" y="-312.0" type="curve" smooth="yes"/>
      <point x="131.0" y="-312.0"/>
      <point x="140.66666666666666" y="-306.3333333333333"/>
      <point x="140.66666666666666" y="-294.0" type="curve" smooth="yes"/>
      <point x="140.66666666666666" y="16.0" type="line"/>
      <point x="170.66666666666666" y="-3.6666666666666665"/>
      <point x="204.0" y="-14.0"/>
      <point x="239.33333333333334" y="-14.0" type="curve" smooth="yes"/>
      <point x="358.3333333333333" y="-14.0"/>
      <point x="424.6666666666667" y="74.0"/>
      <point x="424.6666666666667" y="213.0" type="curve" smooth="yes"/>
      <point x="424.6666666666667" y="349.0"/>
      <point x="361.3333333333333" y="415.0"/>
      <point x="270.6666666666667" y="415.0" type="curve" smooth="yes"/>
      <point x="227.66666666666666" y="415.0"/>
      <point x="178.0" y="400.6666666666667"/>
      <point x="140.66666666666666" y="337.6666666666667" type="curve"/>
      <point x="140.66666666666666" y="394.0" type="line" smooth="yes"/>
      <point x="140.66666666666666" y="406.3333333333333"/>
      <point x="131.33333333333334" y="412.0"/>
      <point x="112.66666666666667" y="412.0" type="curve" smooth="yes"/>
      <point x="94.0" y="412.0"/>
      <point x="85.0" y="406.3333333333333"/>
      <point x="85.0" y="394.0" type="curve" smooth="yes"/>
      <point x="85.0" y="-294.0" type="line" smooth="yes"/>
      <point x="85.0" y="-306.3333333333333"/>
      <point x="93.66666666666667" y="-312.0"/>
    </contour>
    <contour>
      <point x="140.66666666666666" y="69.33333333333333" type="curve"/>
      <point x="140.66666666666666" y="270.0" type="line"/>
      <point x="170.66666666666666" y="337.0"/>
      <point x="214.33333333333334" y="363.0"/>
      <point x="262.0" y="363.0" type="curve" smooth="yes"/>
      <point x="332.6666666666667" y="363.0"/>
      <point x="366.6666666666667" y="305.3333333333333"/>
      <point x="366.6666666666667" y="210.0" type="curve" smooth="yes"/>
      <point x="366.6666666666667" y="94.0"/>
      <point x="316.3333333333333" y="37.0"/>
      <point x="240.33333333333334" y="37.0" type="curve" smooth="yes"/>
      <point x="207.0" y="37.0"/>
      <point x="175.0" y="46.33333333333333"/>
    </contour>
  </outline>
</glyph>
<glyph name="q" format="2">
  <advance width="478.0"/>
  <unicode hex="0071"/>
  <outline>
    <contour>
      <point x="209.0" y="-14.0" type="curve" smooth="yes"/>
      <point x="250.66666666666666" y="-14.0"/>
      <point x="303.0" y="0.0"/>
      <point x="340.6666666666667" y="62.66666666666667" type="curve"/>
      <point x="340.6666666666667" y="-294.0" type="line" smooth="yes"/>
      <point x="340.6666666666667" y="-306.3333333333333"/>
      <point x="350.0" y="-312.0"/>
      <point x="368.6666666666667" y="-312.0" type="curve" smooth="yes"/>
      <point x="387.3333333333333" y="-312.0"/>
      <point x="396.3333333333333" y="-306.3333333333333"/>
      <point x="396.3333333333333" y="-294.0" type="curve" smooth="yes"/>
      <point x="396.3333333333333" y="394.0" type="line" smooth="yes"/>
      <point x="396.3333333333333" y="406.3333333333333"/>
      <point x="387.6666666666667" y="412.0"/>
      <point x="369.0" y="412.0" type="curve" smooth="yes"/>
      <point x="350.3333333333333" y="412.0"/>
      <point x="340.6666666666667" y="406.3333333333333"/>
      <point x="340.6666666666667" y="394.0" type="curve" smooth="yes"/>
      <point x="340.6666666666667" y="385.3333333333333" type="line"/>
      <point x="307.0" y="405.0"/>
      <point x="270.6666666666667" y="415.0"/>
      <point x="235.0" y="415.0" type="curve" smooth="yes"/>
      <point x="119.66666666666667" y="415.0"/>
      <point x="53.333333333333336" y="325.0"/>
      <point x="53.333333333333336" y="189.0" type="curve" smooth="yes"/>
      <point x="53.333333333333336" y="55.0"/>
      <point x="118.0" y="-14.0"/>
    </contour>
    <contour>
      <point x="111.33333333333333" y="192.0" type="curve" smooth="yes"/>
      <point x="111.33333333333333" y="305.0"/>
      <point x="161.66666666666666" y="364.0"/>
      <point x="238.66666666666666" y="364.0" type="curve" smooth="yes"/>
      <point x="273.3333333333333" y="364.0"/>
      <point x="305.3333333333333" y="355.6666666666667"/>
      <point x="340.6666666666667" y="332.6666666666667" type="curve"/>
      <point x="340.6666666666667" y="138.66666666666666" type="line"/>
      <point x="312.6666666666667" y="64.0"/>
      <point x="265.6666666666667" y="38.0"/>
      <point x="217.66666666666666" y="38.0" type="curve" smooth="yes"/>
      <point x="146.66666666666666" y="38.0"/>
      <point x="111.33333333333333" y="98.66666666666667"/>
    </contour>
  </outline>
</glyph>
<glyph name="r" format="2">
  <advance width="358.3333333333333"/>
  <unicode hex="0072"/>
  <anchor x="104.0" y="0.0" name="bottom"/>
  <anchor x="209.0" y="400.0" name="top"/>
  <outline>
    <contour>
      <point x="107.33333333333333" y="-12.0" type="curve" smooth="yes"/>
      <point x="126.0" y="-12.0"/>
      <point x="135.66666666666666" y="-6.333333333333334"/>
      <point x="135.66666666666666" y="6.0" type="curve" smooth="yes"/>
      <point x="135.66666666666666" y="257.6666666666667" type="line"/>
      <point x="160.33333333333334" y="330.6666666666667"/>
      <point x="206.66666666666666" y="363.0"/>
      <point x="255.0" y="363.0" type="curve" smooth="yes"/>
      <point x="276.0" y="363.0"/>
      <point x="294.0" y="356.6666666666667"/>
      <point x="307.0" y="352.3333333333333" type="curve" smooth="yes"/>
      <point x="320.3333333333333" y="348.0"/>
      <point x="329.3333333333333" y="352.3333333333333"/>
      <point x="336.3333333333333" y="365.6666666666667" type="curve" smooth="yes"/>
      <point x="345.6666666666667" y="383.0"/>
      <point x="342.3333333333333" y="390.0"/>
      <point x="332.3333333333333" y="397.3333333333333" type="curve" smooth="yes"/>
      <point x="318.3333333333333" y="407.0"/>
      <point x="291.0" y="415.0"/>
      <point x="264.0" y="415.0" type="curve" smooth="yes"/>
      <point x="217.66666666666666" y="415.0"/>
      <point x="166.66666666666666" y="388.6666666666667"/>
      <point x="135.66666666666666" y="332.6666666666667" type="curve"/>
      <point x="135.66666666666666" y="394.0" type="line" smooth="yes"/>
      <point x="135.66666666666666" y="406.3333333333333"/>
      <point x="126.0" y="412.0"/>
      <point x="107.33333333333333" y="412.0" type="curve" smooth="yes"/>
      <point x="88.66666666666667" y="412.0"/>
      <point x="80.0" y="406.3333333333333"/>
      <point x="80.0" y="394.0" type="curve" smooth="yes"/>
      <point x="80.0" y="6.0" type="line" smooth="yes"/>
      <point x="80.0" y="-6.333333333333334"/>
      <point x="88.66666666666667" y="-12.0"/>
    </contour>
  </outline>
</glyph>
<glyph name="t" format="2">
  <advance width="310.0"/>
  <unicode hex="0074"/>
  <anchor x="194.33333333333334" y="0.0" name="bottom"/>
  <anchor x="154.33333333333334" y="235.0" name="center"/>
  <anchor x="130.33333333333334" y="558.0" name="top"/>
  <anchor x="159.33333333333334" y="625.0" name="topright"/>
  <outline>
    <contour>
      <point x="193.0" y="-14.0" type="curve" smooth="yes"/>
      <point x="231.66666666666666" y="-14.0"/>
      <point x="267.3333333333333" y="3.333333333333334"/>
      <point x="292.3333333333333" y="40.666666666666664" type="curve" smooth="yes"/>
      <point x="297.6666666666667" y="48.666666666666664"/>
      <point x="297.3333333333333" y="59.0"/>
      <point x="287.3333333333333" y="68.0" type="curve" smooth="yes"/>
      <point x="278.3333333333333" y="75.66666666666667"/>
      <point x="268.6666666666667" y="80.66666666666666"/>
      <point x="258.3333333333333" y="70.33333333333333" type="curve" smooth="yes"/>
      <point x="240.0" y="50.666666666666664"/>
      <point x="223.0" y="35.33333333333333"/>
      <point x="198.0" y="35.33333333333333" type="curve" smooth="yes"/>
      <point x="166.33333333333334" y="35.33333333333333"/>
      <point x="157.0" y="56.0"/>
      <point x="157.0" y="96.0" type="curve" smooth="yes"/>
      <point x="157.0" y="348.6666666666667" type="line"/>
      <point x="262.3333333333333" y="348.6666666666667" type="line" smooth="yes"/>
      <point x="276.0" y="348.6666666666667"/>
      <point x="281.0" y="355.3333333333333"/>
      <point x="281.0" y="374.0" type="curve" smooth="yes"/>
      <point x="281.0" y="393.0"/>
      <point x="276.0" y="400.0"/>
      <point x="262.3333333333333" y="400.0" type="curve" smooth="yes"/>
      <point x="157.0" y="400.0" type="line"/>
      <point x="157.0" y="566.0" type="line" smooth="yes"/>
      <point x="157.0" y="578.3333333333334"/>
      <point x="147.33333333333334" y="584.0"/>
      <point x="128.66666666666666" y="584.0" type="curve" smooth="yes"/>
      <point x="110.0" y="584.0"/>
      <point x="101.33333333333333" y="578.3333333333334"/>
      <point x="101.33333333333333" y="566.0" type="curve" smooth="yes"/>
      <point x="101.33333333333333" y="400.0" type="line"/>
      <point x="39.333333333333336" y="400.0" type="line" smooth="yes"/>
      <point x="25.666666666666668" y="400.0"/>
      <point x="20.666666666666668" y="393.0"/>
      <point x="20.666666666666668" y="374.0" type="curve" smooth="yes"/>
      <point x="20.666666666666668" y="355.3333333333333"/>
      <point x="25.666666666666668" y="348.6666666666667"/>
      <point x="39.333333333333336" y="348.6666666666667" type="curve" smooth="yes"/>
      <point x="101.33333333333333" y="348.6666666666667" type="line"/>
      <point x="101.33333333333333" y="87.33333333333333" type="line" smooth="yes"/>
      <point x="101.33333333333333" y="23.666666666666668"/>
      <point x="130.33333333333334" y="-14.0"/>
    </contour>
  </outline>
</glyph>
<glyph name="u" format="2">
  <advance width="517.0"/>
  <unicode hex="0075"/>
  <anchor x="242.0" y="0.0" name="bottom"/>
  <anchor x="465.0" y="10.0" name="ogonek"/>
  <anchor x="242.0" y="400.0" name="top"/>
  <anchor x="376.0" y="411.0" name="topright"/>
  <outline>
    <contour>
      <point x="215.33333333333334" y="-14.333333333333334" type="curve" smooth="yes"/>
      <point x="290.6666666666667" y="-14.333333333333334"/>
      <point x="354.6666666666667" y="32.666666666666664"/>
      <point x="378.3333333333333" y="129.66666666666666" type="curve"/>
      <point x="360.6666666666667" y="162.33333333333334" type="line"/>
      <point x="340.6666666666667" y="83.0"/>
      <point x="289.6666666666667" y="35.666666666666664"/>
      <point x="222.66666666666666" y="35.666666666666664" type="curve" smooth="yes"/>
      <point x="163.0" y="35.666666666666664"/>
      <point x="135.66666666666666" y="70.66666666666667"/>
      <point x="135.66666666666666" y="135.0" type="curve" smooth="yes"/>
      <point x="135.66666666666666" y="393.6666666666667" type="line" smooth="yes"/>
      <point x="135.66666666666666" y="406.0"/>
      <point x="126.0" y="411.6666666666667"/>
      <point x="107.33333333333333" y="411.6666666666667" type="curve" smooth="yes"/>
      <point x="88.66666666666667" y="411.6666666666667"/>
      <point x="80.0" y="406.0"/>
      <point x="80.0" y="393.6666666666667" type="curve" smooth="yes"/>
      <point x="80.0" y="133.0" type="line" smooth="yes"/>
      <point x="80.0" y="32.666666666666664"/>
      <point x="130.0" y="-14.333333333333334"/>
    </contour>
    <contour>
      <point x="429.3333333333333" y="-15.0" type="curve" smooth="yes"/>
      <point x="460.0" y="-15.0"/>
      <point x="491.6666666666667" y="2.0"/>
      <point x="509.0" y="26.333333333333332" type="curve" smooth="yes"/>
      <point x="515.0" y="35.0"/>
      <point x="512.3333333333334" y="44.0"/>
      <point x="506.6666666666667" y="51.0" type="curve" smooth="yes"/>
      <point x="498.6666666666667" y="61.0"/>
      <point x="489.3333333333333" y="62.666666666666664"/>
      <point x="482.3333333333333" y="56.33333333333333" type="curve" smooth="yes"/>
      <point x="468.3333333333333" y="43.33333333333333"/>
      <point x="455.3333333333333" y="34.33333333333333"/>
      <point x="439.6666666666667" y="34.33333333333333" type="curve" smooth="yes"/>
      <point x="420.3333333333333" y="34.33333333333333"/>
      <point x="410.3333333333333" y="47.666666666666664"/>
      <point x="410.3333333333333" y="75.66666666666667" type="curve" smooth="yes"/>
      <point x="410.3333333333333" y="394.0" type="line" smooth="yes"/>
      <point x="410.3333333333333" y="406.3333333333333"/>
      <point x="401.0" y="412.0"/>
      <point x="382.3333333333333" y="412.0" type="curve" smooth="yes"/>
      <point x="363.6666666666667" y="412.0"/>
      <point x="354.6666666666667" y="406.3333333333333"/>
      <point x="354.6666666666667" y="394.0" type="curve" smooth="yes"/>
      <point x="354.6666666666667" y="70.33333333333333" type="line" smooth="yes"/>
      <point x="354.6666666666667" y="18.0"/>
      <point x="379.6666666666667" y="-15.0"/>
    </contour>
  </outline>
</glyph>
<glyph name="v" format="2">
  <advance width="407.0"/>
  <unicode hex="0076"/>
  <outline>
    <contour>
      <point x="203.0" y="-12.0" type="curve" smooth="yes"/>
      <point x="221.66666666666666" y="-12.0"/>
      <point x="228.0" y="-5.333333333333334"/>
      <point x="232.33333333333334" y="6.0" type="curve" smooth="yes"/>
      <point x="382.3333333333333" y="379.3333333333333" type="line" smooth="yes"/>
      <point x="390.0" y="398.6666666666667"/>
      <point x="379.3333333333333" y="412.0"/>
      <point x="355.0" y="412.0" type="curve" smooth="yes"/>
      <point x="341.0" y="412.0"/>
      <point x="334.0" y="406.6666666666667"/>
      <point x="329.0" y="394.0" type="curve" smooth="yes"/>
      <point x="204.0" y="70.0" type="line"/>
      <point x="77.0" y="394.0" type="line" smooth="yes"/>
      <point x="72.0" y="406.6666666666667"/>
      <point x="65.66666666666667" y="412.0"/>
      <point x="51.666666666666664" y="412.0" type="curve" smooth="yes"/>
      <point x="27.666666666666668" y="412.0"/>
      <point x="16.333333333333336" y="396.3333333333333"/>
      <point x="23.666666666666668" y="379.3333333333333" type="curve" smooth="yes"/>
      <point x="173.66666666666666" y="6.0" type="line" smooth="yes"/>
      <point x="178.0" y="-5.333333333333334"/>
      <point x="184.33333333333334" y="-12.0"/>
    </contour>
  </outline>
</glyph>
<glyph name="w" format="2">
  <advance width="643.0"/>
  <unicode hex="0077"/>
  <anchor x="322.0" y="0.0" name="bottom"/>
  <anchor x="322.0" y="400.0" name="top"/>
  <outline>
    <contour>
      <point x="179.0" y="-12.0" type="curve" smooth="yes"/>
      <point x="197.66666666666666" y="-12.0"/>
      <point x="205.33333333333334" y="-4.333333333333334"/>
      <point x="209.0" y="6.333333333333333" type="curve" smooth="yes"/>
      <point x="321.3333333333333" y="323.0" type="line"/>
      <point x="435.3333333333333" y="6.333333333333333" type="line" smooth="yes"/>
      <point x="439.0" y="-4.333333333333334"/>
      <point x="444.6666666666667" y="-12.0"/>
      <point x="463.3333333333333" y="-12.0" type="curve" smooth="yes"/>
      <point x="481.6666666666667" y="-12.0"/>
      <point x="489.6666666666667" y="-5.0"/>
      <point x="493.3333333333333" y="6.333333333333333" type="curve" smooth="yes"/>
      <point x="619.3333333333334" y="379.0" type="line" smooth="yes"/>
      <point x="626.0" y="398.3333333333333"/>
      <point x="616.6666666666666" y="412.0"/>
      <point x="592.3333333333334" y="412.0" type="curve" smooth="yes"/>
      <point x="578.3333333333334" y="412.0"/>
      <point x="570.3333333333334" y="406.6666666666667"/>
      <point x="566.3333333333334" y="394.0" type="curve" smooth="yes"/>
      <point x="464.0" y="70.0" type="line"/>
      <point x="347.6666666666667" y="394.0" type="line" smooth="yes"/>
      <point x="343.3333333333333" y="406.6666666666667"/>
      <point x="335.6666666666667" y="412.0"/>
      <point x="321.6666666666667" y="412.0" type="curve" smooth="yes"/>
      <point x="306.6666666666667" y="412.0"/>
      <point x="299.0" y="407.0"/>
      <point x="294.3333333333333" y="393.6666666666667" type="curve" smooth="yes"/>
      <point x="180.0" y="70.0" type="line"/>
      <point x="76.33333333333333" y="394.0" type="line" smooth="yes"/>
      <point x="72.0" y="406.6666666666667"/>
      <point x="65.0" y="412.0"/>
      <point x="51.0" y="412.0" type="curve" smooth="yes"/>
      <point x="27.0" y="412.0"/>
      <point x="17.333333333333336" y="396.3333333333333"/>
      <point x="23.0" y="379.3333333333333" type="curve" smooth="yes"/>
      <point x="149.0" y="6.333333333333333" type="line" smooth="yes"/>
      <point x="153.33333333333334" y="-5.0"/>
      <point x="160.33333333333334" y="-12.0"/>
    </contour>
  </outline>
</glyph>
<glyph name="x" format="2">
  <advance width="427.0"/>
  <unicode hex="0078"/>
  <outline>
    <contour>
      <point x="386.6666666666667" y="24.333333333333332" type="curve" smooth="yes"/>
      <point x="248.0" y="200.66666666666666" type="line"/>
      <point x="387.3333333333333" y="376.6666666666667" type="line" smooth="yes"/>
      <point x="403.0" y="396.3333333333333"/>
      <point x="388.3333333333333" y="412.6666666666667"/>
      <point x="364.3333333333333" y="412.6666666666667" type="curve" smooth="yes"/>
      <point x="353.3333333333333" y="412.6666666666667"/>
      <point x="348.0" y="408.0"/>
      <point x="337.0" y="394.3333333333333" type="curve" smooth="yes"/>
      <point x="216.0" y="241.33333333333334" type="line"/>
      <point x="92.33333333333333" y="398.0" type="line" smooth="yes"/>
      <point x="83.66666666666667" y="409.3333333333333"/>
      <point x="74.66666666666667" y="415.3333333333333"/>
      <point x="56.666666666666664" y="412.0" type="curve" smooth="yes"/>
      <point x="42.0" y="410.0"/>
      <point x="24.666666666666668" y="397.0"/>
      <point x="42.333333333333336" y="374.6666666666667" type="curve" smooth="yes"/>
      <point x="179.0" y="200.33333333333334" type="line"/>
      <point x="39.333333333333336" y="24.0" type="line" smooth="yes"/>
      <point x="23.666666666666668" y="4.333333333333333"/>
      <point x="39.666666666666664" y="-11.333333333333334"/>
      <point x="63.666666666666664" y="-11.333333333333334" type="curve" smooth="yes"/>
      <point x="74.66666666666667" y="-11.333333333333334"/>
      <point x="80.0" y="-7.333333333333333"/>
      <point x="91.0" y="6.333333333333333" type="curve" smooth="yes"/>
      <point x="211.0" y="160.33333333333334" type="line"/>
      <point x="331.0" y="7.0" type="line" smooth="yes"/>
      <point x="343.0" y="-8.666666666666666"/>
      <point x="351.6666666666667" y="-13.666666666666666"/>
      <point x="368.0" y="-11.666666666666666" type="curve" smooth="yes"/>
      <point x="387.3333333333333" y="-9.666666666666666"/>
      <point x="401.0" y="6.0"/>
    </contour>
  </outline>
</glyph>
<glyph name="y" format="2">
  <advance width="492.0"/>
  <unicode hex="0079"/>
  <anchor x="237.0" y="0.0" name="bottom"/>
  <anchor x="246.0" y="400.0" name="top"/>
  <outline>
    <contour>
      <point x="215.33333333333334" y="-14.333333333333334" type="curve" smooth="yes"/>
      <point x="271.0" y="-14.333333333333334"/>
      <point x="323.6666666666667" y="11.0"/>
      <point x="354.6666666666667" y="68.66666666666667" type="curve"/>
      <point x="354.6666666666667" y="-127.0" type="line" smooth="yes"/>
      <point x="354.6666666666667" y="-223.33333333333334"/>
      <point x="312.6666666666667" y="-264.3333333333333"/>
      <point x="245.0" y="-264.3333333333333" type="curve" smooth="yes"/>
      <point x="194.66666666666666" y="-264.3333333333333"/>
      <point x="164.0" y="-246.66666666666666"/>
      <point x="135.0" y="-207.33333333333334" type="curve" smooth="yes"/>
      <point x="125.33333333333333" y="-195.0"/>
      <point x="117.33333333333333" y="-193.33333333333334"/>
      <point x="101.66666666666667" y="-201.66666666666666" type="curve" smooth="yes"/>
      <point x="84.0" y="-211.33333333333334"/>
      <point x="82.66666666666667" y="-225.66666666666666"/>
      <point x="90.66666666666667" y="-238.33333333333334" type="curve" smooth="yes"/>
      <point x="117.33333333333333" y="-282.0"/>
      <point x="167.0" y="-315.0"/>
      <point x="239.0" y="-315.0" type="curve" smooth="yes"/>
      <point x="342.6666666666667" y="-315.0"/>
      <point x="410.3333333333333" y="-252.0"/>
      <point x="410.3333333333333" y="-129.0" type="curve" smooth="yes"/>
      <point x="410.3333333333333" y="394.0" type="line" smooth="yes"/>
      <point x="410.3333333333333" y="406.3333333333333"/>
      <point x="401.0" y="412.0"/>
      <point x="382.3333333333333" y="412.0" type="curve" smooth="yes"/>
      <point x="363.6666666666667" y="412.0"/>
      <point x="354.6666666666667" y="406.3333333333333"/>
      <point x="354.6666666666667" y="394.0" type="curve" smooth="yes"/>
      <point x="354.6666666666667" y="145.66666666666666" type="line"/>
      <point x="332.6666666666667" y="74.33333333333333"/>
      <point x="283.6666666666667" y="35.666666666666664"/>
      <point x="222.66666666666666" y="35.666666666666664" type="curve" smooth="yes"/>
      <point x="163.0" y="35.666666666666664"/>
      <point x="135.66666666666666" y="70.66666666666667"/>
      <point x="135.66666666666666" y="135.0" type="curve" smooth="yes"/>
      <point x="135.66666666666666" y="393.6666666666667" type="line" smooth="yes"/>
      <point x="135.66666666666666" y="406.0"/>
      <point x="126.0" y="411.6666666666667"/>
      <point x="107.33333333333333" y="411.6666666666667" type="curve" smooth="yes"/>
      <point x="88.66666666666667" y="411.6666666666667"/>
      <point x="80.0" y="406.0"/>
      <point x="80.0" y="393.6666666666667" type="curve" smooth="yes"/>
      <point x="80.0" y="133.0" type="line" smooth="yes"/>
      <point x="80.0" y="32.666666666666664"/>
      <point x="130.0" y="-14.333333333333334"/>
    </contour>
  </outline>
</glyph>
<glyph name="z" format="2">
  <advance width="396.0"/>
  <unicode hex="007A"/>
  <anchor x="210.0" y="0.0" name="bottom"/>
  <anchor x="210.0" y="200.0" name="center"/>
  <anchor x="200.0" y="400.0" name="top"/>
  <outline>
    <contour>
      <point x="67.33333333333333" y="0.0" type="curve" smooth="yes"/>
      <point x="348.0" y="0.0" type="line" smooth="yes"/>
      <point x="361.6666666666667" y="0.0"/>
      <point x="367.3333333333333" y="6.666666666666666"/>
      <point x="367.3333333333333" y="24.0" type="curve" smooth="yes"/>
      <point x="367.3333333333333" y="44.33333333333333"/>
      <point x="361.6666666666667" y="52.0"/>
      <point x="348.0" y="52.0" type="curve" smooth="yes"/>
      <point x="129.66666666666666" y="52.0" type="line"/>
      <point x="354.6666666666667" y="365.3333333333333" type="line" smooth="yes"/>
      <point x="365.0" y="380.0"/>
      <point x="357.0" y="400.0"/>
      <point x="339.6666666666667" y="400.0" type="curve" smooth="yes"/>
      <point x="72.66666666666667" y="400.0" type="line" smooth="yes"/>
      <point x="59.0" y="400.0"/>
      <point x="52.666666666666664" y="393.0"/>
      <point x="52.666666666666664" y="374.0" type="curve" smooth="yes"/>
      <point x="52.666666666666664" y="354.6666666666667"/>
      <point x="59.0" y="348.0"/>
      <point x="72.66666666666667" y="348.0" type="curve" smooth="yes"/>
      <point x="275.6666666666667" y="348.0" type="line"/>
      <point x="49.333333333333336" y="34.0" type="line" smooth="yes"/>
      <point x="41.0" y="22.333333333333332"/>
      <point x="46.333333333333336" y="0.0"/>
    </contour>
  </outline>
</glyph>
<glyph name="braceright" format="2">
  <advance width="263.0"/>
  <unicode hex="007D"/>
  <outline>
    <contour>
      <point x="49.0" y="-60.0" type="curve" smooth="yes"/>
      <point x="133.0" y="-60.0"/>
      <point x="196.33333333333334" y="-22.666666666666664"/>
      <point x="196.33333333333334" y="53.0" type="curve" smooth="yes"/>
      <point x="196.33333333333334" y="127.33333333333333"/>
      <point x="132.33333333333334" y="174.66666666666666"/>
      <point x="132.33333333333334" y="244.0" type="curve" smooth="yes"/>
      <point x="132.33333333333334" y="287.0"/>
      <point x="158.66666666666666" y="315.6666666666667"/>
      <point x="213.0" y="324.0" type="curve" smooth="yes"/>
      <point x="225.66666666666666" y="326.3333333333333"/>
      <point x="231.0" y="330.6666666666667"/>
      <point x="231.0" y="350.0" type="curve" smooth="yes"/>
      <point x="231.0" y="369.3333333333333"/>
      <point x="225.66666666666666" y="373.6666666666667"/>
      <point x="213.0" y="376.0" type="curve" smooth="yes"/>
      <point x="158.66666666666666" y="384.3333333333333"/>
      <point x="132.33333333333334" y="413.0"/>
      <point x="132.33333333333334" y="456.0" type="curve" smooth="yes"/>
      <point x="132.33333333333334" y="525.3333333333334"/>
      <point x="196.33333333333334" y="572.6666666666666"/>
      <point x="196.33333333333334" y="647.0" type="curve" smooth="yes"/>
      <point x="196.33333333333334" y="722.6666666666666"/>
      <point x="133.0" y="760.0"/>
      <point x="49.0" y="760.0" type="curve" smooth="yes"/>
      <point x="36.666666666666664" y="760.0"/>
      <point x="31.333333333333336" y="753.3333333333334"/>
      <point x="31.333333333333336" y="734.0" type="curve" smooth="yes"/>
      <point x="31.333333333333336" y="714.6666666666666"/>
      <point x="36.666666666666664" y="708.0"/>
      <point x="49.0" y="708.0" type="curve" smooth="yes"/>
      <point x="109.33333333333333" y="708.0"/>
      <point x="139.66666666666666" y="681.6666666666666"/>
      <point x="139.66666666666666" y="646.0" type="curve" smooth="yes"/>
      <point x="139.66666666666666" y="583.0"/>
      <point x="76.66666666666667" y="531.6666666666666"/>
      <point x="76.66666666666667" y="456.0" type="curve" smooth="yes"/>
      <point x="76.66666666666667" y="410.0"/>
      <point x="108.0" y="365.0"/>
      <point x="166.66666666666666" y="350.0" type="curve"/>
      <point x="108.0" y="335.0"/>
      <point x="76.66666666666667" y="290.0"/>
      <point x="76.66666666666667" y="244.0" type="curve" smooth="yes"/>
      <point x="76.66666666666667" y="168.33333333333334"/>
      <point x="139.66666666666666" y="117.0"/>
      <point x="139.66666666666666" y="54.0" type="curve" smooth="yes"/>
      <point x="139.66666666666666" y="18.333333333333332"/>
      <point x="109.33333333333333" y="-8.0"/>
      <point x="49.0" y="-8.0" type="curve" smooth="yes"/>
      <point x="36.666666666666664" y="-8.0"/>
      <point x="31.333333333333336" y="-14.666666666666668"/>
      <point x="31.333333333333336" y="-34.0" type="curve" smooth="yes"/>
      <point x="31.333333333333336" y="-53.333333333333336"/>
      <point x="36.666666666666664" y="-60.0"/>
    </contour>
  </outline>
</glyph>
<glyph name="asciitilde" format="2">
  <advance width="610.0"/>
  <unicode hex="007E"/>
  <outline>
    <contour>
      <point x="413.0" y="259.6666666666667" type="curve" smooth="yes"/>
      <point x="482.3333333333333" y="259.6666666666667"/>
      <point x="542.6666666666666" y="309.0"/>
      <point x="543.3333333333334" y="406.6666666666667" type="curve" smooth="yes"/>
      <point x="543.3333333333334" y="424.6666666666667"/>
      <point x="535.3333333333334" y="431.0"/>
      <point x="516.0" y="431.0" type="curve" smooth="yes"/>
      <point x="496.6666666666667" y="431.0"/>
      <point x="488.6666666666667" y="424.0"/>
      <point x="488.6666666666667" y="407.6666666666667" type="curve" smooth="yes"/>
      <point x="488.0" y="339.6666666666667"/>
      <point x="451.3333333333333" y="313.3333333333333"/>
      <point x="413.0" y="313.3333333333333" type="curve" smooth="yes"/>
      <point x="381.0" y="313.3333333333333"/>
      <point x="359.3333333333333" y="332.3333333333333"/>
      <point x="329.0" y="366.3333333333333" type="curve" smooth="yes"/>
      <point x="295.0" y="404.6666666666667"/>
      <point x="260.6666666666667" y="438.3333333333333"/>
      <point x="198.0" y="438.3333333333333" type="curve" smooth="yes"/>
      <point x="128.66666666666666" y="438.3333333333333"/>
      <point x="67.33333333333333" y="389.0"/>
      <point x="66.66666666666667" y="291.3333333333333" type="curve" smooth="yes"/>
      <point x="66.66666666666667" y="273.3333333333333"/>
      <point x="74.66666666666667" y="267.0"/>
      <point x="94.0" y="267.0" type="curve" smooth="yes"/>
      <point x="113.33333333333333" y="267.0"/>
      <point x="121.33333333333333" y="274.0"/>
      <point x="121.33333333333333" y="290.3333333333333" type="curve" smooth="yes"/>
      <point x="122.0" y="358.3333333333333"/>
      <point x="159.66666666666666" y="384.6666666666667"/>
      <point x="198.0" y="384.6666666666667" type="curve" smooth="yes"/>
      <point x="230.66666666666666" y="384.6666666666667"/>
      <point x="252.33333333333334" y="366.3333333333333"/>
      <point x="281.6666666666667" y="333.0" type="curve" smooth="yes"/>
      <point x="316.0" y="294.3333333333333"/>
      <point x="349.3333333333333" y="259.6666666666667"/>
    </contour>
  </outline>
</glyph>
<glyph name="logicalnot" format="2">
  <advance width="610.0"/>
  <unicode hex="00AC"/>
  <outline>
    <contour>
      <point x="509.0" y="128.0" type="curve" smooth="yes"/>
      <point x="527.6666666666666" y="128.0"/>
      <point x="536.6666666666666" y="133.66666666666666"/>
      <point x="536.6666666666666" y="146.0" type="curve" smooth="yes"/>
      <point x="536.6666666666666" y="349.6666666666667" type="line" smooth="yes"/>
      <point x="536.6666666666666" y="367.0"/>
      <point x="530.3333333333334" y="376.0"/>
      <point x="519.3333333333334" y="376.0" type="curve" smooth="yes"/>
      <point x="90.66666666666667" y="376.0" type="line" smooth="yes"/>
      <point x="79.66666666666667" y="376.0"/>
      <point x="73.33333333333333" y="367.0"/>
      <point x="73.33333333333333" y="349.6666666666667" type="curve" smooth="yes"/>
      <point x="73.33333333333333" y="332.6666666666667"/>
      <point x="79.66666666666667" y="324.0"/>
      <point x="90.66666666666667" y="324.0" type="curve" smooth="yes"/>
      <point x="482.0" y="324.0" type="line"/>
      <point x="482.0" y="146.0" type="line" smooth="yes"/>
      <point x="482.0" y="133.66666666666666"/>
      <point x="490.6666666666667" y="128.0"/>
    </contour>
  </outline>
</glyph>
<glyph name="plusminus" format="2">
  <advance width="610.0"/>
  <unicode hex="00B1"/>
  <outline>
    <contour>
      <point x="304.6666666666667" y="177.33333333333334" type="curve" smooth="yes"/>
      <point x="323.3333333333333" y="177.33333333333334"/>
      <point x="332.3333333333333" y="183.0"/>
      <point x="332.3333333333333" y="195.33333333333334" type="curve" smooth="yes"/>
      <point x="332.3333333333333" y="562.6666666666666" type="line" smooth="yes"/>
      <point x="332.3333333333333" y="575.0"/>
      <point x="323.3333333333333" y="580.6666666666666"/>
      <point x="304.6666666666667" y="580.6666666666666" type="curve" smooth="yes"/>
      <point x="286.3333333333333" y="580.6666666666666"/>
      <point x="277.6666666666667" y="575.0"/>
      <point x="277.6666666666667" y="562.6666666666666" type="curve" smooth="yes"/>
      <point x="277.6666666666667" y="195.33333333333334" type="line" smooth="yes"/>
      <point x="277.6666666666667" y="183.0"/>
      <point x="286.3333333333333" y="177.33333333333334"/>
    </contour>
    <component base="minus" yOffset="-252.0"/>
    <component base="minus" yOffset="30.0"/>
  </outline>
</glyph>
<glyph name="multiply" format="2">
  <advance width="610.0"/>
  <unicode hex="00D7"/>
  <outline>
    <contour>
      <point x="475.0" y="180.0" type="curve" smooth="yes"/>
      <point x="484.6666666666667" y="189.66666666666666"/>
      <point x="490.3333333333333" y="204.33333333333334"/>
      <point x="479.6666666666667" y="215.0" type="curve" smooth="yes"/>
      <point x="170.33333333333334" y="522.6666666666666" type="line" smooth="yes"/>
      <point x="159.66666666666666" y="533.6666666666666"/>
      <point x="145.66666666666666" y="527.6666666666666"/>
      <point x="136.0" y="518.0" type="curve" smooth="yes"/>
      <point x="126.66666666666667" y="508.6666666666667"/>
      <point x="121.66666666666667" y="495.6666666666667"/>
      <point x="132.66666666666666" y="485.0" type="curve" smooth="yes"/>
      <point x="441.0" y="176.33333333333334" type="line" smooth="yes"/>
      <point x="451.6666666666667" y="165.66666666666666"/>
      <point x="465.3333333333333" y="171.33333333333334"/>
    </contour>
    <contour>
      <point x="136.0" y="181.0" type="curve" smooth="yes"/>
      <point x="145.66666666666666" y="171.33333333333334"/>
      <point x="159.33333333333334" y="165.33333333333334"/>
      <point x="170.33333333333334" y="176.33333333333334" type="curve" smooth="yes"/>
      <point x="478.6666666666667" y="484.6666666666667" type="line" smooth="yes"/>
      <point x="489.3333333333333" y="495.3333333333333"/>
      <point x="484.3333333333333" y="508.6666666666667"/>
      <point x="474.6666666666667" y="518.3333333333334" type="curve" smooth="yes"/>
      <point x="465.0" y="527.6666666666666"/>
      <point x="451.6666666666667" y="533.3333333333334"/>
      <point x="440.6666666666667" y="522.6666666666666" type="curve" smooth="yes"/>
      <point x="132.33333333333334" y="214.0" type="line" smooth="yes"/>
      <point x="121.66666666666667" y="203.33333333333334"/>
      <point x="126.33333333333333" y="189.66666666666666"/>
    </contour>
  </outline>
</glyph>
<glyph name="Thorn" format="2">
  <advance width="580.0"/>
  <unicode hex="00DE"/>
  <outline>
    <contour>
      <point x="135.0" y="-11.0" type="curve" smooth="yes"/>
      <point x="154.0" y="-11.0"/>
      <point x="163.33333333333334" y="-5.333333333333334"/>
      <point x="163.33333333333334" y="7.666666666666666" type="curve" smooth="yes"/>
      <point x="163.33333333333334" y="189.33333333333334" type="line"/>
      <point x="194.66666666666666" y="190.0"/>
      <point x="233.0" y="192.33333333333334"/>
      <point x="271.6666666666667" y="197.66666666666666" type="curve" smooth="yes"/>
      <point x="401.0" y="215.66666666666666"/>
      <point x="526.6666666666666" y="277.6666666666667"/>
      <point x="526.6666666666666" y="431.6666666666667" type="curve" smooth="yes"/>
      <point x="526.6666666666666" y="557.6666666666666"/>
      <point x="444.6666666666667" y="606.6666666666666"/>
      <point x="288.0" y="606.6666666666666" type="curve" smooth="yes"/>
      <point x="163.33333333333334" y="606.6666666666666" type="line"/>
      <point x="163.33333333333334" y="693.3333333333334" type="line" smooth="yes"/>
      <point x="163.33333333333334" y="706.3333333333334"/>
      <point x="154.0" y="712.0"/>
      <point x="135.0" y="712.0" type="curve" smooth="yes"/>
      <point x="116.0" y="712.0"/>
      <point x="106.66666666666667" y="706.3333333333334"/>
      <point x="106.66666666666667" y="693.3333333333334" type="curve" smooth="yes"/>
      <point x="106.66666666666667" y="7.666666666666666" type="line" smooth="yes"/>
      <point x="106.66666666666667" y="-5.333333333333334"/>
      <point x="116.0" y="-11.0"/>
    </contour>
    <contour>
      <point x="163.33333333333334" y="240.66666666666666" type="curve"/>
      <point x="163.33333333333334" y="554.6666666666666" type="line"/>
      <point x="288.0" y="554.6666666666666" type="line" smooth="yes"/>
      <point x="406.6666666666667" y="554.6666666666666"/>
      <point x="468.0" y="520.3333333333334"/>
      <point x="468.0" y="430.6666666666667" type="curve" smooth="yes"/>
      <point x="468.0" y="315.3333333333333"/>
      <point x="377.3333333333333" y="264.3333333333333"/>
      <point x="271.6666666666667" y="249.0" type="curve" smooth="yes"/>
      <point x="234.33333333333334" y="243.66666666666666"/>
      <point x="196.0" y="241.33333333333334"/>
    </contour>
  </outline>
</glyph>
<glyph name="idotless" format="2">
  <advance width="242.66666666666666"/>
  <unicode hex="0131"/>
  <anchor x="158.0" y="0.0" name="bottom"/>
  <anchor x="202.0" y="0.0" name="ogonek"/>
  <anchor x="104.0" y="400.0" name="top"/>
  <outline>
    <contour>
      <point x="153.66666666666666" y="-14.0" type="curve" smooth="yes"/>
      <point x="184.33333333333334" y="-14.0"/>
      <point x="217.33333333333334" y="3.0"/>
      <point x="235.33333333333334" y="28.0" type="curve" smooth="yes"/>
      <point x="240.66666666666666" y="36.0"/>
      <point x="238.0" y="43.666666666666664"/>
      <point x="232.33333333333334" y="50.666666666666664" type="curve" smooth="yes"/>
      <point x="224.33333333333334" y="60.0"/>
      <point x="215.66666666666666" y="64.33333333333333"/>
      <point x="209.33333333333334" y="58.666666666666664" type="curve" smooth="yes"/>
      <point x="194.66666666666666" y="45.0"/>
      <point x="182.33333333333334" y="35.33333333333333"/>
      <point x="165.33333333333334" y="35.33333333333333" type="curve" smooth="yes"/>
      <point x="145.66666666666666" y="35.33333333333333"/>
      <point x="135.66666666666666" y="48.666666666666664"/>
      <point x="135.66666666666666" y="76.0" type="curve" smooth="yes"/>
      <point x="135.66666666666666" y="394.0" type="line" smooth="yes"/>
      <point x="135.66666666666666" y="406.3333333333333"/>
      <point x="126.0" y="412.0"/>
      <point x="107.33333333333333" y="412.0" type="curve" smooth="yes"/>
      <point x="88.66666666666667" y="412.0"/>
      <point x="80.0" y="406.3333333333333"/>
      <point x="80.0" y="394.0" type="curve" smooth="yes"/>
      <point x="80.0" y="67.33333333333333" type="line" smooth="yes"/>
      <point x="80.0" y="15.0"/>
      <point x="103.66666666666667" y="-14.0"/>
    </contour>
  </outline>
</glyph>
<glyph name="jdotless" format="2">
  <advance width="214.0"/>
  <unicode hex="0237"/>
  <anchor x="104.0" y="400.0" name="top"/>
  <outline>
    <contour>
      <point x="36.333333333333336" y="-314.6666666666667" type="curve" smooth="yes"/>
      <point x="93.33333333333333" y="-314.6666666666667"/>
      <point x="133.0" y="-281.6666666666667"/>
      <point x="133.0" y="-201.33333333333334" type="curve" smooth="yes"/>
      <point x="133.0" y="394.0" type="line" smooth="yes"/>
      <point x="133.0" y="406.3333333333333"/>
      <point x="123.66666666666667" y="412.0"/>
      <point x="105.0" y="412.0" type="curve" smooth="yes"/>
      <point x="86.33333333333333" y="412.0"/>
      <point x="77.33333333333333" y="406.3333333333333"/>
      <point x="77.33333333333333" y="394.0" type="curve" smooth="yes"/>
      <point x="77.33333333333333" y="-202.66666666666666" type="line" smooth="yes"/>
      <point x="77.33333333333333" y="-239.33333333333334"/>
      <point x="70.0" y="-265.3333333333333"/>
      <point x="36.666666666666664" y="-265.3333333333333" type="curve" smooth="yes"/>
      <point x="14.666666666666666" y="-265.3333333333333"/>
      <point x="4.333333333333332" y="-256.0"/>
      <point x="-7.666666666666668" y="-235.0" type="curve" smooth="yes"/>
      <point x="-15.0" y="-222.66666666666666"/>
      <point x="-24.666666666666668" y="-220.0"/>
      <point x="-41.0" y="-228.33333333333334" type="curve" smooth="yes"/>
      <point x="-52.666666666666664" y="-234.33333333333334"/>
      <point x="-59.33333333333333" y="-244.66666666666666"/>
      <point x="-54.0" y="-257.3333333333333" type="curve" smooth="yes"/>
      <point x="-39.666666666666664" y="-289.6666666666667"/>
      <point x="-9.0" y="-314.6666666666667"/>
    </contour>
  </outline>
</glyph>
<glyph name="gravecomb" format="2">
  <unicode hex="0300"/>
  <anchor x="0.0" y="400.0" name="_top"/>
  <anchor x="0.0" y="654.0" name="top"/>
  <outline>
    <contour>
      <point x="27.666666666666668" y="493.3333333333333" type="curve" smooth="yes"/>
      <point x="37.666666666666664" y="493.3333333333333"/>
      <point x="54.666666666666664" y="506.6666666666667"/>
      <point x="54.666666666666664" y="516.0" type="curve" smooth="yes"/>
      <point x="54.666666666666664" y="518.6666666666666"/>
      <point x="54.333333333333336" y="521.6666666666666"/>
      <point x="50.333333333333336" y="527.3333333333334" type="curve" smooth="yes"/>
      <point x="-40.333333333333336" y="660.3333333333334" type="line" smooth="yes"/>
      <point x="-44.66666666666667" y="667.0"/>
      <point x="-49.0" y="670.3333333333334"/>
      <point x="-56.333333333333336" y="670.3333333333334" type="curve" smooth="yes"/>
      <point x="-69.66666666666667" y="670.3333333333334"/>
      <point x="-94.0" y="652.3333333333334"/>
      <point x="-94.0" y="640.3333333333334" type="curve" smooth="yes"/>
      <point x="-94.0" y="634.6666666666666"/>
      <point x="-92.33333333333333" y="632.0"/>
      <point x="-87.0" y="625.0" type="curve" smooth="yes"/>
      <point x="14.666666666666668" y="501.6666666666667" type="line" smooth="yes"/>
      <point x="19.666666666666668" y="495.6666666666667"/>
      <point x="23.333333333333336" y="493.3333333333333"/>
    </contour>
  </outline>
</glyph>
<glyph name="acutecomb" format="2">
  <unicode hex="0301"/>
  <anchor x="0.0" y="400.0" name="_top"/>
  <anchor x="0.0" y="654.0" name="top"/>
  <outline>
    <contour>
      <point x="-28.666666666666668" y="493.3333333333333" type="curve" smooth="yes"/>
      <point x="-24.333333333333336" y="493.3333333333333"/>
      <point x="-20.666666666666668" y="495.6666666666667"/>
      <point x="-15.666666666666668" y="501.6666666666667" type="curve" smooth="yes"/>
      <point x="86.0" y="625.0" type="line" smooth="yes"/>
      <point x="91.33333333333333" y="632.0"/>
      <point x="93.0" y="634.6666666666666"/>
      <point x="93.0" y="640.3333333333334" type="curve" smooth="yes"/>
      <point x="93.0" y="652.3333333333334"/>
      <point x="68.66666666666667" y="670.3333333333334"/>
      <point x="55.333333333333336" y="670.3333333333334" type="curve" smooth="yes"/>
      <point x="48.0" y="670.3333333333334"/>
      <point x="43.66666666666667" y="667.0"/>
      <point x="39.333333333333336" y="660.3333333333334" type="curve" smooth="yes"/>
      <point x="-51.333333333333336" y="527.3333333333334" type="line" smooth="yes"/>
      <point x="-55.333333333333336" y="521.6666666666666"/>
      <point x="-55.666666666666664" y="518.6666666666666"/>
      <point x="-55.666666666666664" y="516.0" type="curve" smooth="yes"/>
      <point x="-55.666666666666664" y="506.6666666666667"/>
      <point x="-38.666666666666664" y="493.3333333333333"/>
    </contour>
  </outline>
</glyph>
<glyph name="circumflexcomb" format="2">
  <unicode hex="0302"/>
  <anchor x="0.0" y="400.0" name="_top"/>
  <anchor x="0.0" y="654.0" name="top"/>
  <outline>
    <contour>
      <point x="-115.0" y="493.3333333333333" type="curve" smooth="yes"/>
      <point x="-109.0" y="493.3333333333333"/>
      <point x="-104.0" y="496.6666666666667"/>
      <point x="-98.33333333333333" y="501.6666666666667" type="curve" smooth="yes"/>
      <point x="0.0" y="603.0" type="line"/>
      <point x="98.33333333333333" y="501.6666666666667" type="line" smooth="yes"/>
      <point x="104.0" y="496.6666666666667"/>
      <point x="109.0" y="493.3333333333333"/>
      <point x="115.0" y="493.3333333333333" type="curve" smooth="yes"/>
      <point x="124.0" y="493.3333333333333"/>
      <point x="138.33333333333334" y="506.0"/>
      <point x="138.33333333333334" y="516.0" type="curve" smooth="yes"/>
      <point x="138.33333333333334" y="519.0"/>
      <point x="138.0" y="522.0"/>
      <point x="133.66666666666666" y="527.6666666666666" type="curve" smooth="yes"/>
      <point x="27.0" y="657.3333333333334" type="line" smooth="yes"/>
      <point x="21.333333333333332" y="664.0"/>
      <point x="14.666666666666666" y="670.3333333333334"/>
      <point x="0.0" y="670.3333333333334" type="curve" smooth="yes"/>
      <point x="-15.333333333333332" y="670.3333333333334"/>
      <point x="-22.0" y="664.0"/>
      <point x="-27.666666666666664" y="657.3333333333334" type="curve" smooth="yes"/>
      <point x="-133.66666666666666" y="527.6666666666666" type="line" smooth="yes"/>
      <point x="-138.0" y="522.0"/>
      <point x="-138.33333333333334" y="519.0"/>
      <point x="-138.33333333333334" y="516.0" type="curve" smooth="yes"/>
      <point x="-138.33333333333334" y="506.0"/>
      <point x="-124.0" y="493.3333333333333"/>
    </contour>
  </outline>
</glyph>
<glyph name="tildecomb" format="2">
  <unicode hex="0303"/>
  <anchor x="0.0" y="400.0" name="_top"/>
  <anchor x="0.0" y="604.0" name="top"/>
  <outline>
    <contour>
      <point x="-122.0" y="516.0" type="curve" smooth="yes"/>
      <point x="-106.66666666666667" y="516.0"/>
      <point x="-99.0" y="521.6666666666666"/>
      <point x="-98.0" y="534.3333333333334" type="curve" smooth="yes"/>
      <point x="-95.66666666666667" y="566.3333333333334"/>
      <point x="-85.0" y="581.6666666666666"/>
      <point x="-68.0" y="581.6666666666666" type="curve" smooth="yes"/>
      <point x="-31.333333333333332" y="581.6666666666666"/>
      <point x="0.0" y="517.3333333333334"/>
      <point x="60.666666666666664" y="517.3333333333334" type="curve" smooth="yes"/>
      <point x="115.33333333333333" y="517.3333333333334"/>
      <point x="140.33333333333334" y="556.0"/>
      <point x="142.0" y="617.3333333333334" type="curve" smooth="yes"/>
      <point x="142.0" y="630.3333333333334"/>
      <point x="135.66666666666666" y="636.6666666666666"/>
      <point x="118.0" y="636.6666666666666" type="curve" smooth="yes"/>
      <point x="102.66666666666667" y="636.6666666666666"/>
      <point x="96.0" y="631.6666666666666"/>
      <point x="95.0" y="621.0" type="curve" smooth="yes"/>
      <point x="93.0" y="589.3333333333334"/>
      <point x="82.33333333333333" y="572.0"/>
      <point x="64.33333333333333" y="572.0" type="curve" smooth="yes"/>
      <point x="26.0" y="572.0"/>
      <point x="-1.666666666666667" y="635.6666666666666"/>
      <point x="-65.33333333333333" y="635.6666666666666" type="curve" smooth="yes"/>
      <point x="-111.33333333333333" y="635.6666666666666"/>
      <point x="-143.0" y="603.6666666666666"/>
      <point x="-144.66666666666666" y="534.6666666666666" type="curve" smooth="yes"/>
      <point x="-144.66666666666666" y="521.6666666666666"/>
      <point x="-136.33333333333334" y="516.0"/>
    </contour>
  </outline>
</glyph>
<glyph name="macroncomb" format="2">
  <unicode hex="0304"/>
  <anchor x="0.0" y="400.0" name="_top"/>
  <anchor x="0.0" y="654.0" name="top"/>
  <outline>
    <contour>
      <point x="-107.0" y="557.0" type="curve" smooth="yes"/>
      <point x="107.0" y="557.0" type="line" smooth="yes"/>
      <point x="122.66666666666667" y="557.0"/>
      <point x="125.66666666666667" y="567.6666666666666"/>
      <point x="125.66666666666667" y="583.3333333333334" type="curve" smooth="yes"/>
      <point x="125.66666666666667" y="600.0"/>
      <point x="122.66666666666667" y="611.6666666666666"/>
      <point x="107.0" y="611.6666666666666" type="curve" smooth="yes"/>
      <point x="-107.0" y="611.6666666666666" type="line" smooth="yes"/>
      <point x="-122.66666666666667" y="611.6666666666666"/>
      <point x="-125.66666666666667" y="600.0"/>
      <point x="-125.66666666666667" y="583.3333333333334" type="curve" smooth="yes"/>
      <point x="-125.66666666666667" y="567.6666666666666"/>
      <point x="-122.66666666666667" y="557.0"/>
    </contour>
  </outline>
</glyph>
<glyph name="brevecomb" format="2">
  <unicode hex="0306"/>
  <anchor x="0.0" y="400.0" name="_top"/>
  <anchor x="0.0" y="654.0" name="top"/>
  <outline>
    <contour>
      <point x="0.0" y="497.3333333333333" type="curve" smooth="yes"/>
      <point x="78.33333333333333" y="497.3333333333333"/>
      <point x="132.33333333333334" y="557.0"/>
      <point x="135.0" y="650.0" type="curve" smooth="yes"/>
      <point x="135.66666666666666" y="661.6666666666666"/>
      <point x="128.33333333333334" y="669.6666666666666"/>
      <point x="111.66666666666667" y="669.6666666666666" type="curve" smooth="yes"/>
      <point x="95.0" y="669.6666666666666"/>
      <point x="90.33333333333333" y="663.0"/>
      <point x="88.33333333333333" y="650.0" type="curve" smooth="yes"/>
      <point x="81.66666666666667" y="592.0"/>
      <point x="53.333333333333336" y="555.3333333333334"/>
      <point x="0.0" y="555.3333333333334" type="curve" smooth="yes"/>
      <point x="-53.333333333333336" y="555.3333333333334"/>
      <point x="-81.66666666666667" y="592.0"/>
      <point x="-88.33333333333333" y="650.0" type="curve" smooth="yes"/>
      <point x="-90.33333333333333" y="662.3333333333334"/>
      <point x="-95.66666666666667" y="669.6666666666666"/>
      <point x="-112.33333333333333" y="669.6666666666666" type="curve" smooth="yes"/>
      <point x="-129.0" y="669.6666666666666"/>
      <point x="-135.66666666666666" y="661.6666666666666"/>
      <point x="-135.0" y="650.0" type="curve" smooth="yes"/>
      <point x="-132.33333333333334" y="553.6666666666666"/>
      <point x="-81.0" y="497.3333333333333"/>
    </contour>
  </outline>
</glyph>
<glyph name="dotaccentcomb" format="2">
  <unicode hex="0307"/>
  <anchor x="0.0" y="400.0" name="_top"/>
  <anchor x="0.0" y="620.0" name="top"/>
  <outline>
    <contour>
      <point x="0.0" y="540.6666666666666" type="curve" smooth="yes"/>
      <point x="26.0" y="540.6666666666666"/>
      <point x="40.0" y="555.0"/>
      <point x="39.33333333333333" y="585.3333333333334" type="curve" smooth="yes"/>
      <point x="39.33333333333333" y="615.6666666666666"/>
      <point x="26.0" y="630.6666666666666"/>
      <point x="0.0" y="630.6666666666666" type="curve" smooth="yes"/>
      <point x="-26.666666666666664" y="630.6666666666666"/>
      <point x="-40.0" y="615.6666666666666"/>
      <point x="-40.0" y="585.3333333333334" type="curve" smooth="yes"/>
      <point x="-40.0" y="555.0"/>
      <point x="-26.666666666666664" y="540.6666666666666"/>
    </contour>
  </outline>
</glyph>
<glyph name="dieresiscomb" format="2">
  <unicode hex="0308"/>
  <anchor x="0.0" y="400.0" name="_top"/>
  <anchor x="0.0" y="602.3333333333334" name="top"/>
  <outline>
    <contour>
      <point x="-96.66666666666667" y="540.6666666666666" type="curve" smooth="yes"/>
      <point x="-70.66666666666667" y="540.6666666666666"/>
      <point x="-56.66666666666667" y="555.0"/>
      <point x="-57.333333333333336" y="585.3333333333334" type="curve" smooth="yes"/>
      <point x="-57.333333333333336" y="615.6666666666666"/>
      <point x="-70.66666666666667" y="630.6666666666666"/>
      <point x="-96.66666666666667" y="630.6666666666666" type="curve" smooth="yes"/>
      <point x="-123.33333333333333" y="630.6666666666666"/>
      <point x="-136.66666666666666" y="615.6666666666666"/>
      <point x="-136.66666666666666" y="585.3333333333334" type="curve" smooth="yes"/>
      <point x="-136.66666666666666" y="555.0"/>
      <point x="-123.33333333333333" y="540.6666666666666"/>
    </contour>
    <contour>
      <point x="97.33333333333333" y="540.6666666666666" type="curve" smooth="yes"/>
      <point x="123.33333333333333" y="540.6666666666666"/>
      <point x="137.33333333333334" y="555.0"/>
      <point x="136.66666666666666" y="585.3333333333334" type="curve" smooth="yes"/>
      <point x="136.66666666666666" y="615.6666666666666"/>
      <point x="123.33333333333333" y="630.6666666666666"/>
      <point x="97.33333333333333" y="630.6666666666666" type="curve" smooth="yes"/>
      <point x="70.66666666666667" y="630.6666666666666"/>
      <point x="57.333333333333336" y="615.6666666666666"/>
      <point x="57.333333333333336" y="585.3333333333334" type="curve" smooth="yes"/>
      <point x="57.333333333333336" y="555.0"/>
      <point x="70.66666666666667" y="540.6666666666666"/>
    </contour>
  </outline>
</glyph>
<glyph name="hookabovecomb" format="2">
  <unicode hex="0309"/>
  <anchor x="0.0" y="400.0" name="_top"/>
  <anchor x="0.0" y="654.0" name="top"/>
  <outline>
    <contour>
      <point x="7.333333333333333" y="682.0" type="curve" smooth="yes"/>
      <point x="-24.666666666666668" y="682.0"/>
      <point x="-52.0" y="672.3333333333334"/>
      <point x="-71.66666666666667" y="657.3333333333334" type="curve" smooth="yes"/>
      <point x="-80.33333333333333" y="650.3333333333334"/>
      <point x="-81.33333333333333" y="640.0"/>
      <point x="-76.0" y="630.3333333333334" type="curve" smooth="yes"/>
      <point x="-69.0" y="617.3333333333334"/>
      <point x="-59.333333333333336" y="612.6666666666666"/>
      <point x="-47.666666666666664" y="620.0" type="curve"/>
      <point x="-36.0" y="628.0"/>
      <point x="-17.666666666666668" y="634.0"/>
      <point x="-2.333333333333333" y="634.0" type="curve" smooth="yes"/>
      <point x="15.0" y="634.0"/>
      <point x="27.666666666666668" y="626.0"/>
      <point x="27.666666666666668" y="613.3333333333334" type="curve" smooth="yes"/>
      <point x="27.666666666666668" y="602.6666666666666"/>
      <point x="22.333333333333336" y="593.6666666666666"/>
      <point x="4.333333333333334" y="581.3333333333334" type="curve" smooth="yes"/>
      <point x="-17.666666666666664" y="566.3333333333334"/>
      <point x="-29.0" y="546.0"/>
      <point x="-18.333333333333332" y="518.3333333333334" type="curve" smooth="yes"/>
      <point x="-10.333333333333332" y="498.0" type="line" smooth="yes"/>
      <point x="-2.666666666666666" y="478.6666666666667"/>
      <point x="40.33333333333333" y="490.6666666666667"/>
      <point x="34.666666666666664" y="511.0" type="curve" smooth="yes"/>
      <point x="32.666666666666664" y="518.3333333333334" type="line" smooth="yes"/>
      <point x="28.0" y="531.6666666666666"/>
      <point x="31.333333333333332" y="538.6666666666666"/>
      <point x="48.666666666666664" y="551.6666666666666" type="curve" smooth="yes"/>
      <point x="76.66666666666667" y="572.3333333333334"/>
      <point x="88.33333333333333" y="589.3333333333334"/>
      <point x="88.33333333333333" y="616.6666666666666" type="curve" smooth="yes"/>
      <point x="88.33333333333333" y="655.0"/>
      <point x="55.666666666666664" y="682.0"/>
    </contour>
  </outline>
</glyph>
<glyph name="ringcomb" format="2">
  <unicode hex="030A"/>
  <anchor x="0.0" y="400.0" name="_top"/>
  <anchor x="0.0" y="654.0" name="top"/>
  <outline>
    <contour>
      <point x="0.0" y="483.6666666666667" type="curve" smooth="yes"/>
      <point x="62.333333333333336" y="483.6666666666667"/>
      <point x="105.0" y="524.0"/>
      <point x="105.0" y="585.0" type="curve" smooth="yes"/>
      <point x="105.0" y="645.0"/>
      <point x="62.333333333333336" y="685.3333333333334"/>
      <point x="0.0" y="685.3333333333334" type="curve" smooth="yes"/>
      <point x="-62.333333333333336" y="685.3333333333334"/>
      <point x="-105.0" y="645.0"/>
      <point x="-105.0" y="585.0" type="curve" smooth="yes"/>
      <point x="-105.0" y="524.0"/>
      <point x="-62.333333333333336" y="483.6666666666667"/>
    </contour>
    <contour>
      <point x="0.0" y="525.0" type="curve" smooth="yes"/>
      <point x="-35.0" y="525.0"/>
      <point x="-56.333333333333336" y="548.6666666666666"/>
      <point x="-56.333333333333336" y="585.0" type="curve" smooth="yes"/>
      <point x="-56.333333333333336" y="620.3333333333334"/>
      <point x="-35.0" y="644.0"/>
      <point x="0.0" y="644.0" type="curve" smooth="yes"/>
      <point x="35.0" y="644.0"/>
      <point x="56.333333333333336" y="620.3333333333334"/>
      <point x="56.333333333333336" y="585.0" type="curve" smooth="yes"/>
      <point x="56.333333333333336" y="548.6666666666666"/>
      <point x="35.0" y="525.0"/>
    </contour>
  </outline>
</glyph>
<glyph name="hungarumlautcomb" format="2">
  <unicode hex="030B"/>
  <anchor x="0.0" y="400.0" name="_top"/>
  <anchor x="49.666666666666664" y="654.0" name="top"/>
  <outline>
    <contour>
      <point x="-72.66666666666667" y="493.3333333333333" type="curve" smooth="yes"/>
      <point x="-67.33333333333333" y="493.3333333333333"/>
      <point x="-63.666666666666664" y="496.3333333333333"/>
      <point x="-59.0" y="503.6666666666667" type="curve" smooth="yes"/>
      <point x="18.0" y="629.3333333333334" type="line" smooth="yes"/>
      <point x="22.0" y="636.0"/>
      <point x="23.0" y="639.6666666666666"/>
      <point x="23.0" y="644.0" type="curve" smooth="yes"/>
      <point x="23.0" y="658.0"/>
      <point x="-2.0" y="670.3333333333334"/>
      <point x="-15.666666666666666" y="670.3333333333334" type="curve" smooth="yes"/>
      <point x="-25.333333333333332" y="670.3333333333334"/>
      <point x="-29.0" y="665.3333333333334"/>
      <point x="-32.666666666666664" y="657.6666666666666" type="curve" smooth="yes"/>
      <point x="-98.33333333333333" y="524.6666666666666" type="line" smooth="yes"/>
      <point x="-101.33333333333333" y="518.6666666666666"/>
      <point x="-101.33333333333333" y="516.0"/>
      <point x="-101.33333333333333" y="513.3333333333334" type="curve" smooth="yes"/>
      <point x="-101.33333333333333" y="501.6666666666667"/>
      <point x="-83.66666666666667" y="493.3333333333333"/>
    </contour>
    <contour>
      <point x="56.666666666666664" y="493.3333333333333" type="curve" smooth="yes"/>
      <point x="62.0" y="493.3333333333333"/>
      <point x="65.66666666666667" y="496.3333333333333"/>
      <point x="70.33333333333333" y="503.6666666666667" type="curve" smooth="yes"/>
      <point x="153.0" y="629.3333333333334" type="line" smooth="yes"/>
      <point x="157.0" y="636.0"/>
      <point x="158.0" y="639.6666666666666"/>
      <point x="158.0" y="644.0" type="curve" smooth="yes"/>
      <point x="158.0" y="658.0"/>
      <point x="133.0" y="670.3333333333334"/>
      <point x="119.33333333333333" y="670.3333333333334" type="curve" smooth="yes"/>
      <point x="109.66666666666667" y="670.3333333333334"/>
      <point x="106.66666666666667" y="665.3333333333334"/>
      <point x="102.33333333333333" y="657.6666666666666" type="curve" smooth="yes"/>
      <point x="31.0" y="524.6666666666666" type="line" smooth="yes"/>
      <point x="28.0" y="518.6666666666666"/>
      <point x="28.0" y="516.0"/>
      <point x="28.0" y="513.3333333333334" type="curve" smooth="yes"/>
      <point x="28.0" y="501.6666666666667"/>
      <point x="45.666666666666664" y="493.3333333333333"/>
    </contour>
  </outline>
</glyph>
<glyph name="commaturnedabovecomb" format="2">
  <unicode hex="0312"/>
  <anchor x="0.0" y="400.0" name="_top"/>
  <anchor x="0.0" y="654.0" name="top"/>
  <outline>
    <contour>
      <point x="40.333333333333336" y="673.6666666666666" type="curve" smooth="yes"/>
      <point x="25.666666666666668" y="679.0"/>
      <point x="18.0" y="676.0"/>
      <point x="9.0" y="662.0" type="curve" smooth="yes"/>
      <point x="-15.666666666666666" y="623.3333333333334"/>
      <point x="-33.0" y="569.3333333333334"/>
      <point x="-33.0" y="527.0" type="curve" smooth="yes"/>
      <point x="-33.0" y="510.6666666666667"/>
      <point x="-22.0" y="499.3333333333333"/>
      <point x="-2.0" y="499.3333333333333" type="curve" smooth="yes"/>
      <point x="15.333333333333332" y="499.3333333333333"/>
      <point x="23.666666666666664" y="506.6666666666667"/>
      <point x="23.666666666666664" y="521.6666666666666" type="curve" smooth="yes"/>
      <point x="23.666666666666664" y="573.6666666666666"/>
      <point x="28.666666666666664" y="602.3333333333334"/>
      <point x="48.0" y="647.0" type="curve" smooth="yes"/>
      <point x="54.333333333333336" y="662.0"/>
      <point x="52.333333333333336" y="669.0"/>
    </contour>
  </outline>
</glyph>
<glyph name="horncomb" format="2">
  <unicode hex="031B"/>
  <anchor x="0.0" y="412.0" name="_topright"/>
  <outline>
    <contour>
      <point x="131.33333333333334" y="561.3333333333334" type="curve" smooth="yes"/>
      <point x="111.0" y="589.6666666666666"/>
      <point x="62.333333333333336" y="558.6666666666666"/>
      <point x="81.66666666666667" y="531.3333333333334" type="curve" smooth="yes"/>
      <point x="124.66666666666667" y="470.3333333333333"/>
      <point x="110.0" y="416.0"/>
      <point x="0.0" y="412.0" type="curve"/>
      <point x="0.0" y="371.6666666666667" type="line"/>
      <point x="159.0" y="373.6666666666667"/>
      <point x="194.33333333333334" y="473.3333333333333"/>
    </contour>
  </outline>
</glyph>
